<svg width="28" height="19" viewBox="0 0 28 19" fill="none" xmlns="http://www.w3.org/2000/svg">
<path fill-rule="evenodd" clip-rule="evenodd" d="M26.2632 16.2199C26.2632 16.8244 25.6029 17.1983 25.0825 16.8891L13.7552 10.1691C13.6755 10.1216 13.6122 10.0608 13.5575 9.99463L13.5575 16.2004C13.5575 16.8088 12.8895 17.1827 12.3683 16.8657L1.37388 10.1645C0.875375 9.86141 0.875375 9.13925 1.37388 8.83543L12.3683 2.13498C12.8895 1.81792 13.5575 2.19107 13.5575 2.79949L13.5575 9.00526C13.6122 8.93982 13.6755 8.87906 13.7552 8.83076L25.0825 2.11083C25.6029 1.80156 26.2632 2.17627 26.2632 2.7808L26.2632 16.2199Z" stroke="white" stroke-width="2"/>
</svg>
