<svg width="15" height="12" viewBox="0 0 15 12" fill="none" xmlns="http://www.w3.org/2000/svg">
<path d="M9.81824 2.13636H10.3182V1.63636V0.86159L12.6286 2.18182L10.3182 3.50205V2.72727V2.22727H9.81824H3.27278C1.78553 2.22727 0.590963 3.42183 0.590963 4.90909H0.590913L0.591013 4.91616C0.591099 4.92219 0.589985 4.92818 0.587736 4.93377C0.585488 4.93937 0.582149 4.94446 0.577916 4.94876C0.573682 4.95305 0.568637 4.95646 0.563073 4.95879C0.55751 4.96112 0.551539 4.96231 0.545509 4.96231C0.539479 4.96231 0.533508 4.96112 0.527945 4.95879C0.522381 4.95646 0.517336 4.95305 0.513103 4.94876C0.508869 4.94446 0.50553 4.93937 0.503282 4.93377C0.501033 4.92818 0.499919 4.92219 0.500005 4.91616L0.500055 4.91616V4.90909C0.500055 3.38435 1.74804 2.13636 3.27278 2.13636H9.81824ZM13.591 7.09091H13.591L13.5909 7.08406C13.5908 7.07201 13.5954 7.06038 13.6038 7.05173C13.6122 7.04309 13.6237 7.03812 13.6357 7.03794C13.6418 7.03784 13.6478 7.03897 13.6535 7.04125C13.6591 7.04353 13.6643 7.04693 13.6686 7.05123C13.6729 7.05553 13.6763 7.06065 13.6786 7.06629C13.6809 7.07193 13.682 7.07797 13.6819 7.08406L13.6819 7.08406V7.09091C13.6819 8.61565 12.4339 9.86364 10.9091 9.86364H4.36369H3.86369V10.3636V11.1384L1.55329 9.81818L3.86369 8.49795V9.27273V9.77273H4.36369H10.9091C12.3964 9.77273 13.591 8.57817 13.591 7.09091Z" fill="#FFFFFF" stroke="#FFFFFF"/>
</svg>
