<svg width="16" height="12" viewBox="0 0 16 12" fill="none" xmlns="http://www.w3.org/2000/svg">
<path d="M14.1072 2.4L11.9085 3.86574V3V2.5H11.4085H10.014C9.04354 2.5 8.13987 2.98385 7.60121 3.79126L7.60115 3.79134L6.31326 5.72259L6.12827 6L6.31326 6.27741L7.60115 8.20866L7.60121 8.20874C8.13987 9.01615 9.04354 9.5 10.014 9.5H11.4085H11.9085V9V8.13426L14.1072 9.6L11.9085 11.0657V10.2V9.7H11.4085H10.014C8.97816 9.7 8.00961 9.18123 7.43463 8.31939L6.42457 6.80429L6.00854 6.18025L5.59252 6.80429L4.58241 8.31946C4.00795 9.18083 3.03895 9.7 2.00308 9.7H0.608545V9.69995L0.601475 9.70005C0.588219 9.70024 0.575056 9.69779 0.562751 9.69284C0.550447 9.6879 0.539249 9.68056 0.529809 9.67125C0.520367 9.66194 0.51287 9.65085 0.507753 9.63862C0.502635 9.62639 0.5 9.61326 0.5 9.6C0.5 9.58674 0.502635 9.57361 0.507753 9.56138C0.51287 9.54915 0.520367 9.53806 0.529809 9.52875C0.539249 9.51944 0.550447 9.5121 0.562751 9.50716C0.575056 9.50221 0.588219 9.49976 0.601475 9.49995L0.601474 9.5H0.608545H2.00308C2.97361 9.5 3.87799 9.01529 4.41593 8.20867L4.41594 8.20866L5.70383 6.27741L5.88882 6L5.70383 5.72259L4.41594 3.79134L4.41593 3.79133C3.87799 2.98471 2.97361 2.5 2.00308 2.5H0.608545V2.49995L0.601475 2.50005C0.588216 2.50024 0.575053 2.49779 0.562751 2.49284C0.550449 2.4879 0.539251 2.48056 0.529809 2.47125C0.520367 2.46194 0.51287 2.45085 0.507753 2.43862C0.502635 2.42639 0.5 2.41326 0.5 2.4C0.5 2.38674 0.502635 2.37361 0.507753 2.36138C0.51287 2.34915 0.520367 2.33806 0.529809 2.32875C0.539251 2.31944 0.550449 2.3121 0.562751 2.30716C0.575053 2.30221 0.588216 2.29976 0.601475 2.29995L0.601474 2.3H0.608545H2.00308C3.03895 2.3 4.00795 2.81917 4.58241 3.68054L5.59252 5.19571L6.00854 5.81975L6.42457 5.19571L7.43463 3.68061C7.43466 3.68057 7.4347 3.68052 7.43473 3.68048C8.00971 2.81871 8.97821 2.3 10.014 2.3H11.4085H11.9085V1.8V0.934259L14.1072 2.4Z" fill="#4A4A4A" stroke="#4A4A4A"/>
</svg>
