<svg width="19" height="20" viewBox="0 0 19 20" fill="none" xmlns="http://www.w3.org/2000/svg">
<path d="M12.5788 3.18618C13.276 2.44402 13.7699 1.42035 13.7699 0.396673C13.7699 0.255918 13.7554 0.115163 13.7263 0C12.5934 0.0383877 11.2135 0.665387 10.4 1.50992C9.74641 2.16251 9.15088 3.18618 9.15088 4.22265C9.15088 4.3762 9.17993 4.52975 9.19446 4.58093C9.26708 4.59373 9.38328 4.60653 9.49949 4.60653C10.5308 4.60653 11.8235 4.00512 12.5788 3.18618ZM13.3777 4.82406C11.6637 4.82406 10.2693 5.74536 9.38328 5.74536C8.43915 5.74536 7.18998 4.87524 5.69388 4.87524C2.86147 4.87524 0 6.94818 0 10.8253C0 13.2566 1.06034 15.8029 2.36761 17.4536C3.50057 18.8484 4.48829 20 5.89723 20C7.30618 20 7.91624 19.1683 9.65926 19.1683C11.4313 19.1683 11.838 19.9744 13.3777 19.9744C14.9174 19.9744 15.9487 18.7332 16.9073 17.5048C17.9967 16.0972 18.447 14.7409 18.4615 14.6641C18.3744 14.6385 15.4258 13.5893 15.4258 10.6206C15.4258 8.04862 17.7498 6.90979 17.8805 6.82022C16.3554 4.87524 14.0314 4.82406 13.3777 4.82406Z" fill="white"/>
</svg>
