<svg width="20" height="20" viewBox="0 0 20 20" fill="none" xmlns="http://www.w3.org/2000/svg">
<path d="M20 8.95583C20 12.7375 18.1625 15.0783 15.1708 15.0783C13.6217 15.0783 12.5158 14.4058 12.1917 13.2658H11.9633C11.4708 14.4783 10.5342 15.0908 9.1525 15.0908C6.65417 15.0908 4.99667 13.0742 4.99667 10.025C4.99667 7.1075 6.59417 5.13917 8.9725 5.13917C10.27 5.13917 11.2908 5.76333 11.7717 6.84417H12V5.4275H14.7625V11.5258C14.7625 12.3783 15.1467 12.8825 15.7958 12.8825C16.8525 12.8825 17.5258 11.4783 17.5258 9.245C17.5258 4.89917 14.6792 2.11417 10.2467 2.11417C5.62167 2.11417 2.475 5.35583 2.475 10.0733C2.475 14.8508 5.64583 17.8408 10.7392 17.8408C11.8442 17.8408 12.985 17.6967 13.61 17.505V19.6417C12.745 19.8683 11.6158 20 10.4742 20C4.1925 20 0 16.0025 0 10.0117C0 4.09333 4.20417 0 10.2825 0C16.0725 0 20 3.62583 20 8.95583ZM8.15583 10.1083C8.15583 11.6692 8.80417 12.605 9.8975 12.605C11.0025 12.605 11.675 11.6567 11.675 10.1083C11.675 8.56 10.99 7.61167 9.8975 7.61167C8.805 7.61167 8.15583 8.5475 8.15583 10.1083Z" fill="white"/>
</svg>
