<svg width="100" height="34" viewBox="0 0 100 34" fill="none" xmlns="http://www.w3.org/2000/svg">
<path d="M92.0364 8.3567e-05H7.96787C7.66143 8.3567e-05 7.35866 8.35669e-05 7.05298 0.00175491C6.79718 0.00342625 6.54338 0.00827314 6.28508 0.0123679C5.72394 0.0189686 5.16411 0.0683326 4.61048 0.160031C4.05761 0.253726 3.52207 0.430372 3.02195 0.683996C2.52247 0.939777 2.06608 1.27213 1.66934 1.669C1.27051 2.06472 0.938052 2.52213 0.684748 3.02362C0.43074 3.52417 0.254614 4.06055 0.162454 4.61424C0.0694116 5.1672 0.0193444 5.72655 0.0127022 6.28725C0.00493046 6.54347 0.00409479 6.80052 0 7.05682V26.3727C0.00409479 26.6321 0.00493046 26.8835 0.0127022 27.1432C0.0193507 27.7038 0.0694178 28.2631 0.162454 28.816C0.254367 29.37 0.430503 29.9067 0.684748 30.4074C0.937931 30.9073 1.27043 31.3628 1.66934 31.7564C2.06457 32.155 2.52126 32.4876 3.02195 32.7414C3.52206 32.9957 4.05755 33.1734 4.61048 33.2685C5.16421 33.3595 5.72397 33.4089 6.28508 33.4163C6.5433 33.422 6.79718 33.4252 7.05306 33.4252C7.35866 33.4269 7.66143 33.4269 7.96787 33.4269H92.0363C92.3367 33.4269 92.6419 33.4269 92.9422 33.4252C93.1969 33.4252 93.458 33.422 93.7127 33.4163C94.2727 33.4093 94.8314 33.3599 95.384 33.2685C95.9387 33.1727 96.4761 32.9951 96.9786 32.7414C97.4789 32.4874 97.9352 32.1549 98.3301 31.7564C98.728 31.3613 99.0612 30.9061 99.3175 30.4074C99.5698 29.9063 99.7442 29.3697 99.8348 28.816C99.928 28.263 99.9799 27.7038 99.99 27.1431C99.9933 26.8835 99.9933 26.6321 99.9933 26.3727C100 26.0691 100 25.7671 100 25.4586V7.9692C100 7.6631 100 7.35958 99.9933 7.05682C99.9933 6.80052 99.9933 6.54347 99.99 6.28717C99.9799 5.72642 99.9281 5.1672 99.8349 4.61415C99.744 4.06084 99.5696 3.52456 99.3175 3.02371C98.8017 2.01843 97.9837 1.20013 96.9786 0.683913C96.4761 0.430911 95.9387 0.254311 95.384 0.159947C94.8315 0.0678591 94.2727 0.0184919 93.7127 0.0122844C93.458 0.00818957 93.1969 0.00325911 92.9422 0.00167134C92.6419 0 92.3367 0 92.0363 0L92.0364 8.3567e-05Z" fill="#A6A6A6"/>
<path d="M7.05702 32.6958C6.80239 32.6958 6.55395 32.6925 6.30132 32.6869C5.77803 32.6801 5.25595 32.6345 4.73937 32.5506C4.25769 32.4677 3.79108 32.3133 3.35492 32.0927C2.92274 31.8739 2.52857 31.5871 2.18749 31.2432C1.84144 30.9033 1.55334 30.5091 1.3346 30.0761C1.11347 29.6404 0.960441 29.1734 0.880832 28.6913C0.79489 28.1732 0.748404 27.6494 0.741777 27.1244C0.736428 26.9481 0.729492 26.3614 0.729492 26.3614V7.05685C0.729492 7.05685 0.736846 6.47906 0.741777 6.30926C0.748144 5.78505 0.794378 5.26208 0.88008 4.74488C0.959846 4.26146 1.11301 3.79307 1.33427 3.35591C1.55217 2.92329 1.83863 2.52877 2.18256 2.18765C2.52612 1.84329 2.92157 1.55496 3.3545 1.33317C3.78967 1.11331 4.25541 0.960088 4.73611 0.878652C5.2544 0.793932 5.77829 0.748148 6.30341 0.741686L7.05744 0.731323H92.9382L93.7012 0.741936C94.2215 0.748118 94.7407 0.793541 95.2543 0.877816C95.7398 0.960297 96.2104 1.11461 96.6506 1.33568C97.5179 1.78263 98.2235 2.48974 98.6687 3.35792C98.8865 3.79208 99.0372 4.25667 99.116 4.73594C99.2027 5.25737 99.2513 5.78443 99.2612 6.31293C99.2637 6.54959 99.2637 6.80381 99.2637 7.05685C99.2704 7.37022 99.2704 7.66847 99.2704 7.96923V25.4586C99.2704 25.7622 99.2704 26.0585 99.2637 26.3572C99.2637 26.6289 99.2637 26.8779 99.2604 27.1341C99.2506 27.6532 99.2029 28.1709 99.1175 28.683C99.0395 29.1686 98.8873 29.6393 98.6662 30.0786C98.446 30.5068 98.1596 30.8976 97.8176 31.2365C97.4762 31.5823 97.0813 31.8709 96.6482 32.091C96.2092 32.3133 95.7393 32.4682 95.2543 32.5505C94.7377 32.6348 94.2156 32.6804 93.6922 32.6868C93.4423 32.6926 93.1923 32.6956 92.9423 32.6957L92.0364 32.6974L7.05702 32.6958Z" fill="black"/>
<path d="M20.6987 16.9649C20.7077 16.2674 20.893 15.5835 21.2373 14.9769C21.5816 14.3702 22.0738 13.8605 22.668 13.4952C22.2905 12.956 21.7925 12.5124 21.2135 12.1994C20.6346 11.8863 19.9906 11.7127 19.3328 11.6921C17.9294 11.5447 16.569 12.5317 15.8539 12.5317C15.125 12.5317 14.024 11.7067 12.8384 11.7311C12.0716 11.7558 11.3242 11.9788 10.6691 12.3783C10.014 12.7778 9.47359 13.3402 9.10048 14.0106C7.48429 16.8089 8.68983 20.9212 10.2381 23.183C11.0127 24.2906 11.9179 25.5278 13.1024 25.4839C14.2615 25.4358 14.6944 24.7447 16.0936 24.7447C17.4798 24.7447 17.886 25.4839 19.0945 25.456C20.3383 25.4358 21.1219 24.3435 21.8694 23.2255C22.4259 22.4363 22.8541 21.5641 23.1382 20.6412C22.4156 20.3355 21.799 19.824 21.3652 19.1702C20.9313 18.5165 20.6996 17.7495 20.6987 16.9649ZM18.416 10.2045C19.0942 9.39036 19.4283 8.34396 19.3474 7.28749C18.3113 7.39631 17.3542 7.89149 16.6669 8.67437C16.3308 9.05682 16.0734 9.50177 15.9094 9.98376C15.7455 10.4657 15.6781 10.9753 15.7111 11.4834C16.2294 11.4887 16.7421 11.3764 17.2106 11.1549C17.6791 10.9333 18.0913 10.6084 18.416 10.2045ZM35.3509 22.68H31.3953L30.4454 25.4849H28.7699L32.5166 15.1075H34.2573L38.004 25.4849H36.3L35.3509 22.68ZM31.805 21.3857H34.9404L33.3948 16.8336H33.3515L31.805 21.3857ZM46.0954 21.7024C46.0954 24.0535 44.837 25.564 42.938 25.564C42.457 25.5892 41.9785 25.4784 41.5575 25.2443C41.1365 25.0102 40.7899 24.6622 40.5575 24.2403H40.5215V27.9878H38.9685V17.919H40.4718V19.1774H40.5004C40.7435 18.7575 41.0959 18.4114 41.5201 18.1758C41.9444 17.9403 42.4245 17.8242 42.9094 17.8398C44.8296 17.8398 46.0954 19.3577 46.0954 21.7023V21.7024ZM44.4991 21.7024C44.4991 20.1706 43.7076 19.1635 42.4998 19.1635C41.3131 19.1635 40.5151 20.1917 40.5151 21.7023C40.5151 23.2268 41.3131 24.2478 42.4998 24.2478C43.7076 24.2478 44.4991 23.248 44.4991 21.7023V21.7024ZM54.4227 21.7024C54.4227 24.0535 53.1644 25.564 51.2653 25.564C50.7843 25.5892 50.3058 25.4784 49.8848 25.2443C49.4638 25.0102 49.1173 24.6622 48.8848 24.2403H48.8489V27.9878H47.2959V17.919H48.7991V19.1774H48.8277C49.0708 18.7575 49.4232 18.4114 49.8474 18.1758C50.2716 17.9403 50.7518 17.8242 51.2367 17.8398C53.157 17.8398 54.4227 19.3577 54.4227 21.7023V21.7024ZM52.8265 21.7024C52.8265 20.1706 52.0349 19.1635 50.8271 19.1635C49.6404 19.1635 48.8424 20.1917 48.8424 21.7023C48.8424 23.2268 49.6404 24.2478 50.8271 24.2478C52.0349 24.2478 52.8265 23.248 52.8265 21.7023V21.7024ZM59.9265 22.5935C60.0415 23.6226 61.0412 24.2983 62.4073 24.2983C63.7163 24.2983 64.6581 23.6226 64.6581 22.6947C64.6581 21.8892 64.0901 21.4069 62.7453 21.0764L61.4002 20.7524C59.4947 20.2921 58.6101 19.4009 58.6101 17.9548C58.6101 16.1643 60.1705 14.9345 62.3861 14.9345C64.5789 14.9345 66.0822 16.1643 66.1327 17.9548H64.565C64.4712 16.9193 63.6151 16.2941 62.364 16.2941C61.113 16.2941 60.257 16.9266 60.257 17.8471C60.257 18.5808 60.8037 19.0125 62.1412 19.343L63.2846 19.6237C65.4137 20.1272 66.2984 20.9825 66.2984 22.5004C66.2984 24.4419 64.7519 25.6579 62.2922 25.6579C59.9908 25.6579 58.437 24.4704 58.3367 22.5935L59.9265 22.5935ZM69.6501 16.1285V17.919H71.0888V19.1488H69.6501V23.3198C69.6501 23.9678 69.9381 24.2697 70.5706 24.2697C70.7414 24.2668 70.9119 24.2548 71.0815 24.2338V25.4564C70.7971 25.5095 70.5081 25.5335 70.2189 25.5281C68.6871 25.5281 68.0897 24.9528 68.0897 23.4855V19.1488H66.9896V17.919H68.0897V16.1285H69.6501ZM71.9221 21.7024C71.9221 19.3218 73.3241 17.826 75.5105 17.826C77.7041 17.826 79.0996 19.3218 79.0996 21.7024C79.0996 24.0894 77.7114 25.5787 75.5104 25.5787C73.3102 25.5787 71.9221 24.0894 71.9221 21.7024ZM77.5172 21.7024C77.5172 20.0694 76.7688 19.1055 75.5104 19.1055C74.252 19.1055 73.5044 20.0767 73.5044 21.7024C73.5044 23.3419 74.252 24.2983 75.5104 24.2983C76.7688 24.2983 77.5172 23.3419 77.5172 21.7024ZM80.3799 17.919H81.8611V19.2067H81.8971C81.9973 18.8045 82.2329 18.4491 82.5643 18.2002C82.8958 17.9512 83.3028 17.824 83.717 17.8398C83.896 17.8392 84.0744 17.8586 84.2491 17.8977V19.3504C84.0231 19.2814 83.7874 19.2497 83.5513 19.2565C83.3257 19.2474 83.1007 19.2872 82.892 19.3731C82.6832 19.4591 82.4955 19.5893 82.3417 19.7546C82.188 19.92 82.0718 20.1167 82.0013 20.3312C81.9307 20.5457 81.9074 20.7729 81.933 20.9972V25.4849H80.3799V17.919ZM91.4093 23.2627C91.2004 24.6362 89.8628 25.5787 88.1516 25.5787C85.9506 25.5787 84.5844 24.1041 84.5844 21.7382C84.5844 19.3651 85.9579 17.826 88.0862 17.826C90.1796 17.826 91.4958 19.2639 91.4958 21.5579V22.09H86.1521V22.1838C86.1275 22.4623 86.1623 22.7428 86.2544 23.0067C86.3465 23.2706 86.4936 23.512 86.6861 23.7147C86.8786 23.9174 87.112 24.0768 87.3709 24.1823C87.6297 24.2879 87.9081 24.3372 88.1874 24.3269C88.5544 24.3613 88.9227 24.2763 89.2375 24.0846C89.5524 23.8928 89.7969 23.6045 89.9347 23.2627H91.4093ZM86.1595 21.0046H89.942C89.9559 20.7542 89.918 20.5037 89.8305 20.2687C89.743 20.0337 89.6079 19.8193 89.4337 19.639C89.2594 19.4587 89.0498 19.3163 88.8179 19.2209C88.586 19.1254 88.3369 19.0789 88.0862 19.0843C87.8333 19.0828 87.5826 19.1314 87.3486 19.2273C87.1146 19.3232 86.9019 19.4645 86.7227 19.643C86.5436 19.8215 86.4016 20.0338 86.3049 20.2675C86.2083 20.5012 86.1588 20.7517 86.1595 21.0046ZM31.6103 7.29643C31.9359 7.27306 32.2627 7.32225 32.5669 7.44044C32.8712 7.55863 33.1455 7.74289 33.3699 7.97991C33.5944 8.21693 33.7634 8.50082 33.8649 8.81109C33.9663 9.12135 33.9976 9.45027 33.9566 9.77411C33.9566 11.3671 33.0956 12.2828 31.6103 12.2828H29.8092V7.29635L31.6103 7.29643ZM30.5837 11.5776H31.5239C31.7565 11.5915 31.9893 11.5533 32.2054 11.4659C32.4214 11.3785 32.6152 11.244 32.7728 11.0722C32.9303 10.9004 33.0475 10.6956 33.1159 10.4728C33.1843 10.25 33.2022 10.0148 33.1682 9.78422C33.1997 9.55455 33.18 9.32076 33.1106 9.09959C33.0411 8.87843 32.9236 8.67536 32.7665 8.50494C32.6093 8.33452 32.4164 8.20097 32.2016 8.11386C31.9867 8.02675 31.7553 7.98823 31.5239 8.00107H30.5837V11.5776ZM34.8314 10.3996C34.8078 10.1523 34.8361 9.90281 34.9145 9.66709C34.9929 9.43138 35.1197 9.21465 35.2868 9.03081C35.4539 8.84698 35.6575 8.70009 35.8847 8.59958C36.1119 8.49907 36.3576 8.44715 36.606 8.44715C36.8544 8.44715 37.1001 8.49907 37.3273 8.59958C37.5544 8.70009 37.7581 8.84698 37.9252 9.03081C38.0923 9.21465 38.2191 9.43138 38.2975 9.66709C38.3759 9.90281 38.4042 10.1523 38.3805 10.3996C38.4047 10.6472 38.3768 10.8971 38.2986 11.1332C38.2204 11.3694 38.0937 11.5866 37.9266 11.7708C37.7595 11.9551 37.5556 12.1023 37.3282 12.2031C37.1007 12.3038 36.8547 12.3559 36.606 12.3559C36.3572 12.3559 36.1112 12.3038 35.8838 12.2031C35.6563 12.1023 35.4525 11.9551 35.2854 11.7708C35.1182 11.5866 34.9915 11.3694 34.9133 11.1332C34.8352 10.8971 34.8073 10.6472 34.8314 10.3996ZM37.6167 10.3996C37.6167 9.58391 37.2503 9.10691 36.6072 9.10691C35.9617 9.10691 35.5986 9.58391 35.5986 10.3996C35.5986 11.2218 35.9618 11.6951 36.6072 11.6951C37.2503 11.6951 37.6167 11.2186 37.6167 10.3996ZM43.0984 12.2827H42.3279L41.5502 9.51129H41.4915L40.7171 12.2827H39.954L38.9168 8.51968H39.67L40.3441 11.391H40.3996L41.1733 8.51968H41.8857L42.6593 11.391H42.7181L43.3889 8.51968H44.1315L43.0984 12.2827ZM45.0039 8.51977H45.7188V9.11752H45.7743C45.8684 8.90281 46.0272 8.72281 46.2285 8.60263C46.4298 8.48245 46.6636 8.42806 46.8973 8.44706C47.0804 8.4333 47.2642 8.46091 47.4352 8.52785C47.6062 8.59478 47.7599 8.69933 47.885 8.83374C48.01 8.96815 48.1033 9.12898 48.1578 9.30432C48.2123 9.47966 48.2266 9.66501 48.1997 9.84664V12.2826H47.4571V10.0332C47.4571 9.42848 47.1943 9.12772 46.6451 9.12772C46.5208 9.12194 46.3967 9.1431 46.2813 9.18976C46.1659 9.23642 46.062 9.30747 45.9767 9.39804C45.8913 9.48861 45.8266 9.59656 45.7869 9.71449C45.7471 9.83243 45.7334 9.95756 45.7465 10.0813V12.2827H45.0039V8.51977ZM49.383 7.05074H50.1256V12.2827H49.383V7.05074ZM51.158 10.3996C51.1343 10.1523 51.1626 9.90275 51.2411 9.66699C51.3195 9.43124 51.4463 9.21449 51.6134 9.03063C51.7805 8.84677 51.9842 8.69987 52.2114 8.59934C52.4386 8.49881 52.6844 8.44689 52.9328 8.44689C53.1813 8.44689 53.427 8.49881 53.6542 8.59934C53.8814 8.69987 54.0851 8.84677 54.2522 9.03063C54.4193 9.21449 54.5461 9.43124 54.6246 9.66699C54.703 9.90275 54.7313 10.1523 54.7076 10.3996C54.7317 10.6471 54.7037 10.897 54.6254 11.1331C54.5472 11.3691 54.4204 11.5862 54.2532 11.7704C54.0861 11.9546 53.8823 12.1017 53.6549 12.2025C53.4275 12.3032 53.1815 12.3552 52.9328 12.3552C52.6841 12.3552 52.4381 12.3032 52.2107 12.2025C51.9833 12.1017 51.7795 11.9546 51.6124 11.7704C51.4452 11.5862 51.3185 11.3691 51.2402 11.1331C51.162 10.897 51.134 10.6471 51.158 10.3996ZM53.9433 10.3996C53.9433 9.58391 53.5769 9.10691 52.9338 9.10691C52.2883 9.10691 51.9252 9.58391 51.9252 10.3996C51.9252 11.2218 52.2883 11.6951 52.9338 11.6951C53.5769 11.6951 53.9433 11.2186 53.9433 10.3996ZM55.4894 11.2186C55.4894 10.5412 55.9937 10.1507 56.889 10.0952L57.9082 10.0364V9.7116C57.9082 9.31416 57.6455 9.08978 57.1379 9.08978C56.7233 9.08978 56.436 9.24195 56.3536 9.50803H55.6346C55.7105 8.86164 56.3185 8.44715 57.1722 8.44715C58.1156 8.44715 58.6476 8.91679 58.6476 9.7116V12.2827H57.9327V11.7539H57.874C57.7547 11.9436 57.5872 12.0982 57.3887 12.202C57.1901 12.3058 56.9675 12.3551 56.7437 12.3447C56.5858 12.3611 56.4261 12.3443 56.275 12.2952C56.124 12.2462 55.9849 12.166 55.8667 12.0599C55.7485 11.9538 55.6539 11.8241 55.5889 11.6792C55.5239 11.5343 55.49 11.3774 55.4894 11.2186ZM57.9082 10.897V10.5824L56.9893 10.6411C56.4711 10.6758 56.2361 10.8521 56.2361 11.1838C56.2361 11.5225 56.5299 11.7196 56.9338 11.7196C57.0522 11.7316 57.1718 11.7197 57.2854 11.6845C57.3991 11.6493 57.5045 11.5916 57.5954 11.5149C57.6863 11.4381 57.7609 11.3439 57.8146 11.2377C57.8684 11.1316 57.9002 11.0157 57.9082 10.897ZM59.6237 10.3996C59.6237 9.21053 60.2349 8.45734 61.1856 8.45734C61.4208 8.4465 61.6542 8.50282 61.8586 8.61973C62.0629 8.73664 62.2298 8.90929 62.3396 9.11752H62.3951V7.05066H63.1377V12.2826H62.4261V11.688H62.3674C62.249 11.8949 62.0764 12.0654 61.8681 12.1811C61.6598 12.2969 61.4238 12.3534 61.1857 12.3446C60.2284 12.3446 59.6237 11.5914 59.6237 10.3995V10.3996ZM60.3908 10.3996C60.3908 11.1977 60.7671 11.678 61.3961 11.678C62.0221 11.678 62.409 11.1908 62.409 10.4028C62.409 9.61859 62.0181 9.12446 61.3961 9.12446C60.7711 9.12446 60.3908 9.60798 60.3908 10.3996ZM66.2103 10.3996C66.1866 10.1523 66.2149 9.90281 66.2933 9.66709C66.3717 9.43138 66.4985 9.21465 66.6656 9.03081C66.8327 8.84698 67.0364 8.70009 67.2635 8.59958C67.4907 8.49907 67.7364 8.44715 67.9848 8.44715C68.2332 8.44715 68.4789 8.49907 68.7061 8.59958C68.9333 8.70009 69.1369 8.84698 69.304 9.03081C69.4711 9.21465 69.5979 9.43138 69.6763 9.66709C69.7548 9.90281 69.783 10.1523 69.7594 10.3996C69.7835 10.6472 69.7556 10.8971 69.6775 11.1332C69.5993 11.3694 69.4726 11.5866 69.3054 11.7708C69.1383 11.9551 68.9345 12.1023 68.707 12.2031C68.4796 12.3038 68.2336 12.3559 67.9848 12.3559C67.7361 12.3559 67.4901 12.3038 67.2626 12.2031C67.0352 12.1023 66.8314 11.9551 66.6642 11.7708C66.4971 11.5866 66.3704 11.3694 66.2922 11.1332C66.214 10.8971 66.1861 10.6472 66.2103 10.3996ZM68.9956 10.3996C68.9956 9.58391 68.6291 9.10691 67.9861 9.10691C67.3405 9.10691 66.9774 9.58391 66.9774 10.3996C66.9774 11.2218 67.3406 11.6951 67.9861 11.6951C68.6291 11.6951 68.9956 11.2186 68.9956 10.3996ZM70.7558 8.51977H71.4707V9.11752H71.5262C71.6204 8.90281 71.7792 8.72281 71.9804 8.60263C72.1817 8.48245 72.4155 8.42806 72.6492 8.44706C72.8323 8.4333 73.0161 8.46091 73.1871 8.52785C73.3581 8.59478 73.5118 8.69933 73.6369 8.83374C73.762 8.96815 73.8552 9.12898 73.9097 9.30432C73.9642 9.47966 73.9785 9.66501 73.9517 9.84664V12.2826H73.209V10.0332C73.209 9.42848 72.9462 9.12772 72.397 9.12772C72.2727 9.12194 72.1486 9.1431 72.0332 9.18976C71.9179 9.23642 71.8139 9.30747 71.7286 9.39804C71.6433 9.48861 71.5785 9.59656 71.5388 9.71449C71.4991 9.83243 71.4853 9.95756 71.4985 10.0813V12.2827H70.7559L70.7558 8.51977ZM78.148 7.5829V8.5369H78.9633V9.1624H78.148V11.0973C78.148 11.4915 78.3104 11.6641 78.6801 11.6641C78.7747 11.6638 78.8692 11.6581 78.9632 11.6469V12.2656C78.8298 12.2894 78.6947 12.3021 78.5592 12.3035C77.7334 12.3035 77.4045 12.013 77.4045 11.2875V9.1624H76.8072V8.53682H77.4045V7.58298L78.148 7.5829ZM79.9776 7.05074H80.7138V9.12446H80.7725C80.8712 8.90774 81.0343 8.72673 81.2397 8.6061C81.445 8.48546 81.6825 8.43107 81.9199 8.45032C82.102 8.44041 82.2841 8.47082 82.4532 8.53938C82.6222 8.60795 82.774 8.71297 82.8978 8.84697C83.0216 8.98097 83.1143 9.14064 83.1693 9.31458C83.2242 9.48852 83.2401 9.67245 83.2158 9.85325V12.2827H82.4724V10.0364C82.4724 9.43533 82.1925 9.13098 81.6678 9.13098C81.5401 9.12052 81.4117 9.13807 81.2916 9.18241C81.1714 9.22674 81.0624 9.2968 80.9722 9.38766C80.8819 9.47853 80.8126 9.58802 80.7691 9.70847C80.7256 9.82891 80.7089 9.95741 80.7203 10.085V12.2827H79.9776V7.05074ZM87.546 11.2666C87.4451 11.6105 87.2265 11.908 86.9285 12.1071C86.6304 12.3061 86.2718 12.394 85.9155 12.3553C85.6676 12.3619 85.4212 12.3144 85.1935 12.2162C84.9657 12.118 84.7621 11.9714 84.5967 11.7866C84.4313 11.6018 84.3081 11.3832 84.2357 11.146C84.1633 10.9088 84.1433 10.6587 84.1772 10.4131C84.1442 10.1666 84.1645 9.91597 84.2367 9.67807C84.309 9.44017 84.4316 9.22057 84.5961 9.03415C84.7606 8.84772 84.9632 8.69883 85.1903 8.59754C85.4174 8.49625 85.6636 8.44493 85.9122 8.44706C86.9592 8.44706 87.5909 9.1624 87.5909 10.344V10.6032H84.9337V10.6448C84.9221 10.7829 84.9395 10.9219 84.9847 11.0529C85.0299 11.1839 85.102 11.304 85.1964 11.4054C85.2907 11.5069 85.4052 11.5876 85.5326 11.6423C85.6599 11.6969 85.7973 11.7243 85.9359 11.7228C86.1135 11.7441 86.2935 11.7122 86.4529 11.6309C86.6123 11.5497 86.744 11.4229 86.8311 11.2666H87.546ZM84.9337 10.054H86.8344C86.8437 9.92768 86.8266 9.80083 86.784 9.68157C86.7414 9.5623 86.6743 9.45327 86.5871 9.36146C86.4999 9.26966 86.3944 9.19712 86.2775 9.1485C86.1605 9.09988 86.0347 9.07627 85.9081 9.07917C85.7797 9.07755 85.6522 9.10166 85.5332 9.15008C85.4143 9.1985 85.3062 9.27025 85.2154 9.3611C85.1245 9.45195 85.0528 9.56006 85.0045 9.67906C84.9561 9.79806 84.9321 9.92553 84.9337 10.054Z" fill="white"/>
</svg>
