<svg width="40" height="40" viewBox="0 0 40 40" fill="none" xmlns="http://www.w3.org/2000/svg">
<circle cx="20" cy="20" r="20" fill="black" fill-opacity="0.7"/>
<path fill-rule="evenodd" clip-rule="evenodd" d="M6.3999 8L30.3999 8L30.3999 32L6.3999 32L6.3999 8Z" fill="#FF0000" fill-opacity="0.01"/>
<path d="M16.4972 20L22.8486 13.346C23.3173 12.8551 23.3173 12.0591 22.8486 11.5682C22.38 11.0772 21.6202 11.0772 21.1516 11.5682L13.9516 19.111C13.4829 19.602 13.4829 20.3979 13.9516 20.8889L21.1516 28.4317C21.6202 28.9227 22.38 28.9227 22.8486 28.4317C23.3173 27.9408 23.3173 27.1448 22.8486 26.6539L16.4972 20Z" fill="#4A4A4A"/>
<mask id="mask0" mask-type="alpha" maskUnits="userSpaceOnUse" x="13" y="11" width="11" height="18">
<path d="M16.4972 20L22.8486 13.346C23.3173 12.8551 23.3173 12.0591 22.8486 11.5682C22.38 11.0772 21.6202 11.0772 21.1516 11.5682L13.9516 19.111C13.4829 19.602 13.4829 20.3979 13.9516 20.8889L21.1516 28.4317C21.6202 28.9227 22.38 28.9227 22.8486 28.4317C23.3173 27.9408 23.3173 27.1448 22.8486 26.6539L16.4972 20Z" fill="white"/>
</mask>
<g mask="url(#mask0)">
<path fill-rule="evenodd" clip-rule="evenodd" d="M6.3999 8L30.3999 8L30.3999 32L6.3999 32L6.3999 8Z" fill="white"/>
</g>
</svg>
