<svg width="40" height="40" viewBox="0 0 40 40" fill="none" xmlns="http://www.w3.org/2000/svg">
<circle cx="20" cy="20" r="20" fill="#4A4A4A"/>
<path fill-rule="evenodd" clip-rule="evenodd" d="M6.3999 8H30.3999V32H6.3999V8Z" fill="#FF0000" fill-opacity="0.01"/>
<path d="M16.4972 20.0002L22.8486 13.3463C23.3173 12.8553 23.3173 12.0593 22.8486 11.5684C22.38 11.0775 21.6202 11.0775 21.1516 11.5684L13.9516 19.1113C13.4829 19.6022 13.4829 20.3982 13.9516 20.8891L21.1516 28.432C21.6202 28.9229 22.38 28.9229 22.8486 28.432C23.3173 27.941 23.3173 27.1451 22.8486 26.6541L16.4972 20.0002Z" fill="#4A4A4A"/>
<mask id="mask0" mask-type="alpha" maskUnits="userSpaceOnUse" x="13" y="11" width="11" height="18">
<path d="M16.4972 20.0002L22.8486 13.3463C23.3173 12.8553 23.3173 12.0593 22.8486 11.5684C22.38 11.0775 21.6202 11.0775 21.1516 11.5684L13.9516 19.1113C13.4829 19.6022 13.4829 20.3982 13.9516 20.8891L21.1516 28.432C21.6202 28.9229 22.38 28.9229 22.8486 28.432C23.3173 27.941 23.3173 27.1451 22.8486 26.6541L16.4972 20.0002Z" fill="white"/>
</mask>
<g mask="url(#mask0)">
<path fill-rule="evenodd" clip-rule="evenodd" d="M6.3999 8H30.3999V32H6.3999V8Z" fill="white"/>
</g>
</svg>
