<svg width="50" height="50" viewBox="0 0 50 50" fill="none" xmlns="http://www.w3.org/2000/svg">
<circle cx="25" cy="25" r="25" fill="black" fill-opacity="0.7"/>
<path fill-rule="evenodd" clip-rule="evenodd" d="M8 10H38V40H8V10Z" fill="#FF0000" fill-opacity="0.01"/>
<path d="M20.6213 25L28.5607 16.6826C29.1464 16.0689 29.1464 15.0739 28.5607 14.4603C27.9749 13.8466 27.0251 13.8466 26.4393 14.4603L17.4393 23.8888C16.8536 24.5025 16.8536 25.4975 17.4393 26.1112L26.4393 35.5397C27.0251 36.1534 27.9749 36.1534 28.5607 35.5397C29.1464 34.9261 29.1464 33.9311 28.5607 33.3174L20.6213 25Z" fill="#4A4A4A"/>
<mask id="mask0" mask-type="alpha" maskUnits="userSpaceOnUse" x="17" y="14" width="12" height="22">
<path d="M20.6213 25L28.5607 16.6826C29.1464 16.0689 29.1464 15.0739 28.5607 14.4603C27.9749 13.8466 27.0251 13.8466 26.4393 14.4603L17.4393 23.8888C16.8536 24.5025 16.8536 25.4975 17.4393 26.1112L26.4393 35.5397C27.0251 36.1534 27.9749 36.1534 28.5607 35.5397C29.1464 34.9261 29.1464 33.9311 28.5607 33.3174L20.6213 25Z" fill="white"/>
</mask>
<g mask="url(#mask0)">
<path fill-rule="evenodd" clip-rule="evenodd" d="M8 10H38V40H8V10Z" fill="white"/>
</g>
</svg>
