<svg width="30" height="30" viewBox="0 0 30 30" fill="none" xmlns="http://www.w3.org/2000/svg">
<circle cx="15" cy="15" r="15" fill="white"/>
<path d="M15 0C6.71625 0 0 6.71625 0 15C0 23.2837 6.71625 30 15 30C23.2837 30 30 23.2837 30 15C30 6.71625 23.2837 0 15 0ZM16.25 22.3213V25H13.75V22.3288C11.0875 21.9738 9.41125 20.425 9.3175 18.13H12.1687C12.305 19.2725 13.4575 20.005 15.1175 20.005C16.6512 20.005 17.735 19.2625 17.735 18.1987C17.735 17.3 17.0325 16.7825 15.3037 16.4112L13.4675 16.0213C10.8988 15.4838 9.64 14.1462 9.64 11.9975C9.64 9.71 11.2325 8.1025 13.75 7.69875V5H16.25V7.695C18.695 8.09125 20.345 9.675 20.4212 11.8412H17.6475C17.5112 10.7275 16.475 9.98625 15.05 9.98625C13.575 9.98625 12.5988 10.67 12.5988 11.7438C12.5988 12.6125 13.2725 13.1113 14.9225 13.4625L16.6213 13.8237C19.4538 14.42 20.6737 15.64 20.6737 17.8275C20.675 20.305 19.0175 21.9425 16.25 22.3213Z" fill="#00AFDC"/>
</svg>
