<svg width="185" height="48" viewBox="0 0 185 48" fill="none" xmlns="http://www.w3.org/2000/svg">
<path d="M21.6041 4.4043C9.68575 4.4043 0.000108028 14.043 0.000108028 25.9036C-0.00191632 26.046 0.0245284 26.1874 0.0779052 26.3196C0.131282 26.4518 0.210526 26.5721 0.311033 26.6736C0.41154 26.775 0.531305 26.8556 0.663367 26.9105C0.795429 26.9655 0.937156 26.9938 1.08031 26.9938C1.22346 26.9938 1.36519 26.9655 1.49725 26.9105C1.62931 26.8556 1.74908 26.775 1.84959 26.6736C1.95009 26.5721 2.02934 26.4518 2.08271 26.3196C2.13609 26.1874 2.16254 26.046 2.16051 25.9036C2.16051 15.205 10.8534 6.55422 21.6041 6.55422C28.3502 6.55422 34.2728 9.97256 37.7607 15.1539H31.326C31.1828 15.1519 31.0407 15.1782 30.9079 15.2313C30.775 15.2845 30.6541 15.3633 30.5522 15.4633C30.4503 15.5634 30.3693 15.6825 30.3141 15.814C30.2588 15.9454 30.2304 16.0864 30.2304 16.2289C30.2304 16.3713 30.2588 16.5124 30.3141 16.6438C30.3693 16.7752 30.4503 16.8944 30.5522 16.9944C30.6541 17.0945 30.775 17.1733 30.9079 17.2264C31.0407 17.2796 31.1828 17.3059 31.326 17.3039H39.7102H41.0478V7.62919C41.0497 7.48537 41.0227 7.34262 40.9682 7.20938C40.9138 7.07615 40.833 6.95515 40.7307 6.85354C40.6284 6.75194 40.5067 6.67179 40.3727 6.61785C40.2387 6.56391 40.0952 6.53728 39.9507 6.53953C39.6646 6.54398 39.3919 6.66121 39.1926 6.8655C38.9932 7.06979 38.8834 7.34445 38.8874 7.62919V13.0145C34.9437 7.78876 28.6673 4.4043 21.6041 4.4043ZM20.5239 14.079V16.3213C18.6767 16.6143 17.4732 17.6254 16.8867 18.6434C16.192 19.849 16.2031 21.0536 16.2031 21.0536C16.2031 22.7094 17.0753 23.9942 18.1737 24.7761C19.272 25.558 20.564 25.9912 21.7708 26.4326C22.9776 26.8741 24.0933 27.3216 24.8152 27.8897C25.5371 28.4578 25.9249 29.032 25.9249 30.2034C25.9249 30.2034 25.9179 30.9825 25.4144 31.7844C24.9108 32.5862 24.0166 33.4283 21.6041 33.4283C19.2637 33.4283 18.3908 32.4224 17.8445 31.3351C17.2982 30.2477 17.2833 29.1284 17.2833 29.1284H15.1229C15.1229 29.1284 15.108 30.6966 15.912 32.2966C16.6164 33.6987 18.1069 35.1615 20.5239 35.5026V37.7281H22.6843V35.5173C25.0347 35.2453 26.5065 34.0993 27.2457 32.9223C28.0923 31.5742 28.0853 30.2034 28.0853 30.2034C28.0853 28.4412 27.258 27.0702 26.157 26.2038C25.0561 25.3374 23.7413 24.8626 22.5177 24.415C21.294 23.9673 20.1556 23.5429 19.4311 23.0272C18.7066 22.5114 18.3635 22.0578 18.3635 21.0536C18.3635 21.0536 18.3746 20.3832 18.7602 19.7141C19.1457 19.045 19.7577 18.3788 21.6041 18.3788C23.4045 18.3788 24.0073 19.116 24.4186 19.9346C24.8298 20.7531 24.8447 21.6037 24.8447 21.6037H27.0051C27.0051 21.6037 27.02 20.3043 26.3511 18.973C25.7843 17.8449 24.5723 16.6678 22.6843 16.3318V14.079H20.5239ZM42.1111 24.8139C41.825 24.8183 41.5523 24.9356 41.353 25.1399C41.1536 25.3442 41.0438 25.6188 41.0478 25.9036C41.0478 36.6021 32.3549 45.2529 21.6041 45.2529C14.8575 45.2529 8.93455 41.8343 5.44753 36.6532L11.8823 36.6553C12.0255 36.6573 12.1676 36.631 12.3004 36.5779C12.4332 36.5247 12.5541 36.4459 12.6561 36.3459C12.758 36.2458 12.839 36.1267 12.8942 35.9952C12.9495 35.8638 12.9779 35.7228 12.9779 35.5803C12.9779 35.4379 12.9495 35.2968 12.8942 35.1654C12.839 35.034 12.758 34.9148 12.6561 34.8148C12.5541 34.7148 12.4332 34.6359 12.3004 34.5828C12.1676 34.5297 12.0255 34.5033 11.8823 34.5054L3.72174 34.5033C3.58382 34.4762 3.44192 34.4762 3.30401 34.5033H2.16051V44.1779C2.15849 44.3204 2.18493 44.4618 2.23831 44.594C2.29168 44.7262 2.37093 44.8465 2.47144 44.9479C2.57194 45.0494 2.69171 45.1299 2.82377 45.1849C2.95583 45.2399 3.09756 45.2682 3.24071 45.2682C3.38387 45.2682 3.52559 45.2399 3.65766 45.1849C3.78972 45.1299 3.90948 45.0494 4.00999 44.9479C4.1105 44.8465 4.18974 44.7262 4.24312 44.594C4.29649 44.4618 4.32294 44.3204 4.32091 44.1779V38.7884C8.26331 44.0157 14.5391 47.4028 21.6041 47.4028C33.5225 47.4028 43.2082 37.7641 43.2082 25.9036C43.2101 25.7597 43.1831 25.617 43.1286 25.4838C43.0742 25.3505 42.9934 25.2295 42.8911 25.1279C42.7888 25.0263 42.6671 24.9462 42.5331 24.8922C42.3991 24.8383 42.2556 24.8117 42.1111 24.8139Z" fill="white"/>
<path fill-rule="evenodd" clip-rule="evenodd" d="M0.00010793 25.9034C0.000183215 14.0429 9.68578 4.4043 21.6041 4.4043C28.6457 4.4043 34.9053 7.76811 38.8511 12.9665V7.64652C38.8511 7.64646 38.8511 7.6464 38.8511 7.64634C38.8471 7.35662 38.9588 7.07716 39.1617 6.86929C39.3646 6.66138 39.642 6.54206 39.9332 6.53754C40.0803 6.53525 40.2264 6.56236 40.3627 6.61725C40.4991 6.67215 40.623 6.75371 40.7271 6.85712C40.8312 6.96053 40.9134 7.08368 40.9688 7.21927C41.0243 7.35487 41.0518 7.50015 41.0498 7.64652V17.332L31.3172 17.3319C31.3171 17.3319 31.3171 17.332 31.3171 17.332C31.1714 17.334 31.0268 17.3072 30.8917 17.2532C30.7565 17.1991 30.6334 17.1188 30.5297 17.017C30.4259 16.9152 30.3436 16.794 30.2873 16.6602C30.2311 16.5264 30.2021 16.3829 30.2021 16.2379C30.2021 16.0929 30.2311 15.9494 30.2873 15.8156C30.3436 15.6819 30.4259 15.5606 30.5297 15.4588C30.6334 15.357 30.7565 15.2767 30.8917 15.2227C31.0268 15.1686 31.1714 15.1419 31.317 15.1439H37.7078C34.224 9.99017 28.3233 6.59236 21.6041 6.59236C10.8746 6.59236 2.19891 15.226 2.19883 25.9034C2.20087 26.0483 2.17396 26.1922 2.11965 26.3267C2.06533 26.4612 1.98468 26.5837 1.88239 26.6869C1.7801 26.7902 1.65821 26.8722 1.52381 26.9281C1.3894 26.9841 1.24516 27.0129 1.09947 27.0129C0.953776 27.0129 0.809537 26.9841 0.675132 26.9281C0.540728 26.8722 0.418839 26.7902 0.316549 26.6869C0.21426 26.5837 0.13361 26.4612 0.0792869 26.3267C0.0249812 26.1922 -0.00193269 26.0483 0.00010793 25.9034ZM21.6041 4.44444C9.70801 4.44444 0.0404445 14.0651 0.0404445 25.9036V25.9038C0.0384599 26.0435 0.0643842 26.1821 0.116715 26.3117C0.169045 26.4413 0.246736 26.5593 0.345273 26.6587C0.443809 26.7582 0.561226 26.8372 0.6907 26.8911C0.820174 26.945 0.959122 26.9727 1.09947 26.9727C1.23982 26.9727 1.37876 26.945 1.50824 26.8911C1.63771 26.8372 1.75513 26.7582 1.85367 26.6587C1.9522 26.5593 2.02989 26.4413 2.08222 26.3117C2.13455 26.1821 2.16048 26.0435 2.1585 25.9038L2.15849 25.9036C2.15849 15.2039 10.8523 6.55222 21.6041 6.55222C28.351 6.55222 34.2742 9.97096 37.7624 15.1528L37.7834 15.184H31.3169L31.3166 15.184C31.1763 15.1821 31.0369 15.2079 30.9067 15.2599C30.7765 15.312 30.6579 15.3893 30.558 15.4874C30.4581 15.5854 30.3787 15.7023 30.3245 15.8311C30.2704 15.96 30.2425 16.0983 30.2425 16.2379C30.2425 16.3776 30.2704 16.5159 30.3245 16.6447C30.3787 16.7736 30.4581 16.8904 30.558 16.9885C30.6579 17.0865 30.7765 17.1638 30.9067 17.2159C31.0369 17.268 31.1763 17.2938 31.3166 17.2918L31.3169 17.2918L41.0094 17.2918V7.64625L41.0094 7.64597C41.0114 7.50497 40.9849 7.36502 40.9315 7.2344C40.8781 7.10378 40.7989 6.98515 40.6986 6.88553C40.5983 6.78592 40.479 6.70734 40.3476 6.65446C40.2162 6.60158 40.0756 6.57547 39.9339 6.57767C39.6534 6.58203 39.386 6.69697 39.1906 6.89726C38.9952 7.09754 38.8875 7.36681 38.8914 7.64597V7.64625V13.0867L38.8551 13.0386C34.9188 7.82255 28.6541 4.44444 21.6041 4.44444ZM20.5048 14.0699H22.7035V16.3239C24.5872 16.6648 25.7976 17.8418 26.3647 18.9705C26.7 19.6378 26.8639 20.297 26.9439 20.7892C26.9839 21.0353 27.003 21.2398 27.0121 21.3828C27.0167 21.4544 27.0187 21.5105 27.0196 21.5489C27.0201 21.568 27.0202 21.5828 27.0203 21.5927C27.0203 21.5977 27.0203 21.6015 27.0203 21.604L27.0203 21.6069L27.0203 21.6077L27.0203 21.6079V21.6079L27.02 21.6278H24.8219L24.8216 21.6081L24.8215 21.6079L24.8215 21.6058C24.8215 21.6042 24.8214 21.6018 24.8213 21.5986C24.8211 21.5923 24.8207 21.5829 24.8201 21.5706C24.8189 21.546 24.8168 21.5098 24.8129 21.4638C24.8051 21.3719 24.7905 21.2407 24.763 21.0841C24.7082 20.7706 24.6022 20.3557 24.3979 19.9491C24.1931 19.5415 23.9417 19.1565 23.5192 18.873C23.0967 18.5895 22.5007 18.4059 21.6041 18.4059C20.6841 18.4059 20.0739 18.5719 19.6463 18.8195C19.2189 19.0671 18.972 19.3973 18.7803 19.7299C18.5891 20.0617 18.4906 20.3941 18.44 20.6437C18.4147 20.7684 18.4014 20.8723 18.3944 20.945C18.3909 20.9813 18.389 21.0098 18.3879 21.0291C18.3874 21.0388 18.3871 21.0462 18.3869 21.0512C18.3868 21.0536 18.3868 21.0555 18.3868 21.0567L18.3867 21.0581L18.3867 21.0582C18.3867 21.0582 18.3867 21.0583 18.3867 21.0583C18.3867 21.5575 18.472 21.9178 18.6459 22.217C18.8199 22.5164 19.0838 22.7565 19.4448 23.0136C20.1659 23.5269 21.3003 23.95 22.5238 24.3975L22.5726 24.4154C23.7807 24.8573 25.0771 25.3314 26.1653 26.1878C27.2695 27.0567 28.0994 28.432 28.0995 30.1993C28.0995 30.1993 28.0995 30.1994 28.0995 30.1994L28.0995 30.1996V30.2004L28.0995 30.2035C28.0994 30.2052 28.0994 30.2076 28.0994 30.2105L28.0993 30.2154C28.0992 30.2259 28.0988 30.2414 28.0981 30.2616C28.0966 30.302 28.0936 30.361 28.0873 30.4361C28.0746 30.5862 28.049 30.8003 27.9968 31.0565C27.8925 31.5689 27.682 32.2504 27.2575 32.9264C26.5175 34.1046 25.0472 35.2501 22.7035 35.5262V37.7372H20.5048V35.5111C18.0927 35.1647 16.6039 33.702 15.8993 32.2997C15.4965 31.498 15.2989 30.7047 15.202 30.1118C15.1536 29.8153 15.1303 29.5689 15.1191 29.3965C15.1135 29.3103 15.1109 29.2426 15.1097 29.1964C15.1095 29.1851 15.1093 29.175 15.1091 29.1663C15.109 29.1573 15.1089 29.1497 15.1088 29.1436C15.1088 29.1376 15.1088 29.133 15.1088 29.13L15.1088 29.1265L15.1088 29.1256L15.1088 29.1253V29.1252L15.109 29.1054H17.3073L17.3075 29.1252L17.3075 29.1253L17.3075 29.1259L17.3076 29.1283C17.3076 29.1304 17.3077 29.1335 17.3078 29.1377C17.3081 29.146 17.3085 29.1585 17.3092 29.1747C17.3107 29.2072 17.3134 29.2549 17.3183 29.3155C17.3282 29.4368 17.347 29.6099 17.3829 29.8169C17.4546 30.231 17.5943 30.7802 17.8661 31.321C18.1382 31.8626 18.4907 32.382 19.0652 32.7663C19.6396 33.1506 20.438 33.4012 21.6041 33.4012C22.8069 33.4012 23.6294 33.1913 24.2132 32.8828C24.7967 32.5744 25.1435 32.1667 25.3937 31.7682C25.6437 31.3701 25.7705 30.9775 25.8348 30.6844C25.8669 30.5379 25.8834 30.4164 25.8919 30.3316C25.8961 30.2891 25.8983 30.2559 25.8995 30.2334C25.9001 30.2221 25.9004 30.2135 25.9005 30.2077C25.9006 30.206 25.9006 30.2046 25.9007 30.2034L25.9007 30.2013L25.9007 30.1994C25.9007 30.1994 25.9007 30.1993 25.9007 30.1993C25.9007 29.6165 25.8042 29.1839 25.6191 28.8268C25.4339 28.4697 25.1591 28.1865 24.7997 27.9036C24.0814 27.3384 22.9699 26.8922 21.7637 26.451C21.6603 26.4132 21.5563 26.3754 21.4518 26.3375C20.3384 25.9333 19.1708 25.5094 18.1651 24.7935C17.0635 24.0093 16.188 22.7201 16.188 21.0583M16.188 21.0582L16.188 21.0581L16.188 21.0574L16.188 21.0547C16.188 21.0523 16.188 21.0488 16.188 21.0441C16.1881 21.0349 16.1884 21.0213 16.1889 21.0035C16.19 20.968 16.1922 20.9159 16.1972 20.8498C16.207 20.7175 16.2274 20.5287 16.2695 20.3022C16.3538 19.8492 16.5252 19.2449 16.8736 18.6402C17.4608 17.621 18.6628 16.6103 20.5048 16.3131V14.0699M25.9209 30.1994C25.9411 30.1996 25.9411 30.1996 25.9411 30.1996V30.1998L25.941 30.202C25.941 30.2036 25.941 30.2059 25.9409 30.2089C25.9407 30.215 25.9404 30.2239 25.9398 30.2354C25.9386 30.2586 25.9363 30.2924 25.932 30.3355C25.9234 30.4217 25.9067 30.5448 25.8742 30.693C25.8092 30.9894 25.681 31.3865 25.4279 31.7895C25.1751 32.1921 24.8236 32.6056 24.2321 32.9182C23.6409 33.2306 22.8115 33.4413 21.6041 33.4413C20.4321 33.4413 19.6253 33.1894 19.0427 32.7996C18.4601 32.4099 18.1037 31.8837 17.83 31.339C17.556 30.7935 17.4153 30.2404 17.3432 29.8238C17.3071 29.6154 17.2881 29.4411 17.2781 29.3188C17.2731 29.2576 17.2704 29.2094 17.2689 29.1765C17.2684 29.1639 17.268 29.1535 17.2677 29.1455H15.1492C15.1493 29.1572 15.1495 29.1739 15.1501 29.1954C15.1512 29.2411 15.1538 29.3083 15.1593 29.3939C15.1704 29.5652 15.1936 29.8103 15.2418 30.1054C15.3383 30.6955 15.5349 31.4847 15.9353 32.2817C16.6366 33.6774 18.1205 35.1341 20.5278 35.4738L20.5451 35.4763V37.697H22.6632V35.4905L22.681 35.4884C25.0233 35.2174 26.4881 34.0757 27.2233 32.9051C27.6446 32.2343 27.8536 31.5576 27.9573 31.0485C28.0091 30.794 28.0346 30.5815 28.0471 30.4328C28.0533 30.3584 28.0563 30.2999 28.0578 30.2601C28.0585 30.2402 28.0588 30.225 28.059 30.2148C28.0591 30.2097 28.0591 30.2058 28.0591 30.2033L28.0591 30.2004V30.1995L28.0591 30.1994C28.0591 28.4456 27.2359 27.0814 26.1403 26.2193C25.0571 25.3669 23.766 24.8947 22.5562 24.4522L22.5099 24.4352C21.2883 23.9883 20.1479 23.5634 19.4214 23.0462C19.0586 22.788 18.7892 22.5438 18.6109 22.2371C18.4325 21.93 18.3464 21.5621 18.3464 21.0582V21.0578L18.3666 21.0582C18.3464 21.0578 18.3464 21.0578 18.3464 21.0578L18.3464 21.0578L18.3464 21.0577L18.3464 21.0572L18.3464 21.0557C18.3465 21.055 18.3465 21.054 18.3465 21.0528C18.3465 21.0519 18.3466 21.0509 18.3466 21.0498C18.3468 21.0446 18.3471 21.0369 18.3476 21.027C18.3487 21.0071 18.3507 20.9781 18.3542 20.9411C18.3613 20.8673 18.3749 20.762 18.4005 20.6357C18.4517 20.3833 18.5514 20.0465 18.7453 19.7099C18.9389 19.374 19.1902 19.0372 19.626 18.7848C20.0616 18.5326 20.6794 18.3658 21.6041 18.3658C22.5062 18.3658 23.1107 18.5505 23.5417 18.8397C23.9727 19.1288 24.2279 19.521 24.434 19.9312C24.6406 20.3424 24.7475 20.7613 24.8028 21.0772C24.8304 21.2352 24.8452 21.3675 24.8531 21.4605C24.857 21.507 24.8592 21.5436 24.8604 21.5686C24.8608 21.576 24.861 21.5823 24.8613 21.5876H26.9799C26.9798 21.5782 26.9796 21.5656 26.9793 21.5498C26.9784 21.512 26.9764 21.4563 26.9719 21.3854C26.9628 21.2434 26.9439 21.0403 26.9041 20.7956C26.8245 20.3062 26.6616 19.6512 26.3286 18.9884C25.7649 17.8664 24.559 16.6949 22.6798 16.3605L22.6632 16.3575V14.1101H20.5451V16.3473L20.5281 16.35C18.6887 16.6418 17.4916 17.6484 16.9086 18.6601C16.563 19.2599 16.3929 19.8596 16.3092 20.3095C16.2674 20.5344 16.2472 20.7217 16.2374 20.8528C16.2325 20.9183 16.2303 20.9697 16.2292 21.0047C16.2287 21.0222 16.2285 21.0356 16.2284 21.0445C16.2284 21.0476 16.2283 21.0502 16.2283 21.0523L16.2283 21.0547L16.2283 21.0572L16.2283 21.0578V21.0579L16.2283 21.0582C16.2283 22.7048 17.0955 23.9827 18.1886 24.7608C19.1895 25.4734 20.352 25.8954 21.4663 26.3C21.5705 26.3378 21.6744 26.3755 21.7776 26.4133C22.9828 26.8542 24.1006 27.3023 24.8247 27.8721C25.1865 28.1568 25.4661 28.4442 25.6549 28.8084C25.8438 29.1726 25.9411 29.612 25.9411 30.1994L25.9411 30.1996L25.9209 30.1994ZM42.0916 24.7948C42.2387 24.7926 42.3847 24.8197 42.5211 24.8746C42.6575 24.9295 42.7814 25.011 42.8855 25.1144C42.9896 25.2178 43.0718 25.341 43.1272 25.4766C43.1827 25.6122 43.2102 25.7575 43.2082 25.9038C43.208 37.7643 33.5224 47.4028 21.6041 47.4028C14.5608 47.4028 8.30173 44.0364 4.35722 38.8364V44.1607C4.35926 44.3056 4.33235 44.4495 4.27804 44.584C4.22371 44.7185 4.14306 44.841 4.04078 44.9442C3.93849 45.0475 3.8166 45.1295 3.68219 45.1854C3.54779 45.2414 3.40355 45.2702 3.25786 45.2702C3.11216 45.2702 2.96792 45.2414 2.83352 45.1854C2.69911 45.1295 2.57722 45.0475 2.47494 44.9442C2.37265 44.841 2.292 44.7185 2.23767 44.584C2.18337 44.4495 2.15645 44.3056 2.15849 44.1607V34.4752H3.31914C3.45824 34.4481 3.60128 34.4481 3.74039 34.4752L11.8911 34.4773C11.8912 34.4773 11.8912 34.4773 11.8913 34.4773C12.0369 34.4752 12.1815 34.502 12.3166 34.5561C12.4518 34.6101 12.5748 34.6904 12.6786 34.7922C12.7823 34.894 12.8647 35.0153 12.9209 35.149C12.9772 35.2828 13.0061 35.4263 13.0061 35.5713C13.0061 35.7163 12.9772 35.8598 12.9209 35.9936C12.8647 36.1273 12.7823 36.2486 12.6786 36.3504C12.5748 36.4522 12.4518 36.5325 12.3166 36.5865C12.1815 36.6406 12.0369 36.6673 11.8913 36.6653C11.8912 36.6653 11.8912 36.6653 11.8911 36.6653L5.50045 36.6632C8.9834 41.8167 14.8844 45.2148 21.6041 45.2148C32.3336 45.2148 41.0094 36.5811 41.0094 25.9036C41.0055 25.6139 41.1172 25.3345 41.3201 25.1266C41.5229 24.9187 41.8004 24.7994 42.0916 24.7948ZM42.506 24.9118C42.3746 24.8589 42.2339 24.8328 42.0923 24.835C41.8117 24.8393 41.5444 24.9543 41.349 25.1546C41.1535 25.3549 41.0459 25.6241 41.0498 25.9033L41.0498 25.9036C41.0498 36.6032 32.356 45.2549 21.6041 45.2549C14.8567 45.2549 8.93319 41.8359 5.44586 36.6543L5.42482 36.6231L11.8914 36.6252L11.8917 36.6252C12.032 36.6272 12.1713 36.6014 12.3016 36.5493C12.4318 36.4972 12.5503 36.4199 12.6503 36.3218C12.7502 36.2238 12.8296 36.1069 12.8837 35.9781C12.9379 35.8492 12.9658 35.711 12.9658 35.5713C12.9658 35.4316 12.9379 35.2933 12.8837 35.1645C12.8296 35.0357 12.7502 34.9188 12.6503 34.8207C12.5503 34.7227 12.4318 34.6454 12.3016 34.5933C12.1713 34.5412 12.032 34.5154 11.8917 34.5174L11.8914 34.5174L3.73646 34.5153L3.73453 34.5149C3.59932 34.4884 3.4602 34.4884 3.32499 34.5149L3.32306 34.5153H2.19883V44.1609L2.19883 44.1611C2.19684 44.3008 2.22277 44.4395 2.2751 44.569C2.32743 44.6986 2.40512 44.8166 2.50366 44.9161C2.6022 45.0155 2.71961 45.0945 2.84909 45.1484C2.97856 45.2023 3.11751 45.2301 3.25786 45.2301C3.3982 45.2301 3.53715 45.2023 3.66663 45.1484C3.7961 45.0945 3.91351 45.0155 4.01205 44.9161C4.11059 44.8166 4.18828 44.6986 4.24061 44.569C4.29294 44.4395 4.31887 44.3008 4.31688 44.1611L4.31688 44.1609V38.7162L4.35318 38.7643C8.28826 43.982 14.5524 47.3627 21.6041 47.3627C33.5003 47.3627 43.1678 37.742 43.1678 25.9036V25.9033C43.1698 25.7623 43.1433 25.6223 43.0899 25.4917C43.0365 25.3611 42.9573 25.2425 42.857 25.1428C42.7567 25.0432 42.6373 24.9647 42.506 24.9118Z" fill="white"/>
<path d="M72.8371 29.1694C72.6123 32.2669 71.4619 34.7054 69.3858 36.4848C67.3229 38.2642 64.5988 39.154 61.2136 39.154C57.511 39.154 54.5952 37.915 52.4661 35.4369C50.3504 32.9457 49.2925 29.5319 49.2925 25.1953V23.4357C49.2925 20.6677 49.7818 18.2292 50.7603 16.1203C51.7388 14.0113 53.1339 12.3967 54.9456 11.2763C56.7704 10.1427 58.8862 9.57593 61.2929 9.57593C64.6253 9.57593 67.3097 10.4656 69.3461 12.2451C71.3825 14.0245 72.5594 16.5223 72.8768 19.7384H66.9262C66.7807 17.8799 66.2584 16.5355 65.3592 15.7051C64.4732 14.8615 63.1178 14.4397 61.2929 14.4397C59.3094 14.4397 57.8217 15.1515 56.8299 16.575C55.8514 17.9854 55.3489 20.18 55.3224 23.1589V25.3337C55.3224 28.4444 55.7919 30.7182 56.7308 32.1549C57.6829 33.5916 59.1771 34.31 61.2136 34.31C63.0517 34.31 64.4203 33.8948 65.3195 33.0644C66.2319 32.2208 66.7543 30.9225 66.8865 29.1694H72.8371Z" fill="white"/>
<path d="M80.7304 19.6989C82.2511 17.8799 84.162 16.9704 86.4629 16.9704C91.1176 16.9704 93.478 19.6659 93.5441 25.0569V38.7585H87.8117V25.2151C87.8117 23.9893 87.5472 23.0864 87.0183 22.5064C86.4893 21.9133 85.6099 21.6167 84.3801 21.6167C82.7007 21.6167 81.4842 22.2626 80.7304 23.5543V38.7585H74.998V8.38965H80.7304V19.6989Z" fill="white"/>
<path d="M102.687 38.7585H96.9348V17.3659H102.687V38.7585ZM96.5976 11.8299C96.5976 10.9731 96.8819 10.2679 97.4505 9.71433C98.0323 9.16073 98.8191 8.88393 99.8109 8.88393C100.789 8.88393 101.57 9.16073 102.151 9.71433C102.733 10.2679 103.024 10.9731 103.024 11.8299C103.024 12.6998 102.727 13.4116 102.132 13.9652C101.55 14.5188 100.776 14.7956 99.8109 14.7956C98.8456 14.7956 98.0654 14.5188 97.4703 13.9652C96.8885 13.4116 96.5976 12.6998 96.5976 11.8299Z" fill="white"/>
<path d="M125.516 28.2599C125.516 31.5552 124.763 34.1979 123.255 36.1883C121.761 38.1654 119.738 39.154 117.186 39.154C115.017 39.154 113.265 38.4026 111.929 36.9V46.9834H106.197V17.3659H111.513L111.711 19.4616C113.099 17.8008 114.911 16.9704 117.146 16.9704C119.791 16.9704 121.847 17.9458 123.315 19.8966C124.783 21.8474 125.516 24.5363 125.516 27.9633V28.2599ZM119.784 27.8447C119.784 25.8544 119.427 24.3188 118.713 23.238C118.012 22.1571 116.987 21.6167 115.638 21.6167C113.84 21.6167 112.604 22.3021 111.929 23.6729V32.4317C112.63 33.842 113.88 34.5472 115.678 34.5472C118.415 34.5472 119.784 32.3131 119.784 27.8447Z" fill="white"/>
<path d="M134.56 38.7585H128.61V9.97136H134.56V38.7585Z" fill="white"/>
<path d="M143.763 17.3659L143.941 19.8373C145.475 17.9261 147.531 16.9704 150.11 16.9704C152.384 16.9704 154.077 17.6361 155.188 18.9674C156.299 20.2986 156.867 22.2889 156.894 24.9383V38.7585H151.161V25.0767C151.161 23.8641 150.897 22.9875 150.368 22.4471C149.839 21.8935 148.959 21.6167 147.73 21.6167C146.116 21.6167 144.906 22.3021 144.1 23.6729V38.7585H138.367V17.3659H143.763Z" fill="white"/>
<path d="M163.978 24.1498C163.978 23.8647 164.04 23.6611 164.162 23.5389C164.284 23.4167 164.345 23.2538 164.345 23.0502C164.345 22.8058 164.304 22.5819 164.223 22.3782C164.141 22.1339 164.101 21.9099 164.101 21.7063V21.2176C164.101 21.1769 164.141 21.0954 164.223 20.9732C164.304 20.8103 164.345 20.7085 164.345 20.6678C164.304 20.5863 164.223 20.4845 164.101 20.3624C163.978 20.1995 163.877 20.118 163.795 20.118C163.795 19.9551 163.775 19.67 163.734 19.2628C163.734 18.8555 163.734 18.5908 163.734 18.4687C163.734 18.0207 163.734 17.5524 163.734 17.0637C163.734 16.575 163.815 16.1066 163.978 15.6587C164.06 15.3736 164.182 15.1292 164.345 14.9256C164.508 14.722 164.589 14.4573 164.589 14.1315C164.589 13.8871 164.427 13.765 164.101 13.765L163.856 13.8871C163.815 13.9279 163.754 13.9482 163.673 13.9482H163.551C163.062 14.0297 162.756 14.1315 162.634 14.2537C162.553 14.3758 162.532 14.498 162.573 14.6202C162.614 14.7423 162.634 14.8645 162.634 14.9867C162.675 15.0681 162.573 15.1089 162.329 15.1089C162.288 15.1089 162.186 14.9867 162.023 14.7423C161.86 14.498 161.738 14.3555 161.656 14.3147H161.595H161.473C161.432 14.5184 161.371 14.722 161.29 14.9256C161.249 15.1292 161.188 15.3125 161.106 15.4754C161.106 15.4347 161.045 15.3939 160.923 15.3532C160.842 15.3125 160.76 15.3125 160.679 15.3532C160.638 15.3532 160.536 15.4347 160.373 15.5976C160.251 15.7605 160.169 15.8419 160.129 15.8419L160.006 15.903H159.884C159.844 15.903 159.803 15.8826 159.762 15.8419C159.681 15.8419 159.497 15.7401 159.212 15.5365C158.968 15.2921 158.845 15.1496 158.845 15.1089L158.723 15.0478C158.52 15.0478 158.397 15.1903 158.357 15.4754C158.357 15.7605 158.214 15.903 157.929 15.903H157.746C157.705 15.903 157.684 15.8826 157.684 15.8419C157.644 15.8419 157.562 15.7808 157.44 15.6587C157.359 15.5365 157.297 15.4754 157.257 15.4754C157.175 15.4754 157.073 15.5365 156.951 15.6587C156.829 15.7808 156.727 15.8419 156.646 15.8419L156.584 15.903C156.503 15.903 156.259 15.8012 155.851 15.5976C155.444 15.3532 155.159 15.1903 154.996 15.1089L154.751 14.8645C154.914 14.8645 154.996 14.7423 154.996 14.498C154.996 14.2944 154.792 14.05 154.385 13.765L154.324 13.7039C154.161 13.7039 154.038 13.826 153.957 14.0704C153.875 14.274 153.835 14.4166 153.835 14.498C153.835 14.5387 153.855 14.5795 153.896 14.6202C153.977 14.6609 154.018 14.7016 154.018 14.7423V14.8645C154.018 14.9052 153.977 14.946 153.896 14.9867C153.855 15.0274 153.835 15.0681 153.835 15.1089H153.712C153.55 15.1089 153.366 15.0681 153.163 14.9867C153 14.9052 152.837 14.8238 152.674 14.7423C152.755 14.5387 152.918 14.4573 153.163 14.498C153.448 14.498 153.59 14.3555 153.59 14.0704C153.59 13.6224 153.488 13.2763 153.285 13.0319C153.081 12.7876 152.979 12.5025 152.979 12.1767C152.979 12.0952 152.979 11.9527 152.979 11.7491C153.02 11.5047 153.142 11.4029 153.346 11.4436V12.2378C153.387 12.1971 153.427 12.136 153.468 12.0545C153.55 11.9731 153.59 11.912 153.59 11.8713V11.7491V11.688C153.59 11.6065 153.57 11.4844 153.529 11.3215C153.529 11.1178 153.509 10.9753 153.468 10.8939C153.224 10.9753 152.979 11.0975 152.735 11.2604C152.531 11.4233 152.388 11.6269 152.307 11.8713C152.185 11.7898 152.063 11.5455 151.94 11.1382C151.859 10.6902 151.839 10.4255 151.879 10.3441C151.879 10.2626 151.92 10.1812 152.001 10.0997C152.124 10.0183 152.226 9.97756 152.307 9.97756L152.674 10.3441C152.796 10.3034 152.857 10.2423 152.857 10.1608C152.857 10.0386 152.857 9.91647 152.857 9.79429C152.857 9.67212 152.877 9.57031 152.918 9.48886C152.959 9.40741 153.101 9.36669 153.346 9.36669H153.468L153.59 9.54994C153.672 9.63139 153.753 9.67212 153.835 9.67212C153.875 9.71284 153.937 9.73321 154.018 9.73321C154.14 9.73321 154.262 9.67212 154.385 9.54994H154.507C154.67 9.54994 154.894 9.6314 155.179 9.79429C155.464 9.95719 155.709 10.0794 155.912 10.1608C156.32 10.2423 156.564 10.3237 156.646 10.4052C156.727 10.4459 156.747 10.507 156.707 10.5884C156.707 10.6292 156.686 10.6902 156.646 10.7717C156.605 10.8124 156.686 10.8531 156.89 10.8939C156.89 10.4052 157.155 10.1608 157.684 10.1608C157.847 10.1608 157.99 10.2015 158.112 10.283C158.234 10.3237 158.357 10.3441 158.479 10.3441H158.601C158.642 10.3034 158.682 10.283 158.723 10.283C158.764 10.2423 158.805 10.2015 158.845 10.1608V10.0386V9.97756C158.805 9.89611 158.764 9.75357 158.723 9.54994C158.682 9.34632 158.642 9.22415 158.601 9.18342V9.06125V9.00016C158.642 9.00016 158.682 8.9798 158.723 8.93908C158.764 8.85763 158.805 8.8169 158.845 8.8169C158.927 8.93907 158.968 9.12234 158.968 9.36669C159.008 9.61103 159.131 9.73321 159.334 9.73321C159.579 9.73321 159.762 9.65176 159.884 9.48886C160.047 9.28523 160.292 9.18342 160.618 9.18342C160.862 9.18342 161.025 9.24451 161.106 9.36669C161.188 9.48886 161.33 9.54994 161.534 9.54994C161.534 9.42777 161.514 9.3056 161.473 9.18342C161.432 9.06125 161.514 9.00016 161.717 9.00016H161.84C161.88 9.04088 161.942 9.12234 162.023 9.24451C162.145 9.32596 162.227 9.36669 162.267 9.36669H162.329H162.39C162.593 9.16306 162.716 9.00016 162.756 8.87799C162.797 8.71509 162.817 8.53183 162.817 8.3282C162.817 8.16531 162.797 8.04313 162.756 7.96168C162.716 7.83951 162.593 7.7377 162.39 7.65625C162.43 7.53407 162.491 7.47299 162.573 7.47299C162.695 7.47299 162.817 7.47299 162.94 7.47299C163.062 7.47299 163.164 7.47299 163.245 7.47299C163.367 7.43226 163.428 7.35081 163.428 7.22864C163.428 7.14719 163.388 7.00465 163.306 6.80103C163.225 6.59741 163.123 6.39378 163.001 6.19016C162.919 5.94581 162.817 5.74218 162.695 5.57929C162.573 5.41639 162.471 5.33494 162.39 5.33494V3.44124C162.634 3.52269 162.736 3.70595 162.695 3.99102C162.654 4.2761 162.736 4.45936 162.94 4.54081C163.225 4.54081 163.367 4.43899 163.367 4.23537C163.408 4.1132 163.388 3.90957 163.306 3.6245C163.225 3.2987 163.103 3.05435 162.94 2.89145H163.184C163.347 2.89145 163.49 2.93218 163.612 3.01363C163.775 3.05435 163.917 3.07471 164.04 3.07471C164.365 3.07471 164.589 2.83037 164.712 2.34167C164.834 1.85297 165.017 1.52718 165.262 1.36428V0.020362C165.384 0.142536 165.526 0.203623 165.689 0.203623C165.73 0.203623 165.791 0.162898 165.873 0.0814478C165.954 -3.82643e-08 166.015 -0.020362 166.056 0.020362C166.178 0.0610859 166.321 0.18326 166.484 0.386884C166.687 0.549782 166.789 0.733042 166.789 0.936666C166.463 0.936666 166.26 0.977391 166.178 1.05884C166.097 1.09957 166.056 1.26246 166.056 1.54754V1.91406L166.606 1.54754C166.647 1.50681 166.687 1.52718 166.728 1.60862C166.769 1.64935 166.789 1.69008 166.789 1.7308C166.83 1.77152 166.83 1.87334 166.789 2.03624C166.789 2.19913 166.789 2.32131 166.789 2.40276C166.83 2.40276 166.912 2.3824 167.034 2.34167C167.197 2.30095 167.319 2.28058 167.4 2.28058C167.726 2.36203 167.93 2.74892 168.011 3.44124C168.134 4.09283 168.215 4.80552 168.256 5.57929C168.297 6.35306 168.358 7.06574 168.439 7.71733C168.561 8.3282 168.786 8.63364 169.111 8.63364C169.315 8.63364 169.437 8.57255 169.478 8.45038H170.822C170.822 8.40965 170.843 8.38929 170.884 8.38929C170.924 8.38929 170.965 8.36893 171.006 8.3282C171.046 8.28748 171.108 8.24675 171.189 8.20603H171.311H171.433C171.515 8.28748 171.637 8.43002 171.8 8.63364C172.004 8.79654 172.126 8.91871 172.167 9.00016C171.963 8.63364 172.024 8.34857 172.35 8.14494C172.676 7.90059 172.982 7.77842 173.267 7.77842C173.348 7.77842 173.43 7.79878 173.511 7.83951C173.633 7.83951 173.694 7.85987 173.694 7.90059C173.776 7.90059 173.837 8.0024 173.878 8.20603C173.918 8.36893 173.939 8.4911 173.939 8.57255C174.183 8.53183 174.305 8.43002 174.305 8.26712C174.346 8.10422 174.448 7.98204 174.611 7.90059C174.855 8.26712 175.161 8.45038 175.528 8.45038C175.894 8.45038 176.2 8.34857 176.444 8.14494C176.729 7.94132 177.055 7.83951 177.422 7.83951C177.463 7.83951 177.544 7.85987 177.666 7.90059C177.789 7.90059 177.87 7.90059 177.911 7.90059L178.033 8.20603C178.114 8.28748 178.196 8.28748 178.277 8.20603C178.318 8.20603 178.359 8.18567 178.4 8.14494V7.47299C178.522 7.59516 178.685 7.65625 178.889 7.65625C179.051 7.69697 179.357 7.71733 179.805 7.71733C180.294 7.71733 180.62 7.69697 180.783 7.65625C180.742 7.69697 180.701 7.75806 180.661 7.83951C180.62 7.92096 180.579 7.98204 180.538 8.02277C180.538 8.02277 180.559 8.06349 180.6 8.14494C180.803 8.14494 180.925 8.06349 180.966 7.90059C181.048 7.69697 181.251 7.59516 181.577 7.59516C181.577 7.79878 181.536 7.94132 181.455 8.02277C181.414 8.10422 181.394 8.24675 181.394 8.45038C181.598 8.45038 181.781 8.4911 181.944 8.57255C182.107 8.61328 182.29 8.63364 182.494 8.63364C182.698 8.63364 182.82 8.59292 182.86 8.51147C182.901 8.43002 183.003 8.38929 183.166 8.38929C183.207 8.38929 183.247 8.40965 183.288 8.45038C183.288 8.53183 183.309 8.59291 183.349 8.63364V8.75581C183.349 8.79654 183.37 8.8169 183.41 8.8169C183.451 8.85763 183.533 8.91871 183.655 9.00016C183.777 9.08161 183.838 9.1427 183.838 9.18342L183.655 9.54994C183.614 9.63139 183.573 9.73321 183.533 9.85538C183.492 9.97756 183.451 10.0794 183.41 10.1608H184.449C184.449 10.3237 184.409 10.4663 184.327 10.5884C184.246 10.7106 184.205 10.8531 184.205 11.016V11.0771C184.327 11.1586 184.47 11.2197 184.633 11.2604C184.796 11.2604 184.918 11.3215 184.999 11.4436C184.958 11.4436 184.877 11.4844 184.755 11.5658C184.673 11.6065 184.612 11.6473 184.571 11.688V11.7491V11.8713C184.571 11.9527 184.592 12.1563 184.633 12.4821C184.714 12.7672 184.775 12.9505 184.816 13.0319V13.1541C184.816 13.2355 184.673 13.2966 184.388 13.3373C184.103 13.3781 183.777 13.4188 183.41 13.4595C183.044 13.4595 182.677 13.4799 182.31 13.5206C181.944 13.5206 181.679 13.541 181.516 13.5817H181.455H181.394C181.312 13.541 181.211 13.4595 181.088 13.3373C180.966 13.2152 180.864 13.1541 180.783 13.1541C180.742 13.1541 180.661 13.1948 180.538 13.2763C180.416 13.317 180.314 13.3373 180.233 13.3373C180.192 13.3781 180.111 13.4392 179.988 13.5206C179.907 13.5613 179.846 13.5817 179.805 13.5817H179.683C179.276 13.5817 178.929 13.5002 178.644 13.3373C178.4 13.1744 178.155 13.093 177.911 13.093V13.3373C177.34 13.3373 177.055 13.6224 177.055 14.1926H176.933C176.892 14.1518 176.791 14.0704 176.628 13.9482C176.505 13.826 176.424 13.765 176.383 13.765C176.302 13.765 176.22 13.826 176.139 13.9482C176.098 14.0704 176.057 14.1518 176.016 14.1926C175.731 14.2333 175.528 14.1722 175.405 14.0093C175.324 13.8057 175.242 13.6021 175.161 13.3984C175.12 13.1541 175.059 12.9301 174.978 12.7265C174.896 12.5228 174.754 12.421 174.55 12.421H174.489C174.448 12.4618 174.387 12.5025 174.305 12.5432C174.265 12.5432 174.244 12.5636 174.244 12.6043C174.244 12.645 174.265 12.7468 174.305 12.9097C174.387 13.0726 174.448 13.1541 174.489 13.1541H174.367H174.244C174.163 13.1541 174.041 13.1134 173.878 13.0319C173.715 12.9097 173.593 12.8486 173.511 12.8486L173.144 13.765C173.063 13.5613 172.961 13.4392 172.839 13.3984C172.757 13.3577 172.635 13.3373 172.472 13.3373C172.146 13.3373 171.841 13.4188 171.556 13.5817C171.311 13.7446 171.189 13.9889 171.189 14.3147L171.067 14.1926V14.0704C171.067 13.7039 171.23 13.3984 171.556 13.1541C171.922 12.869 172.187 12.5636 172.35 12.2378C172.35 12.1971 172.289 12.1156 172.167 11.9934H172.106H171.983C171.943 12.0749 171.841 12.1971 171.678 12.36C171.556 12.4821 171.474 12.5636 171.433 12.6043H171.067C170.904 12.6858 170.822 12.8079 170.822 12.9708C170.822 13.1337 170.822 13.317 170.822 13.5206C170.863 13.6835 170.863 13.8464 170.822 14.0093C170.782 14.1315 170.639 14.1926 170.395 14.1926C170.232 14.1926 170.15 14.1111 170.15 13.9482C170.15 13.7853 170.069 13.7039 169.906 13.7039C169.661 13.7039 169.478 13.8464 169.356 14.1315C169.274 14.3758 169.193 14.6813 169.111 15.0478C169.071 15.4143 169.03 15.7808 168.989 16.1474C168.948 16.4731 168.867 16.6971 168.745 16.8193C168.663 16.9008 168.602 16.9415 168.561 16.9415C168.521 16.9822 168.48 17.0026 168.439 17.0026V16.0863H168.256C168.174 16.0863 168.113 16.0863 168.073 16.0863C168.032 16.0455 167.991 16.0252 167.95 16.0252C167.543 16.1066 167.299 16.2492 167.217 16.4528C167.136 16.6564 167.095 16.9211 167.095 17.2469C167.299 17.2469 167.482 17.2673 167.645 17.308C167.849 17.308 167.889 17.4709 167.767 17.7967C167.971 17.7153 168.134 17.6338 168.256 17.5524C168.419 17.4302 168.582 17.308 168.745 17.1858C169.03 17.6745 169.193 18.2447 169.234 18.8963C169.274 19.5071 169.295 20.0976 169.295 20.6678V21.6452C169.132 21.8488 168.989 22.1135 168.867 22.4393C168.745 22.7244 168.643 23.0298 168.561 23.3556C168.48 23.6407 168.398 23.9054 168.317 24.1498C168.236 24.3534 168.174 24.4552 168.134 24.4552C168.093 24.4959 167.91 24.5163 167.584 24.5163C167.258 24.4756 167.054 24.4552 166.973 24.4552C166.769 24.4959 166.647 24.6792 166.606 25.005C166.565 25.2901 166.463 25.4937 166.3 25.6158C166.097 25.4122 165.852 25.1882 165.567 24.9439C165.282 24.6588 165.038 24.5163 164.834 24.5163C164.834 24.9643 164.834 25.2697 164.834 25.4326C164.875 25.5955 164.63 25.7177 164.101 25.7991C164.019 25.4733 163.978 25.2086 163.978 25.005C163.978 24.7606 163.978 24.4756 163.978 24.1498ZM164.345 21.8285C164.386 22.0321 164.467 22.2357 164.589 22.4393C164.712 22.6022 164.915 22.6837 165.201 22.6837C165.201 22.4393 165.18 22.1135 165.139 21.7063C165.139 21.299 164.997 20.9936 164.712 20.79C164.671 20.8714 164.63 21.0547 164.589 21.3398C164.589 21.5841 164.508 21.747 164.345 21.8285ZM168.928 20.79C168.928 20.7492 168.887 20.7289 168.806 20.7289C168.765 20.7289 168.745 20.7492 168.745 20.79C168.745 20.8714 168.765 20.9121 168.806 20.9121C168.887 20.9121 168.928 20.8714 168.928 20.79ZM164.528 19.6904H164.712L164.528 19.5071V19.6904ZM160.006 14.7423C159.803 14.9052 159.701 15.1089 159.701 15.3532L159.762 15.4754C159.925 15.3125 160.006 15.1089 160.006 14.8645V14.7423ZM167.767 15.1089C167.889 15.0274 167.95 14.9256 167.95 14.8034C167.991 14.6813 168.011 14.5795 168.011 14.498H167.767V15.1089ZM176.2 13.1541C176.118 13.1541 176.078 13.2355 176.078 13.3984C176.078 13.5206 176.118 13.5817 176.2 13.5817C176.281 13.5817 176.322 13.5206 176.322 13.3984C176.322 13.2355 176.281 13.1541 176.2 13.1541ZM154.996 13.2152C155.24 13.2152 155.362 13.0115 155.362 12.6043H154.996V13.2152ZM178.644 12.6043C178.563 12.6043 178.522 12.6857 178.522 12.8486C178.522 12.9708 178.563 13.0319 178.644 13.0319C178.766 13.0319 178.827 12.9708 178.827 12.8486C178.827 12.6857 178.766 12.6043 178.644 12.6043ZM154.14 11.688H154.385V11.3215H154.14V11.688ZM173.939 11.4436C173.857 11.4029 173.817 11.4436 173.817 11.5658C173.817 11.6473 173.857 11.688 173.939 11.688C174.02 11.6065 174.02 11.5251 173.939 11.4436ZM157.501 10.7106C157.501 10.7106 157.562 10.7717 157.684 10.8939H157.746H157.807L157.684 10.5273L157.501 10.7106ZM182.31 10.8939L182.494 10.7106H182.31V10.8939ZM154.385 10.1608C154.425 10.0794 154.385 10.0386 154.262 10.0386C154.181 10.0386 154.14 10.0794 154.14 10.1608C154.222 10.2423 154.303 10.2423 154.385 10.1608ZM175.222 9.73321C175.141 9.73321 175.1 9.81466 175.1 9.97756C175.1 10.0997 175.141 10.1608 175.222 10.1608C175.304 10.1608 175.344 10.0997 175.344 9.97756C175.344 9.81466 175.304 9.73321 175.222 9.73321ZM176.566 9.06125C176.566 9.10197 176.546 9.22415 176.505 9.42777C176.505 9.63139 176.587 9.73321 176.75 9.73321C176.994 9.73321 177.178 9.61103 177.3 9.36669C177.463 9.12234 177.544 8.89835 177.544 8.69473C177.544 8.4911 177.402 8.38929 177.116 8.38929C176.994 8.38929 176.892 8.40965 176.811 8.45038C176.77 8.45038 176.689 8.4911 176.566 8.57255V9.06125ZM168.134 8.20603C168.052 8.20603 168.011 8.26712 168.011 8.38929C168.011 8.51147 168.052 8.57255 168.134 8.57255C168.215 8.57255 168.256 8.51147 168.256 8.38929C168.256 8.26712 168.215 8.20603 168.134 8.20603ZM164.101 5.64037C164.101 5.844 164.162 5.94581 164.284 5.94581C164.447 5.94581 164.589 5.94581 164.712 5.94581C164.834 5.94581 164.956 5.94581 165.078 5.94581C165.201 5.94581 165.262 5.844 165.262 5.64037C165.262 5.5182 165.18 5.41639 165.017 5.33494C164.854 5.21276 164.732 5.15168 164.651 5.15168H164.528L164.101 5.57929V5.64037ZM166.423 4.54081H166.606V4.41863H166.423V4.54081ZM167.584 4.23537C167.502 4.19465 167.462 4.21501 167.462 4.29646C167.462 4.37791 167.502 4.41863 167.584 4.41863C167.665 4.41863 167.706 4.39827 167.706 4.35754C167.706 4.27609 167.665 4.23537 167.584 4.23537ZM166.789 3.07471C166.789 3.27834 166.85 3.40051 166.973 3.44124L167.4 3.07471H166.789ZM165.262 2.28058C165.221 2.23986 165.201 2.30095 165.201 2.46384C165.201 2.62674 165.221 2.68783 165.262 2.6471C165.343 2.6471 165.384 2.60638 165.384 2.52493C165.384 2.44348 165.343 2.36203 165.262 2.28058ZM165.812 0.570145C165.893 0.570145 165.934 0.549783 165.934 0.509059C165.934 0.427609 165.893 0.386884 165.812 0.386884V0.570145Z" fill="#00AFDC"/>
</svg>
