<svg width="171" height="45" viewBox="0 0 171 45" fill="none" xmlns="http://www.w3.org/2000/svg">
<path d="M22.2299 0C9.96629 0 0.000111157 9.91147 0.000111157 22.1077C-0.00197183 22.2542 0.0252389 22.3996 0.0801617 22.5356C0.135085 22.6715 0.216624 22.7952 0.320042 22.8995C0.42346 23.0038 0.546693 23.0867 0.682581 23.1432C0.818468 23.1998 0.9643 23.2289 1.1116 23.2289C1.2589 23.2289 1.40473 23.1998 1.54062 23.1432C1.67651 23.0867 1.79974 23.0038 1.90316 22.8995C2.00658 22.7952 2.08812 22.6715 2.14304 22.5356C2.19796 22.3996 2.22517 22.2542 2.22309 22.1077C2.22309 11.1064 11.1678 2.21077 22.2299 2.21077C29.1714 2.21077 35.2655 5.72586 38.8545 11.0539H32.2333C32.086 11.0518 31.9398 11.0789 31.8031 11.1335C31.6664 11.1881 31.542 11.2692 31.4371 11.372C31.3322 11.4749 31.2489 11.5975 31.1921 11.7326C31.1352 11.8677 31.106 12.0128 31.106 12.1593C31.106 12.3057 31.1352 12.4508 31.1921 12.5859C31.2489 12.7211 31.3322 12.8436 31.4371 12.9465C31.542 13.0493 31.6664 13.1304 31.8031 13.185C31.9398 13.2397 32.086 13.2667 32.2333 13.2646H40.8603H42.2367V3.31616C42.2387 3.16827 42.2109 3.02148 42.1549 2.88448C42.0988 2.74748 42.0157 2.62305 41.9104 2.51857C41.8052 2.41408 41.6799 2.33167 41.542 2.27621C41.4042 2.22074 41.2565 2.19335 41.1078 2.19566C40.8134 2.20024 40.5329 2.32079 40.3277 2.53086C40.1226 2.74094 40.0097 3.02336 40.0137 3.31616V8.85389C35.9558 3.48026 29.4976 0 22.2299 0ZM21.1184 9.94848V12.2543C19.2177 12.5555 17.9793 13.5953 17.3758 14.6421C16.661 15.8818 16.6724 17.1205 16.6724 17.1205C16.6724 18.8232 17.5699 20.1443 18.7 20.9484C19.8302 21.7524 21.1596 22.1978 22.4014 22.6518C23.6431 23.1058 24.7912 23.566 25.534 24.1501C26.2768 24.7343 26.6758 25.3248 26.6758 26.5293C26.6758 26.5293 26.6686 27.3305 26.1505 28.155C25.6323 28.9795 24.7122 29.8454 22.2299 29.8454C19.8217 29.8454 18.9235 28.811 18.3614 27.693C17.7993 26.5749 17.7839 25.4239 17.7839 25.4239H15.561C15.561 25.4239 15.5456 27.0364 16.3729 28.6818C17.0977 30.1235 18.6314 31.6277 21.1184 31.9785V34.267H23.3414V31.9936C25.7598 31.7139 27.2742 30.5354 28.0348 29.3251C28.906 27.9389 28.8988 26.5293 28.8988 26.5293C28.8988 24.7172 28.0475 23.3074 26.9146 22.4165C25.7818 21.5256 24.429 21.0373 23.1699 20.577C21.9108 20.1167 20.7393 19.6803 19.9939 19.15C19.2484 18.6196 18.8954 18.1532 18.8954 17.1205C18.8954 17.1205 18.9069 16.4312 19.3035 15.7431C19.7002 15.0551 20.33 14.37 22.2299 14.37C24.0824 14.37 24.7026 15.1281 25.1258 15.9698C25.549 16.8116 25.5643 17.6862 25.5643 17.6862H27.7873C27.7873 17.6862 27.8027 16.3501 27.1144 14.981C26.5312 13.821 25.284 12.6106 23.3414 12.265V9.94848H21.1184ZM43.3308 20.9872C43.0364 20.9918 42.7558 21.1124 42.5507 21.3224C42.3456 21.5325 42.2326 21.8149 42.2367 22.1077C42.2367 33.1091 33.292 42.0047 22.2299 42.0047C15.2878 42.0047 9.19333 38.4893 5.60531 33.1616L12.2265 33.1638C12.3738 33.1658 12.52 33.1388 12.6567 33.0842C12.7934 33.0295 12.9178 32.9484 13.0226 32.8456C13.1275 32.7427 13.2108 32.6202 13.2677 32.485C13.3245 32.3499 13.3538 32.2049 13.3538 32.0584C13.3538 31.9119 13.3245 31.7669 13.2677 31.6317C13.2108 31.4966 13.1275 31.374 13.0226 31.2712C12.9178 31.1683 12.7934 31.0872 12.6567 31.0326C12.52 30.978 12.3738 30.9509 12.2265 30.953L3.82954 30.9508C3.68762 30.923 3.54162 30.923 3.3997 30.9508H2.22309V40.8993C2.22101 41.0458 2.24822 41.1912 2.30314 41.3271C2.35806 41.4631 2.4396 41.5868 2.54302 41.6911C2.64644 41.7954 2.76967 41.8783 2.90556 41.9348C3.04145 41.9913 3.18728 42.0204 3.33458 42.0204C3.48188 42.0204 3.62771 41.9913 3.7636 41.9348C3.89948 41.8783 4.02272 41.7954 4.12613 41.6911C4.22955 41.5868 4.31109 41.4631 4.36602 41.3271C4.42094 41.1912 4.44815 41.0458 4.44607 40.8993V35.3573C8.50265 40.7325 14.9603 44.2155 22.2299 44.2155C34.4935 44.2155 44.4597 34.304 44.4597 22.1077C44.4617 21.9598 44.4339 21.8131 44.3778 21.6761C44.3218 21.5391 44.2387 21.4146 44.1334 21.3101C44.0282 21.2057 43.9029 21.1232 43.765 21.0678C43.6272 21.0123 43.4795 20.9849 43.3308 20.9872Z" fill="white"/>
<path d="M74.9717 25.4606C74.741 28.6368 73.5605 31.1372 71.4301 32.9619C69.3132 34.7865 66.5179 35.6988 63.044 35.6988C59.2445 35.6988 56.2524 34.4283 54.0677 31.8874C51.8966 29.3329 50.811 25.8323 50.811 21.3856V19.5813C50.811 16.743 51.3131 14.2426 52.3173 12.0801C53.3214 9.91754 54.753 8.26186 56.612 7.11302C58.4847 5.95067 60.6558 5.36949 63.1255 5.36949C66.545 5.36949 69.2996 6.2818 71.3894 8.10643C73.4791 9.93105 74.6868 12.4923 75.0124 15.7901H68.9061C68.7568 13.8844 68.2208 12.5058 67.2981 11.6543C66.389 10.7893 64.9981 10.3568 63.1255 10.3568C61.09 10.3568 59.5634 11.0866 58.5457 12.5463C57.5416 13.9925 57.0259 16.2429 56.9988 19.2975V21.5276C56.9988 24.7173 57.4805 27.0487 58.4439 28.5219C59.421 29.9952 60.9543 30.7318 63.044 30.7318C64.9302 30.7318 66.3347 30.306 67.2574 29.4545C68.1937 28.5895 68.7297 27.2582 68.8654 25.4606H74.9717Z" fill="white"/>
<path d="M83.0716 15.7496C84.6321 13.8844 86.5929 12.9518 88.954 12.9518C93.7305 12.9518 96.1527 15.7158 96.2205 21.2437V35.2933H90.3381V21.4059C90.3381 20.1489 90.0667 19.2231 89.5239 18.6284C88.9811 18.0202 88.0787 17.7161 86.8168 17.7161C85.0934 17.7161 83.845 18.3784 83.0716 19.7029V35.2933H77.1891V4.15308H83.0716V15.7496Z" fill="white"/>
<path d="M105.603 35.2933H99.6999V13.3573H105.603V35.2933ZM99.3539 7.68068C99.3539 6.80216 99.6456 6.07907 100.229 5.51141C100.826 4.94375 101.634 4.65992 102.651 4.65992C103.655 4.65992 104.456 4.94375 105.053 5.51141C105.65 6.07907 105.949 6.80216 105.949 7.68068C105.949 8.57272 105.643 9.30257 105.033 9.87023C104.436 10.4379 103.642 10.7217 102.651 10.7217C101.661 10.7217 100.86 10.4379 100.249 9.87023C99.6524 9.30257 99.3539 8.57272 99.3539 7.68068Z" fill="white"/>
<path d="M129.029 24.528C129.029 27.907 128.256 30.6169 126.709 32.6578C125.176 34.6851 123.099 35.6988 120.481 35.6988C118.255 35.6988 116.457 34.9284 115.087 33.3876V43.7271H109.204V13.3573H114.659L114.863 15.5063C116.288 13.8033 118.147 12.9518 120.44 12.9518C123.154 12.9518 125.264 13.952 126.77 15.9523C128.276 17.9526 129.029 20.7099 129.029 24.2239V24.528ZM123.147 24.1023C123.147 22.0614 122.781 20.4868 122.048 19.3786C121.329 18.2703 120.277 17.7161 118.893 17.7161C117.047 17.7161 115.779 18.4189 115.087 19.8246V28.8058C115.806 30.252 117.088 30.9751 118.934 30.9751C121.742 30.9751 123.147 28.6841 123.147 24.1023Z" fill="white"/>
<path d="M138.31 35.2933H132.203V5.77496H138.31V35.2933Z" fill="white"/>
<path d="M147.753 13.3573L147.936 15.8915C149.51 13.9317 151.62 12.9518 154.266 12.9518C156.6 12.9518 158.337 13.6344 159.477 14.9995C160.617 16.3645 161.2 18.4054 161.228 21.1221V35.2933H155.345V21.264C155.345 20.0206 155.074 19.1218 154.531 18.5676C153.988 17.9999 153.086 17.7161 151.824 17.7161C150.168 17.7161 148.927 18.4189 148.099 19.8246V35.2933H142.217V13.3573H147.753Z" fill="white"/>
<path d="M163.916 32.3611C163.916 31.6799 164.07 31.0475 164.38 30.4641C164.692 29.8807 165.123 29.422 165.672 29.0881C166.224 28.7509 166.819 28.5823 167.458 28.5823C168.096 28.5823 168.69 28.7509 169.239 29.0881C169.791 29.422 170.222 29.8807 170.531 30.4641C170.844 31.0475 171 31.6799 171 32.3611C171 33.0322 170.849 33.6578 170.546 34.2379C170.243 34.8179 169.816 35.2833 169.264 35.634C168.715 35.9814 168.113 36.1551 167.458 36.1551C166.803 36.1551 166.199 35.9814 165.647 35.634C165.098 35.2833 164.672 34.8179 164.37 34.2379C164.067 33.6578 163.916 33.0322 163.916 32.3611ZM164.34 32.3611C164.34 32.9648 164.478 33.5263 164.754 34.0456C165.033 34.565 165.414 34.9747 165.896 35.2749C166.382 35.5717 166.902 35.72 167.458 35.72C168.013 35.72 168.534 35.5717 169.019 35.2749C169.505 34.9747 169.884 34.565 170.157 34.0456C170.433 33.5229 170.571 32.9614 170.571 32.3611C170.571 31.7675 170.436 31.2145 170.167 30.7019C169.897 30.1892 169.52 29.7812 169.034 29.4777C168.552 29.1741 168.027 29.0224 167.458 29.0224C166.899 29.0224 166.377 29.1725 165.891 29.4726C165.409 29.7694 165.03 30.1758 164.754 30.6917C164.478 31.2043 164.34 31.7608 164.34 32.3611ZM166.65 32.6798V34.425H166.161V30.1808H167.448C167.937 30.1808 168.313 30.2854 168.575 30.4944C168.838 30.7002 168.97 31.0138 168.97 31.4354C168.97 31.8839 168.735 32.2161 168.266 32.4319C168.506 32.5196 168.672 32.6562 168.765 32.8417C168.858 33.0238 168.905 33.243 168.905 33.4993C168.905 33.7556 168.911 33.9411 168.925 34.0557C168.938 34.1704 168.96 34.2665 168.989 34.3441V34.425H168.481C168.434 34.3036 168.411 33.9967 168.411 33.5044C168.411 33.2042 168.348 32.9917 168.221 32.867C168.098 32.7422 167.887 32.6798 167.588 32.6798H166.65ZM166.65 32.2195H167.553C167.822 32.2195 168.043 32.1486 168.216 32.007C168.392 31.8653 168.481 31.6782 168.481 31.4455C168.481 31.1588 168.407 30.9548 168.261 30.8334C168.118 30.7086 167.87 30.6428 167.518 30.6361H166.65V32.2195Z" fill="white"/>
</svg>
