<svg width="30" height="30" viewBox="0 0 30 30" fill="none" xmlns="http://www.w3.org/2000/svg">
<path fill-rule="evenodd" clip-rule="evenodd" d="M0 30L-1.31134e-06 0L30 -1.31134e-06L30 30L0 30Z" fill="#FF0000" fill-opacity="0.01"/>
<path d="M15 17.3787L6.6826 9.43934C6.06891 8.85355 5.07394 8.85355 4.46026 9.43934C3.84658 10.0251 3.84658 10.9749 4.46026 11.5607L13.8888 20.5607C14.5025 21.1464 15.4975 21.1464 16.1112 20.5607L25.5397 11.5607C26.1534 10.9749 26.1534 10.0251 25.5397 9.43934C24.9261 8.85355 23.9311 8.85355 23.3174 9.43934L15 17.3787Z" fill="#4A4A4A"/>
<mask id="mask0" mask-type="alpha" maskUnits="userSpaceOnUse" x="4" y="9" width="22" height="12">
<path d="M15 17.3787L6.6826 9.43934C6.06891 8.85355 5.07394 8.85355 4.46026 9.43934C3.84658 10.0251 3.84658 10.9749 4.46026 11.5607L13.8888 20.5607C14.5025 21.1464 15.4975 21.1464 16.1112 20.5607L25.5397 11.5607C26.1534 10.9749 26.1534 10.0251 25.5397 9.43934C24.9261 8.85355 23.9311 8.85355 23.3174 9.43934L15 17.3787Z" fill="white"/>
</mask>
<g mask="url(#mask0)">
<path fill-rule="evenodd" clip-rule="evenodd" d="M0 30L-1.31134e-06 0L30 -1.31134e-06L30 30L0 30Z" fill="white"/>
</g>
</svg>
