<svg width="41" height="40" viewBox="0 0 41 40" fill="none" xmlns="http://www.w3.org/2000/svg">
<path d="M36.4125 0H3.68519C1.6761 0 0.0488281 1.62727 0.0488281 3.63636V36.3636C0.0488281 38.3727 1.6761 40 3.68519 40H21.867V23.6364H16.4125V18.1818H21.867V15.2527C21.867 9.70727 24.5688 7.27273 29.1779 7.27273C31.3852 7.27273 32.5525 7.43636 33.1052 7.51091V12.7273H29.9616C28.0052 12.7273 27.3216 13.76 27.3216 15.8509V18.1818H33.0561L32.2779 23.6364H27.3216V40H36.4125C38.4216 40 40.0488 38.3727 40.0488 36.3636V3.63636C40.0488 1.62727 38.4197 0 36.4125 0Z" fill="#4A4A4A"/>
</svg>
