<svg width="27" height="27" viewBox="0 0 27 27" fill="none" xmlns="http://www.w3.org/2000/svg">
<path d="M2.16012 1.08008C1.83527 1.08008 1.62012 1.29523 1.62012 1.62008V3.24008C1.62012 3.4025 1.68129 3.50375 1.78887 3.61133L10.4289 12.7913C10.5364 12.8989 10.6925 12.9601 10.8001 12.9601H16.2001C16.3625 12.9601 16.4638 12.8989 16.5714 12.7913L25.2114 3.61133C25.3189 3.50375 25.3801 3.4025 25.3801 3.24008V1.62008C25.3801 1.29523 25.165 1.08008 24.8401 1.08008H2.16012ZM10.2601 14.0401V22.1401C10.2601 22.3552 10.3677 22.5219 10.5301 22.6295L15.9301 25.8695C15.985 25.9243 16.0925 25.9201 16.2001 25.9201C16.3077 25.9201 16.3625 25.9243 16.4701 25.8695C16.6325 25.7619 16.7401 25.5952 16.7401 25.3801V14.0401H10.2601Z" fill="#9B9B9B"/>
</svg>
