<svg width="50" height="50" viewBox="0 0 50 50" fill="none" xmlns="http://www.w3.org/2000/svg">
<path d="M25 0C11.2824 0 0 10.1006 0 22.7207C0 30.0435 3.88283 36.5027 9.74114 40.6338C9.73263 40.8786 9.74114 41.257 9.4346 42.45C9.05569 43.9235 8.30637 46.0112 6.74387 48.3261L5.61989 49.9642L7.56131 49.9998C14.2924 50.031 18.1923 45.4058 18.8011 44.658C20.7893 45.1209 22.8585 45.4415 25 45.4415C38.7134 45.4415 50 35.3409 50 22.7207C50 10.1006 38.7134 0 25 0ZM25 2.13675C37.7682 2.13675 47.9564 11.4271 47.9564 22.7207C47.9564 34.0143 37.7682 43.3047 25 43.3047C22.8159 43.3047 20.6957 43.0287 18.6989 42.5212L18.0858 42.3788L17.6771 42.913C17.6771 42.913 14.5266 46.6256 9.50272 47.507C10.4096 45.8065 11.0993 44.2262 11.4101 43.0198C11.8443 41.3327 11.8529 40.1708 11.8529 40.1708V39.601L11.376 39.2805C5.6795 35.5056 2.0436 29.4915 2.0436 22.7207C2.0436 11.4271 12.2275 2.13675 25 2.13675Z" fill="white"/>
</svg>
