<svg width="23" height="21" viewBox="0 0 23 21" fill="none" stroke-width="1.5" stroke="red" xmlns="http://www.w3.org/2000/svg">
<path d="M6.67559 16.3742C8.98435 18.4831 11.1115 19.8756 11.2011 19.9336C11.2966 19.9959 11.4061 20.0273 11.5158 20.0273C11.6257 20.0273 11.7351 19.9959 11.8311 19.9332C11.9205 19.8749 14.0462 18.479 16.3511 16.3655C17.7116 15.1178 18.8482 13.8799 19.7297 12.686C20.853 11.1647 21.5677 9.70323 21.8538 8.34206C21.9511 7.89879 22 7.44233 22 6.98525C22 6.94494 21.9998 6.90525 21.9988 6.86532C21.9693 5.29862 21.3731 3.82922 20.3187 2.72707C19.2534 1.6131 17.8415 0.999512 16.3427 0.999512C15.1109 0.999512 13.94 1.41143 12.9564 2.18999C12.3647 2.65877 11.8729 3.23367 11.4994 3.88806C11.1259 3.23404 10.6345 2.65989 10.0426 2.19161C9.0593 1.41317 7.88859 1.0015 6.65689 1.0015C5.15892 1.0015 3.74713 1.61509 2.68168 2.72856C1.62745 3.83034 1.03118 5.29999 1.00137 6.86631C1.0005 6.90612 1 6.9468 1 6.98699C1 7.45228 1.05088 7.91658 1.15166 8.36694C1.44262 9.72575 2.16186 11.1845 3.28867 12.7025C4.17316 13.8939 5.31332 15.1292 6.67559 16.3742" stroke="#BFBFBF"/>
</svg>
