<svg width="21" height="20" viewBox="0 0 21 20" fill="none" xmlns="http://www.w3.org/2000/svg">
<path fill-rule="evenodd" clip-rule="evenodd" d="M5.67559 15.4126C7.98435 17.5266 10.1115 18.9226 10.2011 18.9807C10.2966 19.0432 10.4061 19.0746 10.5158 19.0746C10.6257 19.0746 10.7351 19.0432 10.8311 18.9803C10.9205 18.9219 13.0462 17.5225 15.3511 15.4038C16.7116 14.1531 17.8482 12.9121 18.7297 11.7152C19.853 10.1902 20.5677 8.72516 20.8538 7.36064C20.9511 6.91627 21 6.45869 21 6.00048C21 5.96007 20.9998 5.92029 20.9988 5.88025C20.9693 4.3097 20.3731 2.83668 19.3187 1.73181C18.2534 0.615101 16.8415 0 15.3427 0C14.1109 0 12.94 0.412936 11.9564 1.19341C11.3647 1.66334 10.8729 2.23966 10.4994 2.89567C10.1259 2.24003 9.63447 1.66447 9.04256 1.19503C8.0593 0.414682 6.88859 0.00199546 5.65689 0.00199546C4.15892 0.00199546 2.74713 0.617097 1.68168 1.73331C0.627448 2.8378 0.0311791 4.31107 0.00137188 5.88125C0.000498866 5.92116 0 5.96194 0 6.00223C0 6.46867 0.0508843 6.93411 0.151655 7.38558C0.442619 8.74773 1.16186 10.21 2.28867 11.7318C3.17316 12.9261 4.31332 14.1645 5.67559 15.4126Z" fill="#E76E66"/>
</svg>
