<svg width="41" height="40" viewBox="0 0 41 40" fill="none" xmlns="http://www.w3.org/2000/svg">
<path d="M11.8099 0C5.37823 0 0.146484 5.23659 0.146484 11.6699V28.3366C0.146484 34.7683 5.38307 40 11.8164 40H28.4831C34.9147 40 40.1465 34.7634 40.1465 28.3301V11.6634C40.1465 5.23174 34.9099 0 28.4766 0H11.8099ZM31.8132 6.66667C32.7332 6.66667 33.4798 7.41333 33.4798 8.33333C33.4798 9.25333 32.7332 10 31.8132 10C30.8932 10 30.1465 9.25333 30.1465 8.33333C30.1465 7.41333 30.8932 6.66667 31.8132 6.66667ZM20.1465 10C25.6615 10 30.1465 14.485 30.1465 20C30.1465 25.515 25.6615 30 20.1465 30C14.6315 30 10.1465 25.515 10.1465 20C10.1465 14.485 14.6315 10 20.1465 10ZM20.1465 13.3333C18.3784 13.3333 16.6827 14.0357 15.4324 15.286C14.1822 16.5362 13.4798 18.2319 13.4798 20C13.4798 21.7681 14.1822 23.4638 15.4324 24.714C16.6827 25.9643 18.3784 26.6667 20.1465 26.6667C21.9146 26.6667 23.6103 25.9643 24.8605 24.714C26.1108 23.4638 26.8132 21.7681 26.8132 20C26.8132 18.2319 26.1108 16.5362 24.8605 15.286C23.6103 14.0357 21.9146 13.3333 20.1465 13.3333Z" fill="#ffffff"/>
</svg>
