<svg width="40" height="40" viewBox="0 0 40 40" fill="none" xmlns="http://www.w3.org/2000/svg">
<circle cx="20" cy="20" r="20" fill="black" fill-opacity="0.7"/>
<path fill-rule="evenodd" clip-rule="evenodd" d="M6.40002 8H30.4V32H6.40002V8Z" fill="#FF0000" fill-opacity="0.01"/>
<path d="M16.497 20L22.8485 13.346C23.3171 12.8551 23.3171 12.0591 22.8485 11.5682C22.3799 11.0772 21.6201 11.0772 21.1514 11.5682L13.9514 19.111C13.4828 19.602 13.4828 20.3979 13.9514 20.8889L21.1514 28.4317C21.6201 28.9227 22.3799 28.9227 22.8485 28.4317C23.3171 27.9408 23.3171 27.1448 22.8485 26.6539L16.497 20Z" fill="#4A4A4A"/>
<mask id="mask0" mask-type="alpha" maskUnits="userSpaceOnUse" x="13" y="11" width="11" height="18">
<path d="M16.497 20L22.8485 13.346C23.3171 12.8551 23.3171 12.0591 22.8485 11.5682C22.3799 11.0772 21.6201 11.0772 21.1514 11.5682L13.9514 19.111C13.4828 19.602 13.4828 20.3979 13.9514 20.8889L21.1514 28.4317C21.6201 28.9227 22.3799 28.9227 22.8485 28.4317C23.3171 27.9408 23.3171 27.1448 22.8485 26.6539L16.497 20Z" fill="white"/>
</mask>
<g mask="url(#mask0)">
<path fill-rule="evenodd" clip-rule="evenodd" d="M6.40002 8H30.4V32H6.40002V8Z" fill="white"/>
</g>
</svg>
