<svg width="50" height="50" viewBox="0 0 50 50" fill="none" xmlns="http://www.w3.org/2000/svg">
<circle cx="25" cy="25" r="25" fill="black" fill-opacity="0.7"/>
<path d="M21.4744 25.0151L21.4744 25.0152L21.4797 25.0205C21.6214 25.1622 21.8278 25.25 22.0002 25.25H27.0002C27.1092 25.25 27.2083 25.2289 27.3006 25.184C27.39 25.1405 27.4608 25.0805 27.5208 25.0205L27.5209 25.0206L27.526 25.0151L35.5236 16.5177C35.5826 16.4584 35.6414 16.3883 35.6843 16.3003C35.7292 16.208 35.7502 16.109 35.7502 16V14.5C35.7502 14.2932 35.6807 14.1013 35.5398 13.9604C35.399 13.8196 35.207 13.75 35.0002 13.75H14.0002C13.7935 13.75 13.6015 13.8196 13.4607 13.9604C13.3198 14.1013 13.2502 14.2932 13.2502 14.5V16C13.2502 16.109 13.2713 16.208 13.3162 16.3003C13.359 16.3883 13.4179 16.4584 13.4769 16.5177L21.4744 25.0151ZM21.5002 25.75H21.2502V26V33.5C21.2502 33.7939 21.4014 34.0219 21.6122 34.1616L21.6121 34.1618L21.6216 34.1675L26.6029 37.1563C26.6819 37.2196 26.7719 37.237 26.8264 37.2437C26.8814 37.2505 26.9419 37.2502 26.9832 37.2501C26.9893 37.25 26.995 37.25 27.0002 37.25C27.0054 37.25 27.0109 37.25 27.0168 37.2501C27.0554 37.2503 27.1085 37.2505 27.1606 37.2431C27.2303 37.2331 27.2942 37.2113 27.3638 37.1759L27.3764 37.1694L27.3883 37.1616C27.5991 37.0219 27.7502 36.7939 27.7502 36.5V26V25.75H27.5002H21.5002Z" fill="white" stroke="black" stroke-width="0.5"/>
</svg>
