<svg width="22" height="32" viewBox="0 0 22 32" fill="none" xmlns="http://www.w3.org/2000/svg">
<path d="M1.00892 11.9819L1.50865 11.965L1.50848 11.9609L1.00892 11.9819ZM1.58538 15.1654L2.06571 15.0266L2.06255 15.0157L2.0589 15.0049L1.58538 15.1654ZM9.5595 30.191L9.97023 29.9059L9.97022 29.9059L9.5595 30.191ZM12.5807 30.191L12.17 29.9059L12.1699 29.906L12.5807 30.191ZM20.5543 15.1662L20.0809 15.0053L20.0771 15.0162L20.0739 15.0273L20.5543 15.1662ZM21.1307 11.9819L20.6312 11.9582L20.631 11.9651L21.1307 11.9819ZM21.14 11.5998L20.64 11.5998V11.5998H21.14ZM11.0681 15.054C9.29394 15.054 7.81201 13.532 7.81201 11.6002H6.81201C6.81201 14.0354 8.69398 16.054 11.0681 16.054V15.054ZM7.81201 11.6002C7.81201 9.6689 9.29393 8.14673 11.0681 8.14673V7.14673C8.69399 7.14673 6.81201 9.1655 6.81201 11.6002H7.81201ZM11.0681 8.14673C12.8425 8.14673 14.3243 9.66888 14.3243 11.6002H15.3243C15.3243 9.16552 13.4425 7.14673 11.0681 7.14673V8.14673ZM14.3243 11.6002C14.3243 13.532 12.8425 15.054 11.0681 15.054V16.054C13.4425 16.054 15.3243 14.0354 15.3243 11.6002H14.3243ZM11.0702 0.5C5.20859 0.5 0.5 5.4942 0.5 11.5998H1.5C1.5 5.99755 5.80857 1.5 11.0702 1.5V0.5ZM0.5 11.5998C0.5 11.7345 0.503747 11.8694 0.509364 12.0029L1.50848 11.9609C1.50325 11.8366 1.5 11.7163 1.5 11.5998H0.5ZM0.50921 11.9989C0.548659 13.1612 0.756931 14.2792 1.11185 15.326L2.0589 15.0049C1.73537 14.0507 1.54476 13.0295 1.50863 11.965L0.50921 11.9989ZM1.10504 15.3043C2.66376 20.6972 6.88538 27.216 9.14878 30.4762L9.97022 29.9059C7.70281 26.64 3.57348 20.2432 2.06571 15.0266L1.10504 15.3043ZM9.14877 30.4762C10.0964 31.8412 12.0439 31.8413 12.9914 30.4761L12.1699 29.906C11.6202 30.698 10.5201 30.6981 9.97023 29.9059L9.14877 30.4762ZM12.9914 30.4762C15.2548 27.2162 19.4759 20.6979 21.0346 15.305L20.0739 15.0273C18.5662 20.244 14.4373 26.6402 12.17 29.9059L12.9914 30.4762ZM21.0277 15.327C21.3835 14.28 21.5914 13.161 21.6304 11.9987L20.631 11.9651C20.5952 13.0297 20.4049 14.0516 20.0809 15.0053L21.0277 15.327ZM21.6302 12.0057C21.6366 11.8693 21.64 11.7339 21.64 11.5998H20.64C20.64 11.7173 20.637 11.8368 20.6313 11.9582L21.6302 12.0057ZM21.64 11.5998C21.6404 5.49419 16.9316 0.5 11.0702 0.5V1.5C16.3316 1.5 20.6403 5.99755 20.64 11.5998L21.64 11.5998Z" fill="#BFBFBF"/>
</svg>
