<svg width="30" height="30" viewBox="0 0 30 30" fill="none" xmlns="http://www.w3.org/2000/svg">
<path d="M6.00039 18.5999C4.01499 18.5999 2.40039 16.9853 2.40039 14.9999C2.40039 13.0145 4.01499 11.3999 6.00039 11.3999C7.98579 11.3999 9.60039 13.0145 9.60039 14.9999C9.60039 16.9853 7.98579 18.5999 6.00039 18.5999ZM6.00039 27.5999C4.01499 27.5999 2.40039 25.9853 2.40039 23.9999C2.40039 22.0145 4.01499 20.3999 6.00039 20.3999C7.98579 20.3999 9.60039 22.0145 9.60039 23.9999C9.60039 25.9853 7.98579 27.5999 6.00039 27.5999ZM6.00039 9.5999C4.01499 9.5999 2.40039 7.9853 2.40039 5.9999C2.40039 4.0145 4.01499 2.3999 6.00039 2.3999C7.98579 2.3999 9.60039 4.0145 9.60039 5.9999C9.60039 7.9853 7.98579 9.5999 6.00039 9.5999ZM15.0004 18.5999C13.015 18.5999 11.4004 16.9853 11.4004 14.9999C11.4004 13.0145 13.015 11.3999 15.0004 11.3999C16.9858 11.3999 18.6004 13.0145 18.6004 14.9999C18.6004 16.9853 16.9858 18.5999 15.0004 18.5999ZM15.0004 27.5999C13.015 27.5999 11.4004 25.9853 11.4004 23.9999C11.4004 22.0145 13.015 20.3999 15.0004 20.3999C16.9858 20.3999 18.6004 22.0145 18.6004 23.9999C18.6004 25.9853 16.9858 27.5999 15.0004 27.5999ZM15.0004 9.5999C13.015 9.5999 11.4004 7.9853 11.4004 5.9999C11.4004 4.0145 13.015 2.3999 15.0004 2.3999C16.9858 2.3999 18.6004 4.0145 18.6004 5.9999C18.6004 7.9853 16.9858 9.5999 15.0004 9.5999ZM24.0004 18.5999C22.015 18.5999 20.4004 16.9853 20.4004 14.9999C20.4004 13.0145 22.015 11.3999 24.0004 11.3999C25.9858 11.3999 27.6004 13.0145 27.6004 14.9999C27.6004 16.9853 25.9858 18.5999 24.0004 18.5999ZM24.0004 27.5999C22.015 27.5999 20.4004 25.9853 20.4004 23.9999C20.4004 22.0145 22.015 20.3999 24.0004 20.3999C25.9858 20.3999 27.6004 22.0145 27.6004 23.9999C27.6004 25.9853 25.9858 27.5999 24.0004 27.5999ZM24.0004 9.5999C22.015 9.5999 20.4004 7.9853 20.4004 5.9999C20.4004 4.0145 22.015 2.3999 24.0004 2.3999C25.9858 2.3999 27.6004 4.0145 27.6004 5.9999C27.6004 7.9853 25.9858 9.5999 24.0004 9.5999Z" fill="#9B9B9B"/>
</svg>
