<svg width="45" height="42" viewBox="0 0 45 42" fill="none" xmlns="http://www.w3.org/2000/svg">
<path d="M10.713 0.000102571C10.584 -0.00181952 10.4559 0.0232894 10.3361 0.0739701C10.2163 0.124651 10.1073 0.199892 10.0154 0.295322C9.92352 0.390752 9.85054 0.504467 9.80073 0.629859C9.75091 0.755251 9.72526 0.889818 9.72526 1.02574C9.72526 1.16166 9.75091 1.29623 9.80073 1.42162C9.85054 1.54701 9.92352 1.66073 10.0154 1.75616C10.1073 1.85159 10.2163 1.92683 10.3361 1.97751C10.4559 2.02819 10.584 2.0533 10.713 2.05138H34.087C34.216 2.0533 34.3441 2.02819 34.4639 1.97751C34.5837 1.92683 34.6927 1.85159 34.7846 1.75616C34.8765 1.66073 34.9495 1.54701 34.9993 1.42162C35.0491 1.29623 35.0747 1.16166 35.0747 1.02574C35.0747 0.889818 35.0491 0.755251 34.9993 0.629859C34.9495 0.504467 34.8765 0.390752 34.7846 0.295322C34.6927 0.199892 34.5837 0.124651 34.4639 0.0739701C34.3441 0.0232894 34.216 -0.00181952 34.087 0.000102571H10.713ZM5.84348 4.10266C5.71442 4.10073 5.58629 4.12584 5.46653 4.17652C5.34677 4.2272 5.23777 4.30245 5.14586 4.39788C5.05396 4.49331 4.98097 4.60702 4.93116 4.73241C4.88135 4.8578 4.85569 4.99237 4.85569 5.12829C4.85569 5.26422 4.88135 5.39879 4.93116 5.52418C4.98097 5.64957 5.05396 5.76328 5.14586 5.85871C5.23777 5.95414 5.34677 6.02939 5.46653 6.08007C5.58629 6.13075 5.71442 6.15586 5.84348 6.15393H38.9565C39.0856 6.15586 39.2137 6.13075 39.3335 6.08007C39.4532 6.02939 39.5622 5.95414 39.6541 5.85871C39.746 5.76328 39.819 5.64957 39.8688 5.52418C39.9187 5.39879 39.9443 5.26422 39.9443 5.12829C39.9443 4.99237 39.9187 4.8578 39.8688 4.73241C39.819 4.60702 39.746 4.49331 39.6541 4.39788C39.5622 4.30245 39.4532 4.2272 39.3335 4.17652C39.2137 4.12584 39.0856 4.10073 38.9565 4.10266H5.84348ZM0.973913 8.20521C0.715623 8.20524 0.46792 8.3133 0.285281 8.50564C0.102643 8.69798 2.58251e-05 8.95884 0 9.23085V40C2.58251e-05 40.272 0.102643 40.5329 0.285281 40.7252C0.46792 40.9175 0.715623 41.0256 0.973913 41.0256H43.8261C44.0844 41.0256 44.3321 40.9175 44.5147 40.7252C44.6974 40.5329 44.8 40.272 44.8 40V9.23085C44.8 8.95884 44.6974 8.69798 44.5147 8.50564C44.3321 8.3133 44.0844 8.20524 43.8261 8.20521H0.973913ZM1.94783 10.2565H42.8522V38.9744H1.94783V10.2565ZM22.4 15.3847C21.616 15.3847 21.4261 15.8657 21.4261 16.4103V25.6411C21.4261 26.7857 21.4261 27.6923 19.4783 27.6923C16.6987 27.6923 15.5826 28.9405 15.5826 30.7693C15.5826 32.001 15.8222 33.8462 19.4783 33.8462C23.1343 33.8462 23.3739 31.1303 23.3739 29.7436V21.5746C23.3739 20.8638 23.4294 20.5129 23.8228 20.5129C25.0782 20.5129 25.0783 21.5385 28.2435 21.5385C28.2435 21.5385 29.2174 21.5385 29.2174 20.5129V17.436C29.2174 16.6667 28.8678 16.4103 28.2435 16.4103C25.0783 16.4103 25.3217 15.3847 22.4 15.3847Z" fill="white"/>
</svg>
