<svg width="39" height="50" viewBox="0 0 39 50" fill="none" xmlns="http://www.w3.org/2000/svg">
<path d="M37.8981 13.0635L25.3981 0.563461C25.0365 0.201923 24.5481 0 24.0385 0H3.84615C1.72115 0 0 1.72115 0 3.84615V46.1538C0 48.2788 1.72115 50 3.84615 50H34.6154C36.7404 50 38.4615 48.2788 38.4615 46.1538V14.4231C38.4615 13.9135 38.2596 13.425 37.8981 13.0635ZM26.9231 24.9558C26.9231 25.4462 26.5538 25.8577 26.0673 25.9115L19.2308 26.6712C19.2308 31.0577 19.2308 36.0712 19.2308 36.7288C19.2308 38.3615 17.9135 40.3846 14.9058 40.3846C12.2192 40.3846 11.5423 38.6635 11.5423 37.5C11.5423 36.0712 12.4038 34.6096 14.9096 34.6096C17.1788 34.6096 17.3096 34.0327 17.3096 32.8885V23.2538C17.3096 22.6173 17.7885 22.0827 18.4212 22.0115L25.8577 21.1846C26.425 21.1231 26.9231 21.5692 26.9231 22.1423V24.9558ZM25 15.3846C23.9385 15.3846 23.0769 14.5231 23.0769 13.4615V3.66154L34.8 15.3846H25Z" fill="white"/>
</svg>
