<svg width="45" height="30" viewBox="0 0 45 30" fill="none" xmlns="http://www.w3.org/2000/svg">
<path d="M0.716797 14.3792L0.734713 14.3567L0.749918 14.3322C0.815965 14.2259 2.98678 10.7522 6.79015 7.31058C10.598 3.86489 15.9874 0.5 22.5 0.5C29.0126 0.5 34.402 3.86489 38.2099 7.31058C42.0132 10.7522 44.184 14.2259 44.2501 14.3322L44.2806 14.3813L44.3013 14.402C44.4301 14.5744 44.4999 14.784 44.5 14.9997C44.4998 15.1931 44.4435 15.3824 44.3379 15.5445L44.3313 15.5546L44.3252 15.565L44.3135 15.5846L44.3035 15.6008L44.2947 15.6178C44.2636 15.6783 42.461 19.1626 38.8319 22.6259C35.2057 26.0865 29.7852 29.5 22.5 29.5C15.184 29.5 9.74519 26.0527 6.11585 22.5722C2.53255 19.1358 0.743973 15.6947 0.699802 15.6097C0.699181 15.6085 0.698905 15.608 0.698974 15.6081L0.68366 15.5765L0.66408 15.5474L0.660933 15.5427C0.556143 15.381 0.500253 15.1926 0.5 14.9999C0.500242 14.7745 0.576636 14.5558 0.716797 14.3792ZM33.5 15C33.5 8.92486 28.5751 4 22.5 4C16.4249 4 11.5 8.92486 11.5 15C11.5 21.0751 16.4249 26 22.5 26C28.5751 26 33.5 21.0751 33.5 15ZM19.6716 12.1716C20.4217 11.4214 21.4391 11 22.5 11C23.5609 11 24.5783 11.4214 25.3284 12.1716C26.0786 12.9217 26.5 13.9391 26.5 15C26.5 16.0609 26.0786 17.0783 25.3284 17.8284C24.5783 18.5786 23.5609 19 22.5 19C21.4391 19 20.4217 18.5786 19.6716 17.8284C18.9214 17.0783 18.5 16.0609 18.5 15C18.5 13.9391 18.9214 12.9217 19.6716 12.1716Z" stroke="#9B9B9B"/>
</svg>
