<svg width="60" height="60" viewBox="0 0 60 60" fill="none" xmlns="http://www.w3.org/2000/svg">
<path d="M36 38V34C36.9 33.554 39.474 30.49 39.744 28.096C40.452 28.042 41.564 27.392 41.892 24.826C42.068 23.448 41.368 22.674 40.944 22.43C40.944 22.43 42 20.424 42 18.002C42 13.146 40.094 9.00195 36 9.00195C36 9.00195 34.578 6.00195 30 6.00195C21.516 6.00195 18 11.444 18 18.002C18 20.21 19.056 22.43 19.056 22.43C18.632 22.674 17.932 23.45 18.108 24.826C18.436 27.392 19.548 28.042 20.256 28.096C20.526 30.49 23.1 33.554 24 34V38C22 44 6 40 6 54H54C54 40 38 44 36 38Z" fill="white"/>
</svg>
