<svg width="55" height="50" viewBox="0 0 55 50" fill="none" xmlns="http://www.w3.org/2000/svg">
<path fill-rule="evenodd" clip-rule="evenodd" d="M14.8647 40.4007C20.9114 45.9423 26.4825 49.6015 26.717 49.7538C26.9673 49.9176 27.254 50 27.5415 50C27.8293 50 28.1157 49.9176 28.3672 49.7528C28.6014 49.5995 34.1686 45.9315 40.2052 40.3778C43.7685 37.0992 46.7452 33.8464 49.0539 30.709C51.9959 26.7114 53.8679 22.8711 54.6172 19.2943C54.872 18.1295 55 16.9301 55 15.729C55 15.623 54.9993 15.5188 54.9967 15.4138C54.9196 11.2969 53.358 7.43573 50.5966 4.53957C47.8064 1.61235 44.1086 0 40.1834 0C36.9572 0 33.8904 1.08242 31.3145 3.12827C29.7646 4.36009 28.4766 5.87078 27.4984 7.59036C26.5201 5.87176 25.2331 4.36303 23.6829 3.13252C21.1077 1.087 18.0415 0.00523067 14.8157 0.00523067C10.8924 0.00523067 7.19486 1.61759 4.40439 4.54349C1.64332 7.43867 0.0816596 11.3005 0.00359302 15.4164C0.00130655 15.521 0 15.6279 0 15.7335C0 16.9562 0.133268 18.1763 0.397192 19.3597C1.15924 22.9303 3.04296 26.7634 5.99414 30.7524C8.31066 33.883 11.2968 37.1293 14.8647 40.4007Z" fill="#E76E66"/>
</svg>
