<svg width="20" height="20" viewBox="0 0 20 20" fill="none" xmlns="http://www.w3.org/2000/svg">
<circle cx="10" cy="10" r="10" fill="white"/>
<path d="M10 0C4.4775 0 0 4.4775 0 10C0 15.5225 4.4775 20 10 20C15.5225 20 20 15.5225 20 10C20 4.4775 15.5225 0 10 0ZM11.1783 10C11.1783 10 13.7942 12.6158 13.9225 12.7442C14.2483 13.07 14.2483 13.5975 13.9225 13.9225C13.5967 14.2483 13.0692 14.2483 12.7442 13.9225C12.6158 13.795 10 11.1783 10 11.1783C10 11.1783 7.38417 13.7942 7.25583 13.9225C6.93 14.2483 6.4025 14.2483 6.0775 13.9225C5.75167 13.5967 5.75167 13.0692 6.0775 12.7442C6.205 12.6158 8.82167 10 8.82167 10C8.82167 10 6.20583 7.38417 6.0775 7.25583C5.75167 6.93 5.75167 6.4025 6.0775 6.0775C6.40333 5.75167 6.93083 5.75167 7.25583 6.0775C7.38417 6.205 10 8.82167 10 8.82167C10 8.82167 12.6158 6.20583 12.7442 6.0775C13.07 5.75167 13.5975 5.75167 13.9225 6.0775C14.2483 6.40333 14.2483 6.93083 13.9225 7.25583C13.795 7.38417 11.1783 10 11.1783 10Z" fill="#E76E66"/>
</svg>
