<svg width="41" height="42" viewBox="0 0 41 42" fill="none" xmlns="http://www.w3.org/2000/svg">
<path d="M16.4875 1C7.94306 1 1 7.94306 1 16.4875C1 25.032 7.94306 31.9751 16.4875 31.9751C19.8683 31.9751 22.9929 30.8861 25.5409 29.0427L37.5267 41L40.089 38.4377L28.2456 26.5658C30.573 23.8541 31.9751 20.3345 31.9751 16.4875C31.9751 7.94306 25.032 1 16.4875 1ZM16.4875 2.82206C24.0463 2.82206 30.153 8.92883 30.153 16.4875C30.153 24.0463 24.0463 30.153 16.4875 30.153C8.92882 30.153 2.82206 24.0463 2.82206 16.4875C2.82206 8.92883 8.92882 2.82206 16.4875 2.82206Z" fill="white" stroke="white"/>
</svg>
