<svg width="100" height="61" viewBox="0 0 100 61" fill="none" xmlns="http://www.w3.org/2000/svg">
<rect x="68.8477" y="0.75" width="29.4519" height="29.5345" rx="2.25" stroke="white" stroke-width="1.5"/>
<path d="M83.3923 17.5662H81.4779V22.7589H77.9414V8.0498H83.7147C85.4544 8.0498 86.8146 8.43706 87.7952 9.21158C88.7759 9.98609 89.2663 11.0805 89.2663 12.4948C89.2663 13.5186 89.058 14.3672 88.6416 15.0406C88.2319 15.7141 87.587 16.2597 86.7071 16.6772L89.77 22.6073V22.7589H85.9817L83.3923 17.5662ZM81.4779 14.8285H83.7147C84.3864 14.8285 84.8901 14.6534 85.226 14.3032C85.5686 13.9462 85.7398 13.4512 85.7398 12.8181C85.7398 12.185 85.5686 11.69 85.226 11.3331C84.8834 10.9694 84.3797 10.7875 83.7147 10.7875H81.4779V14.8285Z" fill="white"/>
<path d="M70.362 59.9999H34.8748M27.8569 52.9632V59.9999H77.38V52.9632C77.38 48.53 77.38 42.8682 77.38 38.2758M27.8569 17.3814V10.3447H63.9673H34.8748M0 35.1723H27.8569M27.8569 35.1723L20.6346 22.7585M27.8569 35.1723C27.8569 35.1723 23.4551 41.9302 20.6346 47.5861" stroke="white" stroke-width="2"/>
<path fill-rule="evenodd" clip-rule="evenodd" d="M59.1507 35.1726C59.1507 38.7357 56.2704 41.6225 52.7179 41.6225C49.1654 41.6225 46.2852 38.7357 46.2852 35.1726C46.2852 31.6106 49.1654 28.7227 52.7179 28.7227C56.2704 28.7227 59.1507 31.6106 59.1507 35.1726Z" stroke="white" stroke-width="2"/>
</svg>
