<svg width="27" height="25" viewBox="0 0 27 25" fill="none" xmlns="http://www.w3.org/2000/svg">
<path d="M7.75666 19.5843C10.5052 22.1335 13.0375 23.8167 13.1441 23.8868C13.2578 23.9621 13.3882 24 13.5189 24C13.6497 24 13.7799 23.9621 13.8942 23.8863C14.0006 23.8158 16.5312 22.1285 19.2751 19.5738C20.8948 18.0656 22.2478 16.5693 23.2972 15.1261C24.6345 13.2872 25.4854 11.5207 25.826 9.87539C25.9418 9.33957 26 8.78782 26 8.23532C26 8.1866 25.9997 8.13863 25.9985 8.09035C25.9635 6.19659 25.2536 4.42043 23.9985 3.0882C22.7302 1.74168 21.0494 1 19.2652 1C17.7987 1 16.4047 1.49791 15.2339 2.439C14.5294 3.00564 13.9439 3.70056 13.4993 4.49157C13.0546 3.70101 12.4696 3.007 11.765 2.44096C10.5944 1.50002 9.2007 1.00241 7.73439 1.00241C5.95109 1.00241 4.27039 1.74409 3.002 3.09001C1.74696 4.42179 1.03712 6.19825 1.00163 8.09156C1.00059 8.13968 1 8.18885 1 8.23743C1 8.79985 1.06058 9.36108 1.18054 9.90546C1.52693 11.5479 2.38316 13.3112 3.72461 15.1461C4.77757 16.5862 6.1349 18.0795 7.75666 19.5843" stroke="white" stroke-width="2"/>
</svg>
