<svg width="62" height="77" viewBox="0 0 62 77" fill="none" xmlns="http://www.w3.org/2000/svg">
<path d="M2.31219 76.4839H59.4205C60.1459 76.4839 60.7324 75.885 60.7324 75.1444V2.33948C60.7324 1.59883 60.1459 1 59.4205 1H2.31219C1.58676 1 1.00024 1.59883 1.00024 2.33948V75.1444C1.00024 75.885 1.58676 76.4839 2.31219 76.4839Z" stroke="#F5A623" stroke-miterlimit="10"/>
<path d="M4.64283 4.19922H57.082V73.293H4.64283V4.19922Z" stroke="#F5A623" stroke-miterlimit="10"/>
<path d="M30.8651 38.0797C34.6157 38.0797 37.6641 34.9752 37.6641 31.138C37.6641 27.3086 34.6234 24.1963 30.8651 24.1963C27.1144 24.1963 24.066 27.3007 24.066 31.138C24.0738 34.9752 27.1144 38.0797 30.8651 38.0797Z" stroke="#F5A623" stroke-miterlimit="10"/>
<path d="M30.8624 40.286C35.8092 40.286 39.8223 36.1888 39.8223 31.1381C39.8223 26.0875 35.8092 21.9902 30.8624 21.9902C25.9156 21.9902 21.9026 26.0875 21.9026 31.1381C21.9103 36.1888 25.9156 40.286 30.8624 40.286Z" stroke="#F5A623" stroke-miterlimit="10"/>
<path d="M30.8668 52.9321C42.6511 52.9321 52.2129 43.1775 52.2129 31.1379C52.2129 19.1062 42.6588 9.34375 30.8668 9.34375C19.0824 9.34375 9.52063 19.0983 9.52063 31.1379C9.52835 43.1775 19.0824 52.9321 30.8668 52.9321Z" stroke="#F5A623" stroke-miterlimit="10"/>
<path d="M19.6098 66.5011H42.5535C43.1091 66.5011 43.5645 66.0441 43.5645 65.4689V58.6533C43.5645 58.086 43.1168 57.6211 42.5535 57.6211H19.6098C19.0542 57.6211 18.5989 58.0781 18.5989 58.6533V65.4689C18.5989 66.0441 19.0542 66.5011 19.6098 66.5011Z" stroke="#F5A623" stroke-miterlimit="10"/>
</svg>
