<svg width="108" height="37" viewBox="0 0 108 37" fill="none" xmlns="http://www.w3.org/2000/svg">
<path d="M40.5766 1.28809C35.4532 1.28809 31.2993 5.44199 31.2993 10.5654C31.2993 15.6887 35.4532 19.8426 40.5766 19.8426C45.7 19.8426 49.8539 15.6887 49.8539 10.5654C49.8539 5.44199 45.7 1.28809 40.5766 1.28809ZM40.5766 7.47294C42.2844 7.47294 43.669 8.85757 43.669 10.5654C43.669 12.2732 42.2844 13.6578 40.5766 13.6578C38.8688 13.6578 37.4842 12.2732 37.4842 10.5654C37.4842 8.85757 38.8688 7.47294 40.5766 7.47294ZM40.5766 9.79225C40.3715 9.79225 40.1749 9.87371 40.0299 10.0187C39.8849 10.1637 39.8035 10.3603 39.8035 10.5654C39.8035 10.7704 39.8849 10.967 40.0299 11.112C40.1749 11.257 40.3715 11.3385 40.5766 11.3385C40.7816 11.3385 40.9783 11.257 41.1233 11.112C41.2682 10.967 41.3497 10.7704 41.3497 10.5654C41.3497 10.3603 41.2682 10.1637 41.1233 10.0187C40.9783 9.87371 40.7816 9.79225 40.5766 9.79225ZM36.8047 13.2592C37.1023 13.6751 37.4669 14.0396 37.8828 14.3373L36.0874 16.8514C35.394 16.355 34.7869 15.748 34.2906 15.0545L36.8047 13.2592Z" fill="white"/>
<circle cx="53.9772" cy="10.5658" r="10.5658" fill="white"/>
<path d="M2.38205 33.6409C1.58818 33.6409 0.998324 33.4657 0.612477 33.1154C0.231065 32.7606 0.0270536 32.204 0.0004435 31.4456C-0.00399153 31.3391 0.0248364 31.2549 0.0869267 31.1928C0.153452 31.1263 0.239935 31.093 0.346375 31.093C0.452816 31.093 0.537081 31.124 0.599172 31.1861C0.661262 31.2482 0.696742 31.3325 0.705612 31.4389C0.723352 31.9977 0.856403 32.388 1.10476 32.6098C1.35313 32.8315 1.77889 32.9424 2.38205 32.9424H4.29798C4.92775 32.9424 5.3646 32.8204 5.60853 32.5765C5.85689 32.3281 5.98107 31.8935 5.98107 31.2726C5.98107 30.6428 5.85689 30.206 5.60853 29.9621C5.3646 29.7137 4.92775 29.5895 4.29798 29.5895H2.47519C1.69462 29.5895 1.1225 29.4077 0.758833 29.044C0.395161 28.6803 0.213325 28.1104 0.213325 27.3343C0.213325 26.5582 0.392943 25.9883 0.75218 25.6246C1.11585 25.2609 1.68575 25.0791 2.46188 25.0791H4.32459C5.06967 25.0791 5.62183 25.2454 5.98107 25.578C6.34474 25.9107 6.53988 26.434 6.56649 27.148C6.57536 27.2545 6.54653 27.341 6.48001 27.4075C6.41792 27.4696 6.33144 27.5006 6.22056 27.5006C6.11856 27.5006 6.03651 27.4696 5.97442 27.4075C5.91233 27.3454 5.87685 27.2611 5.86798 27.1547C5.85024 26.6447 5.72606 26.2876 5.49543 26.0836C5.26481 25.8796 4.87453 25.7776 4.32459 25.7776H2.46188C1.88089 25.7776 1.47731 25.8929 1.25112 26.1235C1.02493 26.3497 0.91184 26.7533 0.91184 27.3343C0.91184 27.9153 1.02493 28.3211 1.25112 28.5517C1.48174 28.7779 1.88976 28.891 2.47519 28.891H4.29798C5.12289 28.891 5.72605 29.0839 6.10747 29.4698C6.48888 29.8512 6.67958 30.4521 6.67958 31.2726C6.67958 32.0931 6.48888 32.694 6.10747 33.0754C5.72605 33.4524 5.12289 33.6409 4.29798 33.6409H2.38205Z" fill="white"/>
<path d="M11.3311 33.6542C10.5018 33.6542 9.89419 33.4635 9.50834 33.0821C9.1225 32.6962 8.92957 32.0909 8.92957 31.266V29.7625C8.92957 28.9243 9.1225 28.3144 9.50834 27.933C9.89419 27.5472 10.5018 27.3587 11.3311 27.3676H12.4222C13.2515 27.3676 13.8569 27.5605 14.2383 27.9463C14.6241 28.3278 14.8171 28.9331 14.8171 29.7625V31.2526C14.8171 32.082 14.6241 32.6896 14.2383 33.0754C13.8569 33.4613 13.2515 33.6542 12.4222 33.6542H11.3311ZM9.62809 31.266C9.62809 31.8913 9.75227 32.3304 10.0006 32.5832C10.2534 32.8315 10.6969 32.9557 11.3311 32.9557H12.4222C13.0564 32.9557 13.4976 32.8315 13.746 32.5832C13.9944 32.3304 14.1185 31.8869 14.1185 31.2526V29.7625C14.1185 29.1283 13.9944 28.687 13.746 28.4386C13.4976 28.1903 13.0564 28.0661 12.4222 28.0661H11.3311C10.9054 28.0617 10.5683 28.1127 10.32 28.2191C10.0716 28.3255 9.89419 28.5029 9.78775 28.7513C9.68131 28.9997 9.62809 29.3367 9.62809 29.7625V31.266Z" fill="white"/>
<path d="M17.5983 33.6542C17.3633 33.6542 17.2457 33.5367 17.2457 33.3016V27.7135C17.2457 27.4829 17.3633 27.3676 17.5983 27.3676C17.8289 27.3676 17.9443 27.4829 17.9443 27.7135V28.3521C18.3656 27.6958 19.1284 27.3676 20.2327 27.3676H20.6053C21.4346 27.3676 22.04 27.5605 22.4214 27.9463C22.8073 28.3278 23.0002 28.9331 23.0002 29.7625V33.3016C23.0002 33.5367 22.8849 33.6542 22.6542 33.6542C22.4192 33.6542 22.3017 33.5367 22.3017 33.3016V29.7625C22.3017 29.1283 22.1753 28.687 21.9225 28.4386C21.6741 28.1903 21.235 28.0661 20.6053 28.0661H20.2327C19.5453 28.0661 19.0042 28.1747 18.6095 28.3921C18.2148 28.6094 17.993 28.9487 17.9443 29.4099V33.3016C17.9443 33.5367 17.8289 33.6542 17.5983 33.6542Z" fill="white"/>
<path d="M27.0163 36.3152C26.493 36.3152 26.0938 36.2066 25.8188 35.9893C25.5439 35.7764 25.382 35.4393 25.3332 34.9781C25.3199 34.8628 25.3443 34.7718 25.4064 34.7053C25.4685 34.6388 25.555 34.6055 25.6658 34.6055C25.7767 34.6055 25.861 34.6344 25.9186 34.692C25.9763 34.7497 26.014 34.8361 26.0317 34.9515C26.0628 35.2087 26.1537 35.3839 26.3045 35.477C26.4553 35.5701 26.6925 35.6167 27.0163 35.6167H29.491C29.8813 35.6167 30.1452 35.5457 30.2827 35.4038C30.4246 35.2619 30.4956 34.9958 30.4956 34.6055V32.7029C30.2916 33.0134 30.0033 33.2506 29.6308 33.4147C29.2582 33.5744 28.7859 33.6542 28.2138 33.6542H27.7082C26.8788 33.6542 26.2712 33.4635 25.8854 33.0821C25.4995 32.6962 25.3066 32.0909 25.3066 31.266V29.7625C25.3066 28.9243 25.4973 28.3167 25.8787 27.9397C26.2646 27.5583 26.8744 27.3676 27.7082 27.3676H28.7992C29.2338 27.3676 29.5864 27.4252 29.8569 27.5405C30.1275 27.6558 30.3404 27.8355 30.4956 28.0794V27.7135C30.4956 27.4829 30.6131 27.3676 30.8482 27.3676C31.0788 27.3676 31.1941 27.4829 31.1941 27.7135V34.6055C31.1941 35.1909 31.0566 35.6211 30.7816 35.8961C30.5067 36.1755 30.0765 36.3152 29.491 36.3152H27.0163ZM27.7082 32.9557H28.2138C28.9056 32.9557 29.4578 32.847 29.8702 32.6297C30.2871 32.4124 30.4956 32.082 30.4956 31.6385V29.4166C30.4956 28.9154 30.3559 28.565 30.0765 28.3655C29.7971 28.1659 29.3713 28.0661 28.7992 28.0661H27.7082C27.074 28.0661 26.6305 28.1903 26.3777 28.4386C26.1293 28.6826 26.0051 29.1238 26.0051 29.7625V31.266C26.0051 31.8913 26.1293 32.3304 26.3777 32.5832C26.6305 32.8315 27.074 32.9557 27.7082 32.9557Z" fill="white"/>
<path d="M35.0648 33.6409C34.5193 33.6409 34.1024 33.5256 33.8141 33.295C33.5259 33.0599 33.3529 32.7029 33.2952 32.2239C33.2819 32.1086 33.3063 32.0199 33.3684 31.9578C33.4305 31.8913 33.5214 31.858 33.6412 31.858C33.752 31.858 33.8341 31.8869 33.8873 31.9445C33.945 32.0022 33.9827 32.0887 34.0004 32.204C34.0403 32.4789 34.1401 32.6719 34.2998 32.7827C34.4639 32.8892 34.7189 32.9424 35.0648 32.9424H37.2468C37.6593 32.9424 37.9431 32.8648 38.0984 32.7096C38.2536 32.5543 38.3312 32.2705 38.3312 31.858C38.3312 31.4411 38.2536 31.1551 38.0984 30.9999C37.9431 30.8446 37.6593 30.767 37.2468 30.767H35.0914C34.5149 30.767 34.0847 30.6295 33.8008 30.3546C33.5214 30.0752 33.3817 29.6472 33.3817 29.0706C33.3817 28.4808 33.5214 28.0483 33.8008 27.7734C34.0802 27.494 34.5104 27.3543 35.0914 27.3543H37.1803C38.1826 27.3543 38.7392 27.7978 38.8501 28.6848C38.8678 28.8001 38.8434 28.891 38.7769 28.9575C38.7148 29.0196 38.6261 29.0507 38.5108 29.0507C38.3999 29.0507 38.3157 29.0218 38.258 28.9642C38.2048 28.9065 38.1671 28.8223 38.1449 28.7114C38.1139 28.463 38.023 28.2923 37.8722 28.1991C37.7258 28.1016 37.4952 28.0528 37.1803 28.0528H35.0914C34.7056 28.0528 34.4395 28.1237 34.2931 28.2657C34.1512 28.4076 34.0802 28.6759 34.0802 29.0706C34.0802 29.4476 34.1534 29.7093 34.2998 29.8556C34.4461 29.9975 34.71 30.0685 35.0914 30.0685H37.2468C37.8589 30.0685 38.309 30.2149 38.5973 30.5076C38.8856 30.7958 39.0297 31.246 39.0297 31.858C39.0297 32.4656 38.8856 32.9158 38.5973 33.2085C38.309 33.4968 37.8589 33.6409 37.2468 33.6409H35.0648Z" fill="white"/>
<path d="M46.9005 33.6409C46.1067 33.6409 45.5168 33.4657 45.131 33.1154C44.7496 32.7606 44.5456 32.204 44.5189 31.4456C44.5145 31.3391 44.5433 31.2549 44.6054 31.1928C44.6719 31.1263 44.7584 31.093 44.8649 31.093C44.9713 31.093 45.0556 31.124 45.1177 31.1861C45.1798 31.2482 45.2152 31.3325 45.2241 31.4389C45.2419 31.9977 45.3749 32.388 45.6233 32.6098C45.8716 32.8315 46.2974 32.9424 46.9005 32.9424H48.8165C49.4462 32.9424 49.8831 32.8204 50.127 32.5765C50.3754 32.3281 50.4996 31.8935 50.4996 31.2726C50.4996 30.6428 50.3754 30.206 50.127 29.9621C49.8831 29.7137 49.4462 29.5895 48.8165 29.5895H46.9937C46.2131 29.5895 45.641 29.4077 45.2773 29.044C44.9137 28.6803 44.7318 28.1104 44.7318 27.3343C44.7318 26.5582 44.9114 25.9883 45.2707 25.6246C45.6344 25.2609 46.2042 25.0791 46.9804 25.0791H48.8431C49.5882 25.0791 50.1403 25.2454 50.4996 25.578C50.8632 25.9107 51.0584 26.434 51.085 27.148C51.0939 27.2545 51.065 27.341 50.9985 27.4075C50.9364 27.4696 50.8499 27.5006 50.7391 27.5006C50.6371 27.5006 50.555 27.4696 50.4929 27.4075C50.4308 27.3454 50.3953 27.2611 50.3865 27.1547C50.3687 26.6447 50.2446 26.2876 50.0139 26.0836C49.7833 25.8796 49.393 25.7776 48.8431 25.7776H46.9804C46.3994 25.7776 45.9958 25.8929 45.7696 26.1235C45.5434 26.3497 45.4303 26.7533 45.4303 27.3343C45.4303 27.9153 45.5434 28.3211 45.7696 28.5517C46.0002 28.7779 46.4083 28.891 46.9937 28.891H48.8165C49.6414 28.891 50.2446 29.0839 50.626 29.4698C51.0074 29.8512 51.1981 30.4521 51.1981 31.2726C51.1981 32.0931 51.0074 32.694 50.626 33.0754C50.2446 33.4524 49.6414 33.6409 48.8165 33.6409H46.9005Z" fill="white"/>
<path d="M56.1956 33.6542C55.3795 33.6542 54.783 33.4657 54.406 33.0887C54.0291 32.7118 53.8406 32.1175 53.8406 31.3059V28.0661H53.0489C52.8139 28.0661 52.6963 27.9486 52.6963 27.7135C52.6963 27.4829 52.8139 27.3676 53.0489 27.3676H53.8406V25.9373C53.8406 25.7022 53.9559 25.5847 54.1865 25.5847C54.4216 25.5847 54.5391 25.7022 54.5391 25.9373V27.3676H56.2089C56.4395 27.3676 56.5548 27.4829 56.5548 27.7135C56.5548 27.9486 56.4395 28.0661 56.2089 28.0661H54.5391V31.3059C54.5391 31.9268 54.6588 32.357 54.8983 32.5965C55.1423 32.836 55.5747 32.9557 56.1956 32.9557C56.3242 32.9557 56.4151 32.9845 56.4683 33.0422C56.526 33.0998 56.5548 33.1863 56.5548 33.3016C56.5548 33.5367 56.4351 33.6542 56.1956 33.6542Z" fill="white"/>
<path d="M59.9825 33.6542C59.2906 33.6542 58.7828 33.4946 58.4591 33.1752C58.1397 32.8515 57.9801 32.3437 57.9801 31.6518C57.9801 30.9599 58.142 30.4521 58.4657 30.1284C58.7895 29.8046 59.2951 29.6427 59.9825 29.6427H63.0094C63.0005 29.0573 62.8675 28.6493 62.6102 28.4187C62.3575 28.1836 61.925 28.0661 61.313 28.0661H60.5413C59.9781 28.0661 59.5656 28.126 59.3039 28.2457C59.0423 28.3655 58.8804 28.5695 58.8183 28.8577C58.7873 28.9686 58.7451 29.0507 58.6919 29.1039C58.6431 29.1527 58.5633 29.1771 58.4524 29.1771C58.3371 29.1771 58.2462 29.146 58.1797 29.0839C58.1176 29.0174 58.0954 28.9287 58.1131 28.8178C58.1708 28.3122 58.3992 27.9441 58.7984 27.7135C59.2019 27.4829 59.7829 27.3676 60.5413 27.3676H61.313C62.1424 27.3676 62.7477 27.5605 63.1291 27.9463C63.515 28.3278 63.7079 28.9331 63.7079 29.7625V33.3016C63.7079 33.5367 63.5926 33.6542 63.362 33.6542C63.1269 33.6542 63.0094 33.5367 63.0094 33.3016V32.643C62.5836 33.3172 61.823 33.6542 60.7276 33.6542H59.9825ZM59.9825 32.9557H60.7276C61.1578 32.9557 61.5348 32.9091 61.8585 32.816C62.1867 32.7184 62.4506 32.5632 62.6502 32.3503C62.8497 32.1374 62.9695 31.8536 63.0094 31.4988V30.3413H59.9825C59.4902 30.3413 59.1487 30.4366 58.958 30.6273C58.7717 30.8136 58.6786 31.1551 58.6786 31.6518C58.6786 32.1441 58.7717 32.4856 58.958 32.6763C59.1487 32.8626 59.4902 32.9557 59.9825 32.9557Z" fill="white"/>
<path d="M66.5503 33.6542C66.3152 33.6542 66.1977 33.5367 66.1977 33.3016V27.7135C66.1977 27.4829 66.3152 27.3676 66.5503 27.3676C66.7809 27.3676 66.8962 27.4829 66.8962 27.7135V28.738C67.1268 28.2945 67.4595 27.9552 67.8941 27.7202C68.3332 27.4851 68.8521 27.3676 69.4508 27.3676C69.6859 27.3676 69.8034 27.4829 69.8034 27.7135C69.8034 27.9486 69.6859 28.0661 69.4508 28.0661C68.6614 28.0661 68.0493 28.2457 67.6147 28.6049C67.1801 28.9597 66.9406 29.4676 66.8962 30.1284V33.3016C66.8962 33.5367 66.7809 33.6542 66.5503 33.6542Z" fill="white"/>
<path d="M73.9007 33.6542C73.0846 33.6542 72.4881 33.4657 72.1112 33.0887C71.7342 32.7118 71.5457 32.1175 71.5457 31.3059V28.0661H70.754C70.519 28.0661 70.4015 27.9486 70.4015 27.7135C70.4015 27.4829 70.519 27.3676 70.754 27.3676H71.5457V25.9373C71.5457 25.7022 71.661 25.5847 71.8916 25.5847C72.1267 25.5847 72.2442 25.7022 72.2442 25.9373V27.3676H73.914C74.1446 27.3676 74.2599 27.4829 74.2599 27.7135C74.2599 27.9486 74.1446 28.0661 73.914 28.0661H72.2442V31.3059C72.2442 31.9268 72.364 32.357 72.6034 32.5965C72.8474 32.836 73.2798 32.9557 73.9007 32.9557C74.0293 32.9557 74.1202 32.9845 74.1734 33.0422C74.2311 33.0998 74.2599 33.1863 74.2599 33.3016C74.2599 33.5367 74.1402 33.6542 73.9007 33.6542Z" fill="white"/>
<path d="M80.0326 33.6542C79.9262 33.6542 79.8397 33.6232 79.7732 33.5611C79.7111 33.4946 79.68 33.4081 79.68 33.3016V25.4317C79.68 25.3252 79.7111 25.241 79.7732 25.1789C79.8397 25.1124 79.9262 25.0791 80.0326 25.0791C80.1391 25.0791 80.2233 25.1124 80.2854 25.1789C80.3475 25.241 80.3785 25.3252 80.3785 25.4317V28.9575H85.96V25.4317C85.96 25.3252 85.9911 25.241 86.0532 25.1789C86.1152 25.1124 86.1995 25.0791 86.306 25.0791C86.4124 25.0791 86.4967 25.1124 86.5587 25.1789C86.6253 25.241 86.6585 25.3252 86.6585 25.4317V33.3016C86.6585 33.4081 86.6253 33.4946 86.5587 33.5611C86.4967 33.6232 86.4124 33.6542 86.306 33.6542C86.1995 33.6542 86.1152 33.6232 86.0532 33.5611C85.9911 33.4946 85.96 33.4081 85.96 33.3016V29.656H80.3785V33.3016C80.3785 33.4081 80.3475 33.4946 80.2854 33.5611C80.2233 33.6232 80.1391 33.6542 80.0326 33.6542Z" fill="white"/>
<path d="M89.7907 30.7803V31.266C89.7907 31.8913 89.9149 32.3304 90.1633 32.5832C90.4161 32.8315 90.8596 32.9557 91.4938 32.9557H92.5848C93.1436 32.9557 93.5494 32.8847 93.8022 32.7428C94.0594 32.5965 94.2124 32.3459 94.2612 31.9911C94.279 31.8802 94.3144 31.7959 94.3677 31.7383C94.4253 31.6806 94.5118 31.6518 94.6271 31.6518C94.7424 31.6518 94.8289 31.6851 94.8866 31.7516C94.9486 31.8137 94.973 31.9024 94.9597 32.0177C94.9021 32.5765 94.6781 32.989 94.2878 33.2551C93.8975 33.5212 93.3299 33.6542 92.5848 33.6542H91.4938C90.6644 33.6542 90.0568 33.4635 89.671 33.0821C89.2851 32.6962 89.0922 32.0909 89.0922 31.266V29.7625C89.0922 28.9243 89.2851 28.3144 89.671 27.933C90.0568 27.5472 90.6644 27.3587 91.4938 27.3676H92.5848C93.4141 27.3676 94.0195 27.5605 94.4009 27.9463C94.7868 28.3278 94.9797 28.9331 94.9797 29.7625V30.4277C94.9797 30.6628 94.8644 30.7803 94.6338 30.7803H89.7907ZM91.4938 28.0661C90.8596 28.0572 90.4161 28.1792 90.1633 28.432C89.9149 28.6803 89.7907 29.1238 89.7907 29.7625V30.0818H94.2812V29.7625C94.2812 29.1283 94.157 28.687 93.9086 28.4386C93.6603 28.1903 93.219 28.0661 92.5848 28.0661H91.4938Z" fill="white"/>
<path d="M97.7609 33.6542C97.5259 33.6542 97.4084 33.5367 97.4084 33.3016V27.7135C97.4084 27.4829 97.5259 27.3676 97.7609 27.3676C97.9916 27.3676 98.1069 27.4829 98.1069 27.7135V28.738C98.3375 28.2945 98.6701 27.9552 99.1048 27.7202C99.5438 27.4851 100.063 27.3676 100.661 27.3676C100.897 27.3676 101.014 27.4829 101.014 27.7135C101.014 27.9486 100.897 28.0661 100.661 28.0661C99.872 28.0661 99.26 28.2457 98.8253 28.6049C98.3907 28.9597 98.1512 29.4676 98.1069 30.1284V33.3016C98.1069 33.5367 97.9916 33.6542 97.7609 33.6542Z" fill="white"/>
<path d="M102.803 30.7803V31.266C102.803 31.8913 102.927 32.3304 103.175 32.5832C103.428 32.8315 103.871 32.9557 104.506 32.9557H105.597C106.155 32.9557 106.561 32.8847 106.814 32.7428C107.071 32.5965 107.224 32.3459 107.273 31.9911C107.291 31.8802 107.326 31.7959 107.379 31.7383C107.437 31.6806 107.524 31.6518 107.639 31.6518C107.754 31.6518 107.841 31.6851 107.898 31.7516C107.96 31.8137 107.985 31.9024 107.972 32.0177C107.914 32.5765 107.69 32.989 107.3 33.2551C106.909 33.5212 106.342 33.6542 105.597 33.6542H104.506C103.676 33.6542 103.069 33.4635 102.683 33.0821C102.297 32.6962 102.104 32.0909 102.104 31.266V29.7625C102.104 28.9243 102.297 28.3144 102.683 27.933C103.069 27.5472 103.676 27.3587 104.506 27.3676H105.597C106.426 27.3676 107.031 27.5605 107.413 27.9463C107.799 28.3278 107.991 28.9331 107.991 29.7625V30.4277C107.991 30.6628 107.876 30.7803 107.646 30.7803H102.803ZM104.506 28.0661C103.871 28.0572 103.428 28.1792 103.175 28.432C102.927 28.6803 102.803 29.1238 102.803 29.7625V30.0818H107.293V29.7625C107.293 29.1283 107.169 28.687 106.92 28.4386C106.672 28.1903 106.231 28.0661 105.597 28.0661H104.506Z" fill="white"/>
<circle cx="53.8828" cy="10.8438" r="9.27832" fill="black"/>
<path d="M55.4423 6.40723C54.9375 6.40723 54.4534 6.60471 54.0965 6.95623C53.7396 7.30775 53.5391 7.78451 53.5391 8.28164C53.5391 8.77876 53.7396 9.25552 54.0965 9.60704C54.4534 9.95856 54.9375 10.156 55.4423 10.156C55.9471 10.156 56.4312 9.95856 56.7881 9.60704C57.145 9.25552 57.3456 8.77876 57.3456 8.28164C57.3456 7.78451 57.145 7.30775 56.7881 6.95623C56.4312 6.60471 55.9471 6.40723 55.4423 6.40723ZM50.2084 9.68744C50.0262 9.68759 49.8458 9.72208 49.6768 9.78903L47.3535 10.6246V14.3735L49.3618 13.5141C49.5987 13.4128 49.8668 13.4093 50.1062 13.5058L54.4191 15.2411H54.421C54.517 15.2866 54.6221 15.3104 54.7286 15.3107C54.8518 15.3102 54.9728 15.2784 55.0799 15.2182H55.0827L59.3585 12.8789L59.3575 12.878C59.4686 12.8172 59.5612 12.7283 59.6257 12.6205C59.6903 12.5127 59.7244 12.3899 59.7246 12.2648C59.7246 12.0783 59.6494 11.8995 59.5156 11.7677C59.3817 11.6359 59.2002 11.5619 59.0109 11.5619C58.9061 11.5622 58.8026 11.5854 58.7079 11.6296V11.6287L55.4423 12.9677H54.7286C54.9179 12.9677 55.0994 12.8936 55.2333 12.7618C55.3671 12.63 55.4423 12.4512 55.4423 12.2648C55.4423 12.1165 55.3946 11.972 55.3061 11.852C55.2177 11.732 55.0929 11.6426 54.9498 11.5966V11.5957L50.8134 9.81924H50.8078C50.6201 9.73299 50.4155 9.68802 50.2084 9.68744Z" fill="white"/>
<circle cx="69.4393" cy="10.5658" r="10.5658" fill="white"/>
<path d="M78.7166 10.5655C78.7166 5.44212 74.5627 1.28822 69.4393 1.28822C64.3159 1.28822 60.162 5.44212 60.162 10.5655C60.162 15.6889 64.3159 19.8428 69.4393 19.8428C74.5627 19.8428 78.7166 15.6889 78.7166 10.5655ZM68.8927 14.2045L65.0342 9.56587C64.8834 9.41512 64.8077 9.2172 64.8077 9.01929C64.8077 8.82137 64.8834 8.62345 65.0342 8.4727C65.3365 8.17041 65.8251 8.17041 66.1274 8.4727L69.4393 12.5648L72.4694 8.4727C72.7717 8.17042 73.2603 8.17042 73.5625 8.4727C73.8648 8.77498 73.8648 9.26359 73.5625 9.56587L69.9859 14.2045C69.6836 14.5068 69.195 14.5068 68.8927 14.2045Z" fill="black"/>
</svg>
