<svg width="40" height="16" viewBox="0 0 40 16" fill="none" xmlns="http://www.w3.org/2000/svg">
<path d="M9.81367 0C9.1962 0 8.69565 0.500551 8.69565 1.11801C8.69565 1.73547 9.1962 2.23603 9.81366 2.23603H38.882C39.4994 2.23603 40 1.73547 40 1.11801C40 0.500551 39.4994 0 38.882 0H9.81367ZM1.11801 6.70808C0.500552 6.70808 0 7.20863 0 7.82609C0 8.44355 0.500551 8.9441 1.11801 8.9441H30.1863C30.8038 8.9441 31.3043 8.44355 31.3043 7.82609C31.3043 7.20863 30.8038 6.70808 30.1863 6.70808H1.11801ZM9.81367 13.4162C9.1962 13.4162 8.69565 13.9167 8.69565 14.5342C8.69565 15.1516 9.1962 15.6522 9.81366 15.6522H38.882C39.4994 15.6522 40 15.1516 40 14.5342C40 13.9167 39.4994 13.4162 38.882 13.4162H9.81367Z" fill="white"/>
</svg>
