<svg width="36" height="28" viewBox="0 0 36 28" fill="none" xmlns="http://www.w3.org/2000/svg">
<path fill-rule="evenodd" clip-rule="evenodd" d="M9.83019 10.3209L1.98113 18.1699L9.83019 26.019L17.6792 18.1699L9.83019 10.3209ZM1 18.1699L9.83019 27.0001L18.6604 18.1699L9.83019 9.33973L1 18.1699Z" fill="white" stroke="white" stroke-width="0.5"/>
<path fill-rule="evenodd" clip-rule="evenodd" d="M18.17 1.98102L10.321 9.83008L18.17 17.6791L26.0191 9.83008L18.17 1.98102ZM9.33984 9.83008L18.17 18.6603L27.0002 9.83008L18.17 0.999889L9.33984 9.83008Z" fill="white" stroke="white" stroke-width="0.5"/>
<path fill-rule="evenodd" clip-rule="evenodd" d="M26.5094 10.3209L18.6603 18.1699L26.5094 26.019L34.3584 18.1699L26.5094 10.3209ZM17.6792 18.1699L26.5094 27.0001L35.3396 18.1699L26.5094 9.33973L17.6792 18.1699Z" fill="white" stroke="white" stroke-width="0.5"/>
</svg>
