<svg width="168" height="34" viewBox="0 0 168 34" fill="none" xmlns="http://www.w3.org/2000/svg">
<path d="M69.413 4.26345H59.5421V30.425H58.5364V4.26345H48.6655V3.25581H69.413V4.26345Z" fill="white"/>
<path d="M80.6173 10.9624L79.3136 10.8505C77.6002 10.8505 76.1661 11.4103 75.0114 12.5299C73.8567 13.6371 73.0993 15.1921 72.7393 17.1949V30.425H71.7335V10.2347H72.7393V14.4332C73.2856 13.0275 74.105 11.9141 75.1977 11.0931C76.2903 10.272 77.6623 9.8615 79.3136 9.8615C79.8972 9.8615 80.369 9.92992 80.7291 10.0668L80.6173 10.9624Z" fill="white"/>
<path d="M97.5282 30.425C97.2798 29.5666 97.1557 28.3351 97.1557 26.7303C96.361 28.0241 95.2746 29.0255 93.8964 29.7346C92.5182 30.4436 90.96 30.7982 89.2217 30.7982C87.3593 30.7982 85.8569 30.2944 84.7147 29.2867C83.5848 28.2666 83.0199 26.9418 83.0199 25.3121C83.0199 23.4585 83.8517 21.9782 85.5155 20.871C87.1917 19.7514 89.4142 19.1791 92.183 19.1543H97.1557V16.206C97.1557 14.5141 96.6218 13.2017 95.554 12.2687C94.4986 11.3357 92.9838 10.8691 91.0097 10.8691C89.1721 10.8691 87.6387 11.3419 86.4095 12.2873C85.1803 13.2328 84.5657 14.4021 84.5657 15.7954L83.56 15.7581C83.56 14.116 84.2801 12.7227 85.7204 11.5782C87.1606 10.4337 88.9237 9.8615 91.0097 9.8615C93.1825 9.8615 94.9083 10.4089 96.1872 11.5036C97.4661 12.5859 98.1241 14.116 98.1614 16.094V25.7413C98.1614 27.9556 98.3352 29.4609 98.6829 30.257V30.425H97.5282ZM89.2217 29.8092C91.109 29.8092 92.7293 29.3862 94.0827 28.5403C95.4484 27.6944 96.4728 26.5064 97.1557 24.9762V20.1806H92.4996C89.619 20.1806 87.4152 20.7528 85.888 21.8973C84.6464 22.8303 84.0256 23.9935 84.0256 25.3867C84.0256 26.6183 84.516 27.6633 85.4969 28.5217C86.4778 29.38 87.7194 29.8092 89.2217 29.8092Z" fill="white"/>
<path d="M111.496 29.7905C113.322 29.7905 114.824 29.3054 116.003 28.3351C117.195 27.3647 117.847 26.0212 117.959 24.3045H118.965C118.865 26.2576 118.114 27.8312 116.711 29.0255C115.308 30.2073 113.57 30.7982 111.496 30.7982C108.976 30.7982 106.971 29.8838 105.481 28.0552C104.003 26.2265 103.264 23.7447 103.264 20.6098V19.938C103.264 16.8777 104.003 14.4332 105.481 12.6045C106.971 10.7758 108.963 9.8615 111.459 9.8615C113.595 9.8615 115.358 10.5022 116.748 11.7835C118.139 13.0648 118.878 14.7691 118.965 16.8964H117.959C117.872 15.0801 117.233 13.6246 116.041 12.5299C114.861 11.4227 113.334 10.8691 111.459 10.8691C109.212 10.8691 107.449 11.684 106.17 13.3136C104.903 14.9308 104.27 17.1825 104.27 20.0686V20.7217C104.27 23.5456 104.91 25.7662 106.188 27.3834C107.48 28.9882 109.249 29.7905 111.496 29.7905Z" fill="white"/>
<path d="M127.997 19.5088L127.96 19.5461L125.036 22.0652V30.425H124.03V1.76299H125.036V20.9643L127.401 18.7251L136.565 10.2347H137.999L128.742 18.837L138.576 30.425H137.272L127.997 19.5088Z" fill="white"/>
<path d="M140.792 20.1246C140.792 16.9026 141.469 14.3897 142.822 12.5859C144.176 10.7696 146.032 9.8615 148.391 9.8615C149.906 9.8615 151.241 10.2036 152.395 10.8878C153.562 11.572 154.506 12.5921 155.226 13.9481V1.76299H156.232V30.425H155.226V27.1968C154.543 28.3413 153.606 29.2307 152.414 29.8652C151.222 30.4872 149.869 30.7982 148.354 30.7982C146.02 30.7982 144.176 29.8714 142.822 28.0178C141.469 26.1643 140.792 23.6203 140.792 20.3858V20.1246ZM141.835 20.5164C141.835 23.3777 142.4 25.6418 143.53 27.3087C144.66 28.9633 146.262 29.7905 148.335 29.7905C149.999 29.7905 151.421 29.4236 152.6 28.6896C153.78 27.9432 154.655 26.8547 155.226 25.4241V15.9634C154.071 12.5672 151.787 10.8691 148.372 10.8691C146.311 10.8691 144.703 11.684 143.549 13.3136C142.406 14.9433 141.835 17.3442 141.835 20.5164Z" fill="white"/>
<path d="M160.945 4.7171C160.945 4.047 161.099 3.42499 161.406 2.85109C161.718 2.27718 162.146 1.82602 162.693 1.4976C163.242 1.16587 163.835 1 164.471 1C165.107 1 165.698 1.16587 166.244 1.4976C166.793 1.82602 167.222 2.27718 167.53 2.85109C167.841 3.42499 167.997 4.047 167.997 4.7171C167.997 5.37726 167.846 5.99263 167.545 6.56321C167.244 7.1338 166.818 7.5916 166.269 7.9366C165.722 8.27829 165.123 8.44913 164.471 8.44913C163.819 8.44913 163.218 8.27829 162.668 7.9366C162.122 7.5916 161.698 7.1338 161.397 6.56321C161.095 5.99263 160.945 5.37726 160.945 4.7171ZM161.218 4.7171C161.218 5.33413 161.362 5.90969 161.65 6.44379C161.938 6.97457 162.334 7.39587 162.837 7.7077C163.34 8.01954 163.885 8.17545 164.471 8.17545C165.054 8.17545 165.597 8.01954 166.1 7.7077C166.603 7.39587 166.999 6.97457 167.287 6.44379C167.575 5.90969 167.719 5.33413 167.719 4.7171C167.719 4.09676 167.575 3.52285 167.287 2.99539C166.999 2.46461 166.601 2.04497 166.095 1.73645C165.592 1.42794 165.05 1.27368 164.471 1.27368C163.888 1.27368 163.343 1.42794 162.837 1.73645C162.334 2.04497 161.938 2.46461 161.65 2.99539C161.362 3.52285 161.218 4.09676 161.218 4.7171ZM163.592 4.97088V6.72245H163.319V2.59233H164.506C165.462 2.59233 165.941 2.99042 165.941 3.78658C165.941 4.26428 165.688 4.60597 165.181 4.81165C165.618 4.94102 165.837 5.28603 165.837 5.84666C165.837 6.21489 165.865 6.48028 165.921 6.64283V6.72245H165.628C165.582 6.60302 165.558 6.31109 165.558 5.84666C165.558 5.54147 165.494 5.32086 165.365 5.18485C165.239 5.04884 165.02 4.97752 164.709 4.97088H163.592ZM163.592 4.69222H164.61C164.928 4.69222 165.183 4.60929 165.375 4.44342C165.57 4.27424 165.668 4.05363 165.668 3.78161C165.668 3.45651 165.582 3.22429 165.409 3.08496C165.241 2.94563 164.962 2.87265 164.575 2.86602H163.592V4.69222Z" fill="white"/>
<path d="M0 22.3833L11.2675 11.1158L22.535 22.3833L11.2675 33.6508L0 22.3833Z" fill="#F2B471"/>
<path d="M11.1138 11.2676L22.3812 0.000101877L33.6487 11.2676L22.3812 22.5351L11.1138 11.2676Z" fill="#00AFDC"/>
<path d="M22.3809 22.5352L33.6483 11.2677L44.9158 22.5352L33.6483 33.8026L22.3809 22.5352Z" fill="#E76D66"/>
</svg>
