<svg width="37" height="28" viewBox="0 0 37 28" fill="none" xmlns="http://www.w3.org/2000/svg">
<path fill-rule="evenodd" clip-rule="evenodd" d="M10 10.5L2 18.5L10 26.5L18 18.5L10 10.5ZM1 18.5L10 27.5L19 18.5L10 9.5L1 18.5Z" fill="white" stroke="white" stroke-width="0.5"/>
<path fill-rule="evenodd" clip-rule="evenodd" d="M18.5 2L10.5 10L18.5 18L26.5 10L18.5 2ZM9.5 10L18.5 19L27.5 10L18.5 1L9.5 10Z" fill="white" stroke="white" stroke-width="0.5"/>
<path fill-rule="evenodd" clip-rule="evenodd" d="M27 10.5L19 18.5L27 26.5L35 18.5L27 10.5ZM18 18.5L27 27.5L36 18.5L27 9.5L18 18.5Z" fill="white" stroke="white" stroke-width="0.5"/>
</svg>
