<svg width="168" height="54" viewBox="0 0 168 54" fill="none" xmlns="http://www.w3.org/2000/svg">
<path d="M9.0344 50.9581C9.0344 50.4471 8.91366 50.0156 8.67219 49.6639C8.43621 49.3067 8.06028 48.9934 7.54441 48.7242C7.03403 48.4494 6.26022 48.1691 5.223 47.8833C4.18577 47.5975 3.40648 47.309 2.88512 47.0178C2.36925 46.7265 1.99058 46.3885 1.74911 46.0038C1.50764 45.6191 1.3869 45.152 1.3869 44.6024C1.3869 43.7286 1.7546 43.0224 2.48999 42.4838C3.22537 41.9398 4.18303 41.6677 5.36294 41.6677C6.13126 41.6677 6.82 41.8189 7.42916 42.1211C8.04382 42.4179 8.51853 42.8383 8.85329 43.3824C9.18806 43.9209 9.35544 44.531 9.35544 45.2124H8.91092C8.91092 44.3166 8.58164 43.5775 7.92308 42.9949C7.26452 42.4069 6.41114 42.1129 5.36294 42.1129C4.30925 42.1129 3.45587 42.3492 2.8028 42.8218C2.15522 43.2889 1.83143 43.877 1.83143 44.5859C1.83143 45.3059 2.11406 45.8856 2.67932 46.3253C3.24458 46.765 4.17754 47.1551 5.47819 47.4959C6.77884 47.8311 7.731 48.2213 8.33468 48.6665C9.103 49.2325 9.48715 49.9909 9.48715 50.9417C9.48715 51.5462 9.31703 52.082 8.97677 52.5491C8.63652 53.0108 8.15358 53.368 7.52795 53.6208C6.90232 53.8736 6.19986 54 5.42056 54C4.55346 54 3.77417 53.8571 3.08269 53.5713C2.3912 53.2801 1.86984 52.8679 1.51861 52.3348C1.17287 51.8017 1 51.1725 1 50.4471H1.44453C1.44453 51.4308 1.81222 52.1947 2.54761 52.7387C3.283 53.2828 4.24065 53.5549 5.42056 53.5549C6.46877 53.5549 7.33312 53.3158 8.01363 52.8377C8.69414 52.354 9.0344 51.7275 9.0344 50.9581Z" fill="white"/>
<path d="M10.9277 49.2023C10.9277 48.3505 11.0896 47.5866 11.4134 46.9106C11.7427 46.2291 12.2037 45.6988 12.7964 45.3196C13.3946 44.9404 14.0696 44.7508 14.8215 44.7508C15.5678 44.7508 16.2374 44.9349 16.8301 45.3031C17.4228 45.6713 17.8838 46.1934 18.213 46.8694C18.5478 47.5453 18.7179 48.3065 18.7234 49.1528V49.5485C18.7234 50.4058 18.5615 51.1725 18.2377 51.8484C17.9139 52.5244 17.4529 53.052 16.8548 53.4312C16.2621 53.8104 15.5898 54 14.8379 54C14.0861 54 13.4111 53.8131 12.8129 53.4394C12.2202 53.0657 11.7592 52.5436 11.4299 51.8732C11.1006 51.1972 10.9332 50.4388 10.9277 49.598V49.2023ZM11.3723 49.5485C11.3723 50.2904 11.5177 50.9719 11.8086 51.5929C12.1049 52.2084 12.5138 52.6893 13.0351 53.0355C13.562 53.3817 14.1629 53.5549 14.8379 53.5549C15.8532 53.5549 16.6791 53.1729 17.3158 52.409C17.9578 51.6451 18.2789 50.6614 18.2789 49.4578V49.2023C18.2789 48.4714 18.1307 47.7954 17.8344 47.1744C17.538 46.5534 17.1264 46.0698 16.5996 45.7235C16.0782 45.3718 15.4855 45.1959 14.8215 45.1959C13.8062 45.1959 12.9775 45.5834 12.3354 46.3583C11.6933 47.1332 11.3723 48.1086 11.3723 49.2847V49.5485Z" fill="white"/>
<path d="M23.9096 53.5549C24.7163 53.5549 25.3803 53.3405 25.9017 52.9119C26.4285 52.4832 26.7167 51.8897 26.766 51.1313H27.2106C27.1667 51.9941 26.8346 52.6893 26.2145 53.2169C25.5944 53.739 24.826 54 23.9096 54C22.7955 54 21.9092 53.5961 21.2506 52.7882C20.5976 51.9803 20.271 50.884 20.271 49.499V49.2023C20.271 47.8503 20.5976 46.7705 21.2506 45.9626C21.9092 45.1547 22.79 44.7508 23.8931 44.7508C24.837 44.7508 25.6163 45.0338 26.231 45.5999C26.8456 46.1659 27.1722 46.9188 27.2106 47.8586H26.766C26.7276 47.0562 26.445 46.4132 25.9182 45.9296C25.3968 45.4405 24.7218 45.1959 23.8931 45.1959C22.8998 45.1959 22.1205 45.5559 21.5552 46.2758C20.9954 46.9903 20.7156 47.985 20.7156 49.26V49.5485C20.7156 50.796 20.9982 51.777 21.5634 52.4914C22.1342 53.2004 22.9162 53.5549 23.9096 53.5549Z" fill="white"/>
<path d="M30.0012 53.8351H29.5567V44.9157H30.0012V53.8351ZM29.3262 42.1294C29.3262 42.003 29.3701 41.8958 29.4579 41.8079C29.5457 41.7144 29.6527 41.6677 29.7789 41.6677C29.9052 41.6677 30.0122 41.7144 30.1 41.8079C30.1933 41.8958 30.2399 42.003 30.2399 42.1294C30.2399 42.2558 30.1933 42.3629 30.1 42.4509C30.0122 42.5388 29.9052 42.5828 29.7789 42.5828C29.6527 42.5828 29.5457 42.5388 29.4579 42.4509C29.3701 42.3629 29.3262 42.2558 29.3262 42.1294Z" fill="white"/>
<path d="M38.6777 53.8351C38.5679 53.4559 38.5131 52.9119 38.5131 52.2029C38.1618 52.7745 37.6816 53.2169 37.0725 53.5301C36.4633 53.8434 35.7746 54 35.0062 54C34.183 54 33.519 53.7774 33.0141 53.3323C32.5147 52.8816 32.265 52.2963 32.265 51.5764C32.265 50.7576 32.6327 50.1036 33.3681 49.6145C34.109 49.1198 35.0913 48.867 36.3151 48.8561H38.5131V47.5536C38.5131 46.8062 38.2771 46.2264 37.8051 45.8142C37.3386 45.402 36.6691 45.1959 35.7965 45.1959C34.9843 45.1959 34.3065 45.4048 33.7632 45.8224C33.2199 46.2401 32.9482 46.7567 32.9482 47.3722L32.5037 47.3557C32.5037 46.6303 32.822 46.0148 33.4586 45.5092C34.0952 45.0036 34.8745 44.7508 35.7965 44.7508C36.7569 44.7508 37.5197 44.9926 38.085 45.4762C38.6503 45.9543 38.9411 46.6303 38.9576 47.5041V51.766C38.9576 52.7442 39.0344 53.4092 39.1881 53.7609V53.8351H38.6777ZM35.0062 53.5631C35.8404 53.5631 36.5566 53.3762 37.1548 53.0025C37.7585 52.6288 38.2112 52.104 38.5131 51.428V49.3094H36.4551C35.1819 49.3094 34.2077 49.5622 33.5327 50.0679C32.9839 50.48 32.7095 50.9939 32.7095 51.6094C32.7095 52.1535 32.9263 52.6151 33.3598 52.9943C33.7934 53.3735 34.3422 53.5631 35.0062 53.5631Z" fill="white"/>
<path d="M42.3821 53.8351H41.9376V41.1731H42.3821V53.8351Z" fill="white"/>
<path d="M50.2024 41.8326L55.1334 53.1839L60.0808 41.8326H60.7311V53.8351H60.2866V42.4921L55.3145 53.8351H54.9605L50.0131 42.5498V53.8351H49.5686V41.8326H50.2024Z" fill="white"/>
<path d="M69.7616 53.8351V52.3925C69.4982 52.8871 69.114 53.2801 68.6091 53.5713C68.1042 53.8571 67.4649 54 66.6911 54C65.7197 54 64.9898 53.717 64.5014 53.1509C64.0184 52.5794 63.7715 51.7495 63.7605 50.6614V44.9157H64.205V50.6779C64.216 51.6231 64.43 52.3403 64.8471 52.8294C65.2642 53.313 65.8734 53.5549 66.6746 53.5549C67.5252 53.5549 68.2167 53.3543 68.7491 52.9531C69.2814 52.5519 69.6189 51.9639 69.7616 51.189V44.9157H70.2143V53.8351H69.7616Z" fill="white"/>
<path d="M78.5204 51.6506C78.5204 50.568 77.5984 49.8315 75.7545 49.4413C74.6459 49.205 73.8748 48.9028 73.4413 48.5346C73.0077 48.1609 72.7909 47.6498 72.7909 47.0013C72.7909 46.3473 73.0653 45.8087 73.6141 45.3855C74.1684 44.9624 74.8874 44.7508 75.7709 44.7508C76.7313 44.7508 77.5024 44.9816 78.0841 45.4432C78.6658 45.8994 78.9567 46.5176 78.9567 47.298H78.5039C78.5039 46.699 78.2515 46.1989 77.7466 45.7977C77.2417 45.3965 76.5831 45.1959 75.7709 45.1959C74.9916 45.1959 74.3742 45.3663 73.9187 45.707C73.4632 46.0478 73.2355 46.4737 73.2355 46.9848C73.2355 47.386 73.3205 47.702 73.4907 47.9328C73.6608 48.1581 73.9379 48.3642 74.3221 48.551C74.7063 48.7324 75.266 48.9083 76.0014 49.0786C76.7368 49.249 77.3185 49.4496 77.7466 49.6804C78.1747 49.9112 78.4847 50.186 78.6768 50.5048C78.8689 50.818 78.9649 51.2027 78.9649 51.6588C78.9649 52.3623 78.6768 52.9283 78.1006 53.357C77.5243 53.7857 76.7697 54 75.8368 54C74.838 54 74.0312 53.7747 73.4166 53.324C72.8074 52.8679 72.5028 52.2826 72.5028 51.5682H72.9474C72.9913 52.1947 73.2657 52.6838 73.7706 53.0355C74.2809 53.3817 74.9697 53.5549 75.8368 53.5549C76.6325 53.5549 77.2774 53.3707 77.7713 53.0025C78.2707 52.6288 78.5204 52.1782 78.5204 51.6506Z" fill="white"/>
<path d="M81.9778 53.8351H81.5333V44.9157H81.9778V53.8351ZM81.3028 42.1294C81.3028 42.003 81.3467 41.8958 81.4345 41.8079C81.5223 41.7144 81.6293 41.6677 81.7556 41.6677C81.8818 41.6677 81.9888 41.7144 82.0766 41.8079C82.1699 41.8958 82.2165 42.003 82.2165 42.1294C82.2165 42.2558 82.1699 42.3629 82.0766 42.4509C81.9888 42.5388 81.8818 42.5828 81.7556 42.5828C81.6293 42.5828 81.5223 42.5388 81.4345 42.4509C81.3467 42.3629 81.3028 42.2558 81.3028 42.1294Z" fill="white"/>
<path d="M87.9213 53.5549C88.728 53.5549 89.3921 53.3405 89.9134 52.9119C90.4403 52.4832 90.7284 51.8897 90.7778 51.1313H91.2223C91.1784 51.9941 90.8464 52.6893 90.2262 53.2169C89.6061 53.739 88.8378 54 87.9213 54C86.8072 54 85.9209 53.5961 85.2624 52.7882C84.6093 51.9803 84.2828 50.884 84.2828 49.499V49.2023C84.2828 47.8503 84.6093 46.7705 85.2624 45.9626C85.9209 45.1547 86.8018 44.7508 87.9048 44.7508C88.8488 44.7508 89.6281 45.0338 90.2427 45.5999C90.8574 46.1659 91.1839 46.9188 91.2223 47.8586H90.7778C90.7394 47.0562 90.4567 46.4132 89.9299 45.9296C89.4085 45.4405 88.7335 45.1959 87.9048 45.1959C86.9115 45.1959 86.1322 45.5559 85.567 46.2758C85.0072 46.9903 84.7273 47.985 84.7273 49.26V49.5485C84.7273 50.796 85.0099 51.777 85.5752 52.4914C86.1459 53.2004 86.928 53.5549 87.9213 53.5549Z" fill="white"/>
<path d="M98.1701 48.7654V53.8351H97.7256V41.8326H101.471C102.695 41.8326 103.644 42.1431 104.319 42.7641C105 43.3796 105.34 44.2369 105.34 45.3361C105.34 46.4242 105.008 47.2651 104.344 47.8586C103.686 48.4521 102.747 48.7544 101.529 48.7654H98.1701ZM98.1701 48.3202H101.471C102.552 48.3202 103.392 48.0592 103.99 47.5371C104.594 47.015 104.896 46.2868 104.896 45.3526C104.896 44.3853 104.594 43.6324 103.99 43.0938C103.392 42.5498 102.552 42.2777 101.471 42.2777H98.1701V48.3202Z" fill="white"/>
<path d="M108.172 53.8351H107.727V41.1731H108.172V53.8351Z" fill="white"/>
<path d="M116.848 53.8351C116.739 53.4559 116.684 52.9119 116.684 52.2029C116.333 52.7745 115.852 53.2169 115.243 53.5301C114.634 53.8434 113.945 54 113.177 54C112.354 54 111.69 53.7774 111.185 53.3323C110.685 52.8816 110.436 52.2963 110.436 51.5764C110.436 50.7576 110.803 50.1036 111.539 49.6145C112.28 49.1198 113.262 48.867 114.486 48.8561H116.684V47.5536C116.684 46.8062 116.448 46.2264 115.976 45.8142C115.509 45.402 114.84 45.1959 113.967 45.1959C113.155 45.1959 112.477 45.4048 111.934 45.8224C111.391 46.2401 111.119 46.7567 111.119 47.3722L110.674 47.3557C110.674 46.6303 110.993 46.0148 111.629 45.5092C112.266 45.0036 113.045 44.7508 113.967 44.7508C114.928 44.7508 115.69 44.9926 116.256 45.4762C116.821 45.9543 117.112 46.6303 117.128 47.5041V51.766C117.128 52.7442 117.205 53.4092 117.359 53.7609V53.8351H116.848ZM113.177 53.5631C114.011 53.5631 114.727 53.3762 115.326 53.0025C115.929 52.6288 116.382 52.104 116.684 51.428V49.3094H114.626C113.353 49.3094 112.378 49.5622 111.703 50.0679C111.155 50.48 110.88 50.9939 110.88 51.6094C110.88 52.1535 111.097 52.6151 111.531 52.9943C111.964 53.3735 112.513 53.5631 113.177 53.5631Z" fill="white"/>
<path d="M120.997 42.5086V44.9157H123.022V45.3691H120.997V51.7001C120.997 52.3321 121.099 52.7992 121.302 53.1015C121.51 53.4037 121.856 53.5549 122.339 53.5549C122.581 53.5549 122.874 53.5301 123.22 53.4807L123.294 53.9011C123.113 53.967 122.803 54 122.364 54C121.716 54 121.253 53.8214 120.973 53.4642C120.693 53.1015 120.55 52.5327 120.545 51.7578V45.3691H118.898V44.9157H120.545V42.5086H120.997Z" fill="white"/>
<path d="M126.011 53.8351V45.3691H124.463V44.9157H126.011V43.6132C126.016 42.7888 126.222 42.1486 126.628 41.6925C127.04 41.2308 127.61 41 128.34 41C128.746 41 129.098 41.0467 129.394 41.1401L129.328 41.5688C129.043 41.4864 128.716 41.4451 128.348 41.4451C127.761 41.4451 127.298 41.6375 126.957 42.0222C126.622 42.4014 126.455 42.9427 126.455 43.6462V44.9157H128.809V45.3691H126.455V53.8351H126.011Z" fill="white"/>
<path d="M129.978 49.2023C129.978 48.3505 130.14 47.5866 130.464 46.9106C130.793 46.2291 131.254 45.6988 131.847 45.3196C132.445 44.9404 133.12 44.7508 133.872 44.7508C134.618 44.7508 135.288 44.9349 135.881 45.3031C136.473 45.6713 136.934 46.1934 137.264 46.8694C137.598 47.5453 137.769 48.3065 137.774 49.1528V49.5485C137.774 50.4058 137.612 51.1725 137.288 51.8484C136.965 52.5244 136.504 53.052 135.905 53.4312C135.313 53.8104 134.64 54 133.889 54C133.137 54 132.462 53.8131 131.864 53.4394C131.271 53.0657 130.81 52.5436 130.481 51.8732C130.151 51.1972 129.984 50.4388 129.978 49.598V49.2023ZM130.423 49.5485C130.423 50.2904 130.568 50.9719 130.859 51.5929C131.156 52.2084 131.564 52.6893 132.086 53.0355C132.613 53.3817 133.214 53.5549 133.889 53.5549C134.904 53.5549 135.73 53.1729 136.366 52.409C137.008 51.6451 137.33 50.6614 137.33 49.4578V49.2023C137.33 48.4714 137.181 47.7954 136.885 47.1744C136.589 46.5534 136.177 46.0698 135.65 45.7235C135.129 45.3718 134.536 45.1959 133.872 45.1959C132.857 45.1959 132.028 45.5834 131.386 46.3583C130.744 47.1332 130.423 48.1086 130.423 49.2847V49.5485Z" fill="white"/>
<path d="M143.866 45.2372L143.289 45.1877C142.532 45.1877 141.898 45.435 141.388 45.9296C140.878 46.4187 140.543 47.1057 140.384 47.9905V53.8351H139.939V44.9157H140.384V46.7705C140.625 46.1494 140.987 45.6576 141.47 45.2949C141.953 44.9321 142.56 44.7508 143.289 44.7508C143.547 44.7508 143.756 44.781 143.915 44.8415L143.866 45.2372Z" fill="white"/>
<path d="M151.958 53.8351H151.513V47.8421C151.508 46.9463 151.31 46.2813 150.921 45.8472C150.536 45.4075 149.922 45.1877 149.077 45.1877C148.1 45.1877 147.301 45.6191 146.681 46.4819C146.313 46.9985 146.069 47.5701 145.948 48.1966V53.8351H145.496V44.9157H145.948V47.026C146.25 46.3006 146.681 45.74 147.241 45.3443C147.801 44.9486 148.421 44.7508 149.101 44.7508C149.848 44.7508 150.457 44.9157 150.929 45.2454C151.406 45.5751 151.719 46.1137 151.867 46.8611C152.131 46.2181 152.559 45.707 153.151 45.3278C153.744 44.9431 154.408 44.7508 155.144 44.7508C156.104 44.7508 156.817 45.0228 157.284 45.5669C157.756 46.111 157.995 46.9271 158 48.0152V53.8351H157.555V48.0482C157.555 47.07 157.358 46.3473 156.963 45.8802C156.573 45.4075 155.958 45.1767 155.119 45.1877C154.038 45.2042 153.182 45.6356 152.55 46.4819C152.188 46.971 151.991 47.4437 151.958 47.8998V53.8351Z" fill="white"/>
<path d="M69.4125 4.26345H59.5416V30.425H58.5359V4.26345H48.665V3.25581H69.4125V4.26345Z" fill="white"/>
<path d="M80.6168 10.9624L79.3131 10.8505C77.5997 10.8505 76.1656 11.4103 75.0109 12.5299C73.8562 13.6371 73.0988 15.1921 72.7388 17.1949V30.425H71.7331V10.2347H72.7388V14.4332C73.2851 13.0275 74.1045 11.9141 75.1972 11.0931C76.2898 10.272 77.6618 9.8615 79.3131 9.8615C79.8967 9.8615 80.3685 9.92992 80.7286 10.0668L80.6168 10.9624Z" fill="white"/>
<path d="M97.5277 30.425C97.2793 29.5666 97.1552 28.3351 97.1552 26.7303C96.3605 28.0241 95.2741 29.0255 93.8959 29.7346C92.5177 30.4436 90.9595 30.7982 89.2212 30.7982C87.3588 30.7982 85.8565 30.2944 84.7142 29.2867C83.5843 28.2666 83.0194 26.9418 83.0194 25.3121C83.0194 23.4585 83.8512 21.9782 85.515 20.871C87.1912 19.7514 89.4137 19.1791 92.1825 19.1543H97.1552V16.206C97.1552 14.5141 96.6213 13.2017 95.5535 12.2687C94.4981 11.3357 92.9833 10.8691 91.0092 10.8691C89.1716 10.8691 87.6382 11.3419 86.409 12.2873C85.1798 13.2328 84.5652 14.4021 84.5652 15.7954L83.5595 15.7581C83.5595 14.116 84.2796 12.7227 85.7199 11.5782C87.1602 10.4337 88.9233 9.8615 91.0092 9.8615C93.182 9.8615 94.9079 10.4089 96.1867 11.5036C97.4656 12.5859 98.1236 14.116 98.1609 16.094V25.7413C98.1609 27.9556 98.3347 29.4609 98.6824 30.257V30.425H97.5277ZM89.2212 29.8092C91.1085 29.8092 92.7288 29.3862 94.0822 28.5403C95.448 27.6944 96.4723 26.5064 97.1552 24.9762V20.1806H92.4991C89.6186 20.1806 87.4147 20.7528 85.8875 21.8973C84.6459 22.8303 84.0251 23.9935 84.0251 25.3867C84.0251 26.6183 84.5155 27.6633 85.4964 28.5217C86.4773 29.38 87.7189 29.8092 89.2212 29.8092Z" fill="white"/>
<path d="M111.496 29.7905C113.321 29.7905 114.823 29.3054 116.003 28.3351C117.195 27.3647 117.847 26.0212 117.958 24.3045H118.964C118.865 26.2576 118.114 27.8312 116.711 29.0255C115.308 30.2073 113.569 30.7982 111.496 30.7982C108.975 30.7982 106.97 29.8838 105.48 28.0552C104.003 26.2265 103.264 23.7447 103.264 20.6098V19.938C103.264 16.8777 104.003 14.4332 105.48 12.6045C106.97 10.7758 108.963 9.8615 111.459 9.8615C113.594 9.8615 115.357 10.5022 116.748 11.7835C118.139 13.0648 118.877 14.7691 118.964 16.8964H117.958C117.872 15.0801 117.232 13.6246 116.04 12.5299C114.861 11.4227 113.333 10.8691 111.459 10.8691C109.211 10.8691 107.448 11.684 106.169 13.3136C104.903 14.9308 104.27 17.1825 104.27 20.0686V20.7217C104.27 23.5456 104.909 25.7662 106.188 27.3834C107.479 28.9882 109.249 29.7905 111.496 29.7905Z" fill="white"/>
<path d="M127.997 19.5088L127.96 19.5461L125.036 22.0652V30.425H124.03V1.76299H125.036V20.9643L127.401 18.7251L136.564 10.2347H137.998L128.742 18.837L138.576 30.425H137.272L127.997 19.5088Z" fill="white"/>
<path d="M140.792 20.1246C140.792 16.9026 141.469 14.3897 142.822 12.5859C144.175 10.7696 146.031 9.8615 148.391 9.8615C149.905 9.8615 151.24 10.2036 152.395 10.8878C153.562 11.572 154.506 12.5921 155.226 13.9481V1.76299H156.231V30.425H155.226V27.1968C154.543 28.3413 153.605 29.2307 152.413 29.8652C151.221 30.4872 149.868 30.7982 148.353 30.7982C146.019 30.7982 144.175 29.8714 142.822 28.0178C141.469 26.1643 140.792 23.6203 140.792 20.3858V20.1246ZM141.835 20.5164C141.835 23.3777 142.4 25.6418 143.53 27.3087C144.659 28.9633 146.261 29.7905 148.335 29.7905C149.998 29.7905 151.42 29.4236 152.6 28.6896C153.779 27.9432 154.655 26.8547 155.226 25.4241V15.9634C154.071 12.5672 151.786 10.8691 148.372 10.8691C146.311 10.8691 144.703 11.684 143.548 13.3136C142.406 14.9433 141.835 17.3442 141.835 20.5164Z" fill="white"/>
<path d="M160.944 4.7171C160.944 4.047 161.098 3.42499 161.406 2.85109C161.717 2.27718 162.146 1.82602 162.692 1.4976C163.242 1.16587 163.835 1 164.47 1C165.106 1 165.697 1.16587 166.243 1.4976C166.793 1.82602 167.222 2.27718 167.53 2.85109C167.841 3.42499 167.997 4.047 167.997 4.7171C167.997 5.37726 167.846 5.99263 167.545 6.56321C167.243 7.1338 166.818 7.5916 166.268 7.9366C165.722 8.27829 165.123 8.44913 164.47 8.44913C163.818 8.44913 163.217 8.27829 162.667 7.9366C162.121 7.5916 161.697 7.1338 161.396 6.56321C161.095 5.99263 160.944 5.37726 160.944 4.7171ZM161.217 4.7171C161.217 5.33413 161.361 5.90969 161.649 6.44379C161.937 6.97457 162.333 7.39587 162.836 7.7077C163.34 8.01954 163.884 8.17545 164.47 8.17545C165.053 8.17545 165.596 8.01954 166.099 7.7077C166.603 7.39587 166.998 6.97457 167.286 6.44379C167.574 5.90969 167.718 5.33413 167.718 4.7171C167.718 4.09676 167.574 3.52285 167.286 2.99539C166.998 2.46461 166.601 2.04497 166.094 1.73645C165.591 1.42794 165.05 1.27368 164.47 1.27368C163.888 1.27368 163.343 1.42794 162.836 1.73645C162.333 2.04497 161.937 2.46461 161.649 2.99539C161.361 3.52285 161.217 4.09676 161.217 4.7171ZM163.591 4.97088V6.72245H163.318V2.59233H164.505C165.462 2.59233 165.94 2.99042 165.94 3.78658C165.94 4.26428 165.687 4.60597 165.181 4.81165C165.618 4.94102 165.836 5.28603 165.836 5.84666C165.836 6.21489 165.864 6.48028 165.921 6.64283V6.72245H165.628C165.581 6.60302 165.558 6.31109 165.558 5.84666C165.558 5.54147 165.493 5.32086 165.364 5.18485C165.238 5.04884 165.02 4.97752 164.709 4.97088H163.591ZM163.591 4.69222H164.609C164.927 4.69222 165.182 4.60929 165.374 4.44342C165.57 4.27424 165.667 4.05363 165.667 3.78161C165.667 3.45651 165.581 3.22429 165.409 3.08496C165.24 2.94563 164.962 2.87265 164.575 2.86602H163.591V4.69222Z" fill="white"/>
<path d="M0 22.3833L11.2675 11.1158L22.535 22.3833L11.2675 33.6508L0 22.3833Z" fill="#F2B471"/>
<path d="M11.1133 11.2676L22.3808 0.000101877L33.6482 11.2676L22.3808 22.5351L11.1133 11.2676Z" fill="#00AFDC"/>
<path d="M22.3809 22.5352L33.6483 11.2677L44.9158 22.5352L33.6483 33.8026L22.3809 22.5352Z" fill="#E76D66"/>
</svg>
