<svg width="50" height="40" viewBox="0 0 50 40" fill="none" xmlns="http://www.w3.org/2000/svg">
<path d="M49.0246 4.73472C47.2292 5.53931 45.3006 6.08074 43.2763 6.32496C45.3437 5.07549 46.929 3.09717 47.6757 0.738322C45.7433 1.89503 43.6008 2.73558 41.3195 3.18993C39.494 1.22675 36.8938 0 34.0158 0C28.4888 0 24.0087 4.52269 24.0087 10.098C24.0087 10.8893 24.0988 11.6617 24.2676 12.3981C15.9509 11.9778 8.57778 7.95684 3.63988 1.8458C2.78063 3.33759 2.28721 5.0717 2.28721 6.92508C2.28721 10.4274 4.05262 13.5189 6.73732 15.3287C5.09761 15.2757 3.55358 14.8213 2.20467 14.066C2.20467 14.1095 2.20467 14.1493 2.20467 14.1928C2.20467 19.0866 5.65294 23.1682 10.2325 24.0939C9.39388 24.3249 8.50836 24.4479 7.5947 24.4479C6.9512 24.4479 6.32271 24.3835 5.71297 24.2681C6.98685 28.2796 10.6828 31.2007 15.0616 31.2821C11.6377 33.9912 7.32267 35.606 2.63242 35.606C1.82569 35.606 1.02835 35.5587 0.244141 35.4641C4.67361 38.3284 9.93232 40 15.585 40C33.9933 40 44.0567 24.6126 44.0567 11.2679C44.0567 10.8306 44.0473 10.3952 44.0286 9.96166C45.9853 8.53614 47.6832 6.75848 49.0246 4.73472Z" fill="#4A4A4A"/>
</svg>
