<svg width="43" height="40" viewBox="0 0 43 40" fill="none" xmlns="http://www.w3.org/2000/svg">
<path d="M21.4634 0C14.0434 0 7.56318 4.03167 4.08266 10H8.08681C9.83545 7.69167 12.1667 5.84091 14.8683 4.68424C13.9907 6.16758 13.259 7.97167 12.6929 10H16.2227C17.5459 5.90167 19.5691 3.33333 21.4634 3.33333C23.3578 3.33333 25.3809 5.90167 26.7041 10H30.2339C29.6678 7.97167 28.9362 6.16758 28.0585 4.68424C30.7618 5.84091 33.0947 7.69167 34.8433 10H38.8442C35.362 4.03167 28.8834 0 21.4634 0ZM0 15L2.6269 25H5.03463L6.68667 18.8737H6.81098L8.48919 25H10.8838L13.5107 15H10.8773L9.5622 21.6309H9.43461L7.76949 15H5.72489L4.11538 21.6309H3.98779L2.65308 15H0ZM14.708 15L17.3317 25H19.7427L21.3947 18.8737H21.519L23.1972 25H25.5951L28.2188 15H25.5886L24.2702 21.6309H24.1459L22.4808 15H20.4329L18.8234 21.6309H18.6958L17.3611 15H14.708ZM29.4161 15L32.043 25H34.454L36.1028 18.8737H36.2271L37.9053 25H40.2999L42.9268 15H40.2934L38.9783 21.6309H38.854L37.1889 15H35.141L33.5315 21.6309H33.4072L32.0692 15H29.4161ZM4.08266 30C7.56318 35.9683 14.0434 40 21.4634 40C28.8834 40 35.3636 35.9683 38.8442 30H34.8433C33.0947 32.3083 30.7634 34.1591 28.0618 35.3158C28.9394 33.8324 29.6678 32.0283 30.2339 30H26.7041C25.3826 34.0983 23.361 36.6667 21.4667 36.6667C19.5723 36.6667 17.5492 34.0983 16.226 30H12.6929C13.259 32.0283 13.9907 33.8324 14.8683 35.3158C12.165 34.1591 9.83545 32.3083 8.08681 30H4.08266Z" fill="#ffffff"/>
</svg>
