<svg width="47" height="40" viewBox="0 0 47 40" fill="none" xmlns="http://www.w3.org/2000/svg">
<path d="M23.5123 0C15.9728 0 6.18701 1.90679 6.18701 1.90679L6.16238 1.9352C2.72849 2.48953 0.0976562 5.46792 0.0976562 9.0901V19.9982V20.0018V30.9063V30.9099C0.101007 32.6398 0.715208 34.3119 1.82998 35.6258C2.94474 36.9398 4.48705 37.8096 6.17997 38.079L6.18701 38.0897C6.18701 38.0897 15.9728 40 23.5123 40C31.0518 40 40.8376 38.0897 40.8376 38.0897L40.8411 38.0861C42.5358 37.8172 44.0799 36.9467 45.1956 35.6312C46.3112 34.3157 46.9251 32.6416 46.9269 30.9099V30.9063V20.0018V19.9982V9.0901C46.9244 7.35958 46.3106 5.68668 45.1957 4.37199C44.0809 3.0573 42.5381 2.18699 40.8446 1.91744L40.8376 1.90679C40.8376 1.90679 31.0518 0 23.5123 0ZM18.1089 11.6325L32.5179 19.9982L18.1089 28.364V11.6325Z" fill="#ffffff"/>
</svg>
