<svg width="31" height="24" viewBox="0 0 31 24" fill="none" xmlns="http://www.w3.org/2000/svg">
<path d="M24.4558 1.92878L24.517 1.92667L24.577 1.91466L30.033 0.823469V4.26197L27.171 5.23383L26.6621 5.40662V5.944V20.2174C26.6621 20.4906 26.5412 20.8142 26.2413 21.1767C25.942 21.5385 25.4982 21.8956 24.9527 22.2127C23.8532 22.8519 22.4788 23.25 21.3997 23.25C20.2123 23.25 19.6096 22.9796 19.2938 22.6667C18.9813 22.3569 18.806 21.8628 18.806 21.0743C18.806 20.2259 19.0562 19.798 19.3498 19.5259C19.6863 19.2142 20.1649 19.0231 20.7994 18.8147C20.865 18.7931 20.9333 18.7712 21.0037 18.7485C21.543 18.5751 22.2048 18.3622 22.724 17.9944C23.0382 17.7718 23.3232 17.4806 23.5252 17.0899C23.7267 16.7001 23.8247 16.2521 23.8247 15.7452V1.9793C23.9695 1.95718 24.1732 1.93853 24.4558 1.92878Z" stroke="white" stroke-width="1.5"/>
</svg>
