<svg width="27" height="27" viewBox="0 0 27 27" fill="none" xmlns="http://www.w3.org/2000/svg">
<path d="M7.14286 1C4.63783 1 3.09312 1.24805 2.15616 1.51562C1.68671 1.64844 1.3692 1.79297 1.15882 1.90625C1.09064 1.94336 1.05363 1.98242 1.00299 2.01562C0.991301 2.02344 0.967926 2.02344 0.956238 2.03125C0.903644 2.05859 0.854945 2.0957 0.815987 2.14062C0.810143 2.14062 0.806247 2.14062 0.800403 2.14062L0.78482 2.17188C0.767289 2.18555 0.751705 2.20117 0.73807 2.21875L0.660152 2.28125V2.40625C0.658204 2.42773 0.658204 2.44727 0.660152 2.46875V25.5C0.658204 25.6797 0.751705 25.8477 0.90754 25.9395C1.06337 26.0293 1.25427 26.0293 1.41011 25.9395C1.56594 25.8477 1.65944 25.6797 1.65749 25.5V16.3281C1.86592 16.2441 2.17954 16.127 2.74833 15.9844C3.69892 15.7441 5.15598 15.5 7.14286 15.5C9.08885 15.5 10.5323 15.9805 12.2854 16.4844C14.0385 16.9883 16.08 17.5 19.1109 17.5C22.6133 17.5 25.3443 15.9375 25.3443 15.9375L25.5937 15.7969V2.15625L24.8612 2.5625C24.4522 2.78516 22.1088 4 19.1109 4C16.7286 4 15.067 3.29688 13.3139 2.54688C11.5608 1.79688 9.71608 1 7.14286 1ZM7.14286 2C9.5135 2 11.1712 2.70312 12.9243 3.45312C14.6775 4.20312 16.5299 5 19.1109 5C21.7952 5 23.6555 4.20312 24.5963 3.75V15.1719C24.2554 15.3555 22.0776 16.5 19.1109 16.5C16.1929 16.5 14.2801 16.0117 12.5503 15.5156C10.8206 15.0195 9.25247 14.5 7.14286 14.5C5.07416 14.5 3.54309 14.7559 2.51458 15.0156C1.95942 15.1562 1.92241 15.207 1.65749 15.3125V2.76562C1.79969 2.69141 2.04318 2.5957 2.43666 2.48438C3.2548 2.25195 4.70406 2 7.14286 2Z" stroke="white"/>
</svg>
