<svg width="26" height="23" viewBox="0 0 26 23" fill="none" xmlns="http://www.w3.org/2000/svg">
<path d="M16.4876 5.76493L16.8519 5.60373L16.7761 5.2126C16.7244 4.94559 16.6939 4.68795 16.6939 4.42308C16.6939 2.27444 18.4863 0.5 20.6922 0.5C22.8981 0.5 24.6905 2.27444 24.6905 4.42308C24.6905 6.57171 22.8981 8.34615 20.6922 8.34615C19.3362 8.34615 18.1298 7.67059 17.4043 6.63754L17.1679 6.30082L16.7919 6.46803L8.68095 10.0756L8.30597 10.2424L8.39644 10.6427C8.45977 10.9229 8.4966 11.2105 8.4966 11.5C8.4966 11.7814 8.46008 12.0619 8.39644 12.3435L8.30531 12.7468L8.68425 12.912L16.8444 16.4712L17.2123 16.6317L17.4485 16.3073C18.1742 15.3108 19.3623 14.6538 20.6922 14.6538C22.8981 14.6538 24.6905 16.4283 24.6905 18.5769C24.6905 20.7256 22.8981 22.5 20.6922 22.5C18.4863 22.5 16.6939 20.7256 16.6939 18.5769C16.6939 18.2952 16.7305 18.0153 16.7935 17.7427L16.887 17.3382L16.5066 17.1719L8.34636 13.6058L7.97837 13.445L7.74195 13.7697C7.01631 14.7661 5.82814 15.4231 4.4983 15.4231C2.29239 15.4231 0.5 13.6486 0.5 11.5C0.5 9.35137 2.29239 7.57692 4.4983 7.57692C5.82075 7.57692 6.99703 8.22689 7.73087 9.21364L7.96919 9.5341L8.3344 9.3725L16.4876 5.76493ZM23.8912 4.42308C23.8912 2.66005 22.4645 1.26923 20.6922 1.26923C18.9199 1.26923 17.4932 2.66005 17.4932 4.42308C17.4932 6.1861 18.9199 7.57692 20.6922 7.57692C22.4645 7.57692 23.8912 6.1861 23.8912 4.42308ZM7.69728 11.5C7.69728 9.73698 6.27058 8.34615 4.4983 8.34615C2.72602 8.34615 1.29932 9.73698 1.29932 11.5C1.29932 13.263 2.72602 14.6538 4.4983 14.6538C6.27058 14.6538 7.69728 13.263 7.69728 11.5ZM23.8912 18.5769C23.8912 16.8139 22.4645 15.4231 20.6922 15.4231C18.9199 15.4231 17.4932 16.8139 17.4932 18.5769C17.4932 20.3399 18.9199 21.7308 20.6922 21.7308C22.4645 21.7308 23.8912 20.3399 23.8912 18.5769Z" stroke="white"/>
</svg>
